<svg xmlns="http://www.w3.org/2000/svg" xmlns:xlink="http://www.w3.org/1999/xlink" width="100" height="100" viewBox="0 0 100 100"><circle stroke="none" fill="#03a286" r="48%" cx="50%" cy="50%"></circle><g transform="translate(50 50) scale(0.69 0.69) rotate(0) translate(-50 -50)" style="fill:#ffffff"><svg fill="#ffffff" xmlns="http://www.w3.org/2000/svg" xmlns:xlink="http://www.w3.org/1999/xlink" version="1.1" x="0px" y="0px" viewBox="0 0 100 100" enable-background="new 0 0 100 100" xml:space="preserve"><g><path d="M21.913,43.191l0.045-0.039c0.116-0.102,11.782-10.085,27.871-10.085c8.379,0,15.57,2.735,20.127,5.03   c4.967,2.501,7.974,5.037,8.017,5.072l0.032,0.015v0.187h2.999v-2.213h-1.774l-0.003,0.001c-0.843-0.678-3.746-2.905-8.15-5.13   c-8.691-4.391-16.352-5.312-21.247-5.312c-8.873,0-16.387,2.89-21.128,5.315c-4.364,2.232-7.188,4.438-8.024,5.126h-1.681v2.213   h2.917V43.191z M64.735,35.689c-0.481-0.177-0.98-0.35-1.49-0.518l0.654-1.976c0.512,0.168,1.03,0.348,1.554,0.541L64.735,35.689z    M66.987,34.327c0.501,0.202,1.006,0.416,1.516,0.64l-0.84,1.901c-0.469-0.207-0.949-0.412-1.454-0.615L66.987,34.327z    M61.741,34.702c-0.496-0.146-1.002-0.286-1.519-0.419l0.516-2.01c0.521,0.133,1.051,0.277,1.588,0.435L61.741,34.702z    M58.691,33.916c-0.506-0.111-1.021-0.213-1.543-0.308l0.37-2.04c0.528,0.096,1.066,0.204,1.617,0.324L58.691,33.916z    M55.597,33.355c-0.514-0.074-1.033-0.138-1.56-0.194l0.217-2.063c0.529,0.056,1.075,0.124,1.637,0.206L55.597,33.355z    M52.472,33.025c-0.517-0.035-1.038-0.059-1.565-0.074l0.057-2.079c0.523,0.015,1.072,0.041,1.646,0.08L52.472,33.025z    M48.75,32.95c-0.499,0.014-0.996,0.036-1.485,0.068l-0.135-2.066c0.517-0.034,1.038-0.059,1.564-0.073L48.75,32.95z M45.78,33.141   c-0.498,0.051-0.992,0.109-1.479,0.177l-0.284-2.048c0.512-0.071,1.028-0.134,1.554-0.188L45.78,33.141z M42.828,33.55   c-0.494,0.087-0.981,0.183-1.463,0.286l-0.428-2.026c0.504-0.107,1.016-0.206,1.535-0.297L42.828,33.55z M39.912,34.172   c-0.488,0.122-0.969,0.25-1.441,0.384l-0.566-1.999c0.493-0.14,0.998-0.272,1.51-0.399L39.912,34.172z M37.041,34.987   c-0.48,0.154-0.954,0.312-1.417,0.476l-0.693-1.959c0.481-0.17,0.973-0.338,1.478-0.499L37.041,34.987z M34.225,35.985   c-0.474,0.186-0.933,0.375-1.384,0.567l-0.817-1.917c0.466-0.197,0.947-0.394,1.444-0.586L34.225,35.985z M31.474,37.16   c-0.464,0.215-0.913,0.432-1.348,0.649l-0.934-1.866c0.448-0.224,0.912-0.45,1.404-0.677L31.474,37.16z M28.797,38.497   c-0.456,0.246-0.892,0.488-1.308,0.728l-1.043-1.808c0.433-0.25,0.886-0.503,1.361-0.759L28.797,38.497z M26.204,39.99   c-0.45,0.278-0.869,0.546-1.255,0.801l-1.153-1.736c0.403-0.267,0.841-0.547,1.312-0.838L26.204,39.99z M24.055,41.398   c-0.683,0.475-1.216,0.875-1.584,1.162l-1.281-1.635c0.395-0.31,0.954-0.733,1.672-1.234L24.055,41.398z M77.44,42.571   c-0.63-0.483-1.736-1.291-3.242-2.238l1.102-1.759c1.573,0.987,2.73,1.832,3.405,2.352L77.44,42.571z M73.272,39.766   c-0.43-0.257-0.887-0.521-1.367-0.789l1.01-1.813c0.5,0.278,0.977,0.553,1.424,0.821L73.272,39.766z M71.466,36.387l-0.952,1.842   c-0.164-0.085-0.326-0.169-0.495-0.255c-0.295-0.148-0.602-0.299-0.918-0.451l0.895-1.87c0.338,0.162,0.678,0.327,1.019,0.499   C71.169,36.231,71.315,36.309,71.466,36.387z"></path><rect x="7.033" y="51.809" width="14.245" height="1.66"></rect><rect x="7.033" y="45.677" width="14.245" height="1.66"></rect><rect x="78.722" y="45.677" width="14.246" height="1.66"></rect><rect x="7.033" y="57.939" width="14.245" height="1.662"></rect><rect x="78.722" y="51.809" width="14.246" height="1.66"></rect><rect x="78.722" y="57.939" width="14.246" height="1.662"></rect><polygon points="73.485,63.172 73.485,68.869 53.494,68.869 53.494,63.172 1.501,63.172 1.501,63.588 53.079,63.588 53.079,69.283    73.899,69.283 73.899,63.588 98.499,63.588 98.499,63.172  "></polygon><polygon points="76.856,62.516 76.856,53.111 50.442,53.111 50.442,62.516 52.102,62.516 52.102,54.77 75.197,54.77 75.197,62.516     "></polygon><polygon points="44.772,62.516 44.772,53.111 26.079,53.111 26.079,62.516 27.739,62.516 27.739,54.77 43.112,54.77 43.112,62.516     "></polygon><path d="M60.303,63.191c-0.2,0-0.394,0.033-0.565,0.094c-0.167,0.057-0.354,0.088-0.549,0.088s-0.382-0.031-0.549-0.088   c-0.172-0.061-0.366-0.094-0.565-0.094c-0.203,0-0.395,0.033-0.567,0.094c-0.166,0.057-0.354,0.088-0.55,0.088   c-0.192,0-0.382-0.031-0.548-0.088c-0.173-0.061-0.366-0.094-0.566-0.094c-0.201,0-0.395,0.033-0.564,0.094   c-0.17,0.057-0.356,0.088-0.552,0.088v0.621c0.195,0,0.382-0.033,0.552-0.092s0.363-0.092,0.564-0.092   c0.2,0,0.394,0.033,0.566,0.092c0.166,0.059,0.354,0.092,0.548,0.092c0.195,0,0.384-0.033,0.55-0.092   c0.173-0.059,0.364-0.092,0.567-0.092c0.199,0,0.394,0.033,0.565,0.092c0.167,0.059,0.354,0.092,0.549,0.092   c0.193,0,0.382-0.033,0.549-0.092c0.172-0.059,0.365-0.092,0.565-0.092c0.201,0,0.395,0.033,0.569,0.092   c0.165,0.059,0.353,0.092,0.547,0.092c0.195,0,0.381-0.033,0.549-0.092c0.171-0.059,0.364-0.092,0.565-0.092   c0.203,0,0.396,0.033,0.567,0.092c0.167,0.059,0.354,0.092,0.548,0.092c0.196,0,0.383-0.033,0.552-0.092   c0.171-0.059,0.363-0.092,0.564-0.092c0.2,0,0.395,0.033,0.566,0.092c0.166,0.059,0.355,0.092,0.548,0.092   c0.196,0,0.385-0.033,0.551-0.092c0.172-0.059,0.365-0.092,0.568-0.092c0.198,0,0.392,0.033,0.563,0.092   c0.168,0.059,0.354,0.092,0.55,0.092c0.193,0,0.382-0.033,0.548-0.092c0.172-0.059,0.366-0.092,0.567-0.092   c0.2,0,0.394,0.033,0.567,0.092c0.166,0.059,0.354,0.092,0.548,0.092s0.382-0.033,0.548-0.092c0.171-0.059,0.366-0.092,0.566-0.092   c0.203,0,0.396,0.033,0.567,0.092c0.167,0.059,0.353,0.092,0.549,0.092v-0.621c-0.195,0-0.382-0.031-0.549-0.088   c-0.171-0.061-0.364-0.094-0.567-0.094c-0.2,0-0.396,0.033-0.566,0.094c-0.166,0.057-0.354,0.088-0.548,0.088   s-0.381-0.031-0.548-0.088c-0.174-0.061-0.367-0.094-0.567-0.094c-0.201,0-0.396,0.033-0.567,0.094   c-0.166,0.057-0.354,0.088-0.548,0.088c-0.194,0-0.382-0.031-0.55-0.088c-0.172-0.061-0.365-0.094-0.563-0.094   c-0.203,0-0.396,0.033-0.568,0.094c-0.166,0.057-0.354,0.088-0.551,0.088c-0.192,0-0.382-0.031-0.548-0.088   c-0.172-0.061-0.366-0.094-0.566-0.094c-0.201,0-0.394,0.033-0.564,0.094c-0.169,0.057-0.355,0.088-0.552,0.088   c-0.194,0-0.381-0.031-0.548-0.088c-0.171-0.061-0.364-0.094-0.567-0.094c-0.201,0-0.395,0.033-0.565,0.094   c-0.166,0.057-0.354,0.088-0.549,0.088c-0.194,0-0.382-0.031-0.547-0.088C60.697,63.225,60.504,63.191,60.303,63.191z"></path><path d="M64.912,61.424c0,0.434,0.32,0.789,0.788,0.789c0.437,0,0.79-0.355,0.79-0.789c0-0.438-0.354-0.791-0.79-0.791   C65.266,60.633,64.912,60.986,64.912,61.424z"></path><path d="M65.427,62.928l-1.435-2.545l1.529-0.277c0.226-0.045,0.389-0.219,0.389-0.447c0-0.248-0.203-0.449-0.45-0.449   c-0.018,0-0.035,0-0.053,0.002l-2.363,0.432c-0.167,0.037-0.386,0.281-0.261,0.582c0.007,0.014,0.014,0.029,0.02,0.045l0.618,1.117   l-2.435,1.541H65.427z"></path><path d="M34.261,62.299v-2.244c0-0.271-0.188-0.557-0.55-0.557l-1.236-0.002l-0.333-1.652c-0.194-0.863-1.408-0.607-1.278,0.238   l0.382,1.92c0.058,0.289,0.289,0.541,0.658,0.541h1.58v1.744C33.483,62.84,34.261,62.844,34.261,62.299z"></path><path d="M32.17,56.445c0.006-0.4-0.321-0.73-0.726-0.73c-0.401-0.004-0.73,0.322-0.73,0.723c-0.003,0.404,0.322,0.732,0.727,0.734   C31.842,57.172,32.17,56.846,32.17,56.445z"></path><path d="M37.448,62.287v-1.744h1.579c0.37,0,0.601-0.252,0.658-0.541l0.383-1.92c0.129-0.846-1.085-1.102-1.279-0.238l-0.333,1.652   l-1.236,0.002c-0.36,0-0.549,0.285-0.549,0.557v2.244C36.671,62.844,37.448,62.84,37.448,62.287z"></path><path d="M39.487,55.715c-0.405,0-0.731,0.33-0.727,0.73c0,0.4,0.328,0.727,0.729,0.727c0.404-0.002,0.729-0.33,0.727-0.734   C40.217,56.037,39.889,55.711,39.487,55.715z"></path><polygon points="35.727,62.705 35.727,58.84 37.975,58.84 37.975,58.424 33.064,58.424 33.064,58.84 35.312,58.84 35.312,62.705     "></polygon><path d="M25.771,47.73c0,0.604,0.42,1.11,0.984,1.244c-0.139,0.204-0.22,0.45-0.22,0.715c0,0.707,0.573,1.28,1.279,1.28   c0.228,0,0.44-0.059,0.624-0.162c0.199,0.447,0.647,0.762,1.17,0.762s0.971-0.314,1.17-0.762c0.185,0.104,0.396,0.162,0.623,0.162   c0.707,0,1.279-0.573,1.279-1.28c0-0.265-0.08-0.511-0.219-0.715c0.564-0.134,0.984-0.64,0.984-1.244   c0-0.564-0.366-1.044-0.875-1.213c0.07-0.157,0.109-0.332,0.109-0.515c0-0.707-0.572-1.28-1.279-1.28   c-0.199,0-0.388,0.047-0.556,0.129c-0.143-0.552-0.642-0.959-1.237-0.959s-1.095,0.407-1.237,0.959   c-0.168-0.082-0.356-0.129-0.557-0.129c-0.706,0-1.279,0.573-1.279,1.28c0,0.183,0.04,0.357,0.109,0.515   C26.137,46.686,25.771,47.166,25.771,47.73z"></path><path d="M34.547,47.73c0,0.604,0.42,1.11,0.984,1.244c-0.139,0.204-0.219,0.45-0.219,0.715c0,0.707,0.572,1.28,1.279,1.28   c0.227,0,0.438-0.059,0.624-0.162c0.198,0.447,0.646,0.762,1.169,0.762s0.971-0.314,1.17-0.762   c0.185,0.104,0.396,0.162,0.624,0.162c0.706,0,1.278-0.573,1.278-1.28c0-0.265-0.08-0.511-0.218-0.715   c0.563-0.134,0.983-0.64,0.983-1.244c0-0.564-0.366-1.044-0.874-1.213c0.069-0.157,0.108-0.332,0.108-0.515   c0-0.707-0.572-1.28-1.278-1.28c-0.2,0-0.388,0.047-0.557,0.129c-0.143-0.552-0.642-0.959-1.237-0.959s-1.094,0.407-1.237,0.959   c-0.168-0.082-0.356-0.129-0.556-0.129c-0.707,0-1.279,0.573-1.279,1.28c0,0.183,0.039,0.357,0.108,0.515   C34.913,46.686,34.547,47.166,34.547,47.73z"></path><path d="M50.999,47.73c0-0.564-0.367-1.044-0.874-1.213c0.069-0.157,0.109-0.332,0.109-0.515c0-0.707-0.573-1.28-1.28-1.28   c-0.199,0-0.387,0.047-0.556,0.129c-0.143-0.552-0.641-0.959-1.236-0.959c-0.597,0-1.095,0.407-1.238,0.959   c-0.168-0.082-0.356-0.129-0.557-0.129c-0.705,0-1.278,0.573-1.278,1.28c0,0.183,0.039,0.357,0.109,0.515   c-0.508,0.169-0.875,0.648-0.875,1.213c0,0.604,0.421,1.11,0.984,1.244c-0.138,0.204-0.219,0.45-0.219,0.715   c0,0.707,0.573,1.28,1.278,1.28c0.229,0,0.44-0.059,0.624-0.162c0.199,0.447,0.647,0.762,1.171,0.762   c0.521,0,0.97-0.314,1.169-0.762c0.185,0.104,0.397,0.162,0.623,0.162c0.707,0,1.28-0.573,1.28-1.28   c0-0.265-0.081-0.511-0.219-0.715C50.579,48.84,50.999,48.334,50.999,47.73z"></path><path d="M52.1,47.73c0,0.604,0.42,1.11,0.983,1.244c-0.138,0.204-0.218,0.45-0.218,0.715c0,0.707,0.572,1.28,1.279,1.28   c0.227,0,0.439-0.059,0.624-0.162c0.198,0.447,0.646,0.762,1.169,0.762s0.972-0.314,1.17-0.762   c0.185,0.104,0.397,0.162,0.624,0.162c0.706,0,1.278-0.573,1.278-1.28c0-0.265-0.08-0.511-0.219-0.715   c0.564-0.134,0.985-0.64,0.985-1.244c0-0.564-0.367-1.044-0.875-1.213c0.07-0.157,0.108-0.332,0.108-0.515   c0-0.707-0.572-1.28-1.278-1.28c-0.2,0-0.389,0.047-0.557,0.129c-0.142-0.552-0.642-0.959-1.237-0.959   c-0.595,0-1.095,0.407-1.237,0.959c-0.168-0.082-0.356-0.129-0.556-0.129c-0.707,0-1.279,0.573-1.279,1.28   c0,0.183,0.039,0.357,0.108,0.515C52.467,46.686,52.1,47.166,52.1,47.73z"></path><path d="M60.876,47.73c0,0.604,0.421,1.11,0.984,1.244c-0.139,0.204-0.22,0.45-0.22,0.715c0,0.707,0.573,1.28,1.28,1.28   c0.227,0,0.438-0.059,0.624-0.162c0.199,0.447,0.647,0.762,1.169,0.762c0.523,0,0.972-0.314,1.171-0.762   c0.184,0.104,0.396,0.162,0.623,0.162c0.706,0,1.279-0.573,1.279-1.28c0-0.265-0.081-0.511-0.22-0.715   c0.565-0.134,0.984-0.64,0.984-1.244c0-0.564-0.366-1.044-0.874-1.213c0.069-0.157,0.109-0.332,0.109-0.515   c0-0.707-0.573-1.28-1.279-1.28c-0.199,0-0.389,0.047-0.556,0.129c-0.144-0.552-0.643-0.959-1.238-0.959s-1.095,0.407-1.236,0.959   c-0.169-0.082-0.356-0.129-0.557-0.129c-0.707,0-1.28,0.573-1.28,1.28c0,0.183,0.04,0.357,0.109,0.515   C61.242,46.686,60.876,47.166,60.876,47.73z"></path><path d="M77.328,47.73c0-0.564-0.366-1.044-0.874-1.213c0.07-0.157,0.109-0.332,0.109-0.515c0-0.707-0.573-1.28-1.279-1.28   c-0.2,0-0.388,0.047-0.557,0.129c-0.143-0.552-0.641-0.959-1.236-0.959c-0.597,0-1.095,0.407-1.238,0.959   c-0.167-0.082-0.356-0.129-0.555-0.129c-0.707,0-1.28,0.573-1.28,1.28c0,0.183,0.039,0.357,0.109,0.515   c-0.509,0.169-0.874,0.648-0.874,1.213c0,0.604,0.42,1.11,0.983,1.244c-0.138,0.204-0.219,0.45-0.219,0.715   c0,0.707,0.573,1.28,1.28,1.28c0.227,0,0.438-0.059,0.624-0.162c0.197,0.447,0.646,0.762,1.169,0.762   c0.521,0,0.971-0.314,1.169-0.762c0.186,0.104,0.397,0.162,0.624,0.162c0.706,0,1.279-0.573,1.279-1.28   c0-0.265-0.081-0.511-0.219-0.715C76.908,48.84,77.328,48.334,77.328,47.73z"></path></g></svg></g></svg>
