<svg xmlns="http://www.w3.org/2000/svg" xmlns:xlink="http://www.w3.org/1999/xlink" width="100" height="100" viewBox="0 0 100 100"><circle stroke="none" fill="#03a286" r="48%" cx="50%" cy="50%"></circle><g transform="translate(50 50) scale(0.69 0.69) rotate(0) translate(-50 -50)" style="fill:#ffffff"><svg fill="#ffffff" xmlns="http://www.w3.org/2000/svg" xmlns:xlink="http://www.w3.org/1999/xlink" version="1.1" x="0px" y="0px" viewBox="0 0 100 100" style="enable-background:new 0 0 100 100;" xml:space="preserve"><g><path d="M25,70.6v-7.9c0-3-2.5-5.5-5.5-5.5c-3,0-5.5,2.5-5.5,5.5v7.9c0,1.4,1.2,2.6,2.6,2.6h5.8C23.8,73.2,25,72.1,25,70.6z    M21,69.2h-3v-6.5c0-0.8,0.7-1.5,1.5-1.5c0.8,0,1.5,0.7,1.5,1.5V69.2z"></path><path d="M77.6,73.2h5.8c1.4,0,2.6-1.2,2.6-2.6v-7.9c0-3-2.5-5.5-5.5-5.5c-3,0-5.5,2.5-5.5,5.5v7.9C75,72.1,76.2,73.2,77.6,73.2z    M79,62.8c0-0.8,0.7-1.5,1.5-1.5c0.8,0,1.5,0.7,1.5,1.5v6.5h-3V62.8z"></path><path d="M89,39.8c0.8,0,1.6-0.5,1.9-1.3l3.9-10c0.1-0.2,0.2-0.5,0.2-0.7v-0.1c0-0.5-0.2-1-0.5-1.3c0-0.1-0.1-0.1-0.2-0.2   c-0.4-0.3-0.8-0.5-1.3-0.5H81.6v-1.7h2.9v0c0,0,0,0,0,0c0.2,0,0.3,0,0.5-0.1c0,0,0.1,0,0.1,0c0.1,0,0.3-0.1,0.4-0.2c0,0,0,0,0,0   c0.1-0.1,0.3-0.2,0.4-0.3c0,0,0.1-0.1,0.1-0.1c0.1-0.1,0.2-0.3,0.3-0.5c0.1-0.1,0.1-0.3,0.1-0.4c0-0.1,0-0.3,0-0.4c0,0,0,0,0,0V22   c0-0.1,0-0.2,0-0.3c0-0.1,0-0.1-0.1-0.2s0-0.1-0.1-0.2c0-0.1-0.1-0.1-0.1-0.2c0-0.1,0-0.1-0.1-0.2c0,0-0.1-0.1-0.1-0.1   c0,0-0.1-0.1-0.1-0.2c0,0-0.1-0.1-0.1-0.1c0,0-0.1-0.1-0.2-0.1c-0.1,0-0.2-0.1-0.3-0.1c0,0,0,0-0.1,0v0h0L50.8,5.4   c-0.5-0.2-1.1-0.2-1.6,0L14.6,20.2h0l0,0c0,0,0,0,0,0c-0.1,0-0.2,0.1-0.3,0.2c-0.1,0-0.1,0.1-0.2,0.1S14,20.6,14,20.7   c0,0-0.1,0.1-0.1,0.2c0,0.1-0.1,0.1-0.1,0.1c0,0.1-0.1,0.1-0.1,0.2c0,0.1-0.1,0.1-0.1,0.2c0,0.1,0,0.1-0.1,0.2s0,0.1,0,0.2   c0,0.1,0,0.2,0,0.3v0c0,0,0,0,0,0c0,0.1,0,0.3,0,0.4c0,0.1,0.1,0.2,0.1,0.4c0,0,0,0,0,0c0.1,0.1,0.1,0.2,0.2,0.3   c0,0.1,0.1,0.1,0.1,0.1s0.1,0.1,0.1,0.2c0,0,0.1,0.1,0.1,0.1c0.1,0,0.1,0.1,0.2,0.1c0,0,0.1,0.1,0.2,0.1c0.1,0,0.1,0.1,0.2,0.1   c0,0,0.1,0,0.1,0c0.1,0,0.2,0,0.2,0.1c0.1,0,0.1,0,0.2,0c0.1,0,0.1,0,0.2,0h2.9v1.7H7c-0.5,0-1,0.2-1.3,0.5   c-0.1,0.1-0.1,0.1-0.2,0.2C5.2,26.8,5,27.2,5,27.7v0.1c0,0.3,0.1,0.5,0.1,0.7l4,10c0.3,0.8,1,1.3,1.9,1.3h1v11H7c-1.1,0-2,0.9-2,2   c0,1.1,0.9,2,2,2h1v36H7.5c-1.1,0-2,0.9-2,2c0,1.1,0.9,2,2,2h78.1c0,0,0,0,0,0h6.9c1.1,0,2-0.9,2-2c0-1.1-0.9-2-2-2H92v-36h1   c1.1,0,2-0.9,2-2c0-1.1-0.9-2-2-2h-5v-11H89z M50,9.4l24.8,10.7H25.1L50,9.4z M22.3,24.1h55.3V29H22.3V24.1z M73,39.8h11v11H73   V39.8z M77,79.8v4H23v-4H77z M27,50.8H16v-11h11V50.8z M44,75.8V55.7c0-3.3,2.6-5.9,5.9-5.9h0.2c3.3,0,5.9,2.6,5.9,5.9v20.1H44z    M69,36.8H52.4c-1.1,0-2,0.9-2,2c0,1.1,0.9,2,2,2H69v4h-5c-1.1,0-2,0.9-2,2c0,1.1,0.9,2,2,2h5v27h-9V55.7c0-5.5-4.5-9.9-9.9-9.9   h-0.2c-5.5,0-9.9,4.5-9.9,9.9v20.1h-9V33h38V36.8z M9.9,29.8h8.4V30c0,1.7,1.4,3,3,3H27v2.8H12.3L9.9,29.8z M15.7,85l-2.6,5.8H12   v-36h15v21h-5c-1.7,0-3,1.3-3,3v5h-1.5C16.7,83.8,16,84.2,15.7,85z M17.5,90.8l1.3-3h62.4l1.3,3H17.5z M88,90.8h-1.1L84.3,85   c-0.3-0.7-1-1.2-1.8-1.2H81v-5c0-1.7-1.4-3-3-3h-5v-21h15V90.8z M87.7,35.8H73V33h5.6c1.7,0,3-1.3,3-3v-0.2H90L87.7,35.8z"></path><path d="M53.8,62.2c0-0.1-0.1-0.2-0.2-0.3c-0.1-0.1-0.1-0.2-0.2-0.3c-0.7-0.8-2.1-0.8-2.8,0c-0.1,0.1-0.2,0.2-0.2,0.3   c-0.1,0.1-0.1,0.2-0.2,0.3c-0.1,0.1-0.1,0.2-0.1,0.4c0,0.1,0,0.3,0,0.4s0,0.3,0,0.4c0,0.1,0.1,0.3,0.1,0.4c0,0.1,0.1,0.2,0.2,0.3   c0.1,0.1,0.1,0.2,0.2,0.3C51,64.8,51.5,65,52,65c0.1,0,0.3,0,0.4,0c0.1,0,0.3-0.1,0.4-0.1c0.1,0,0.2-0.1,0.3-0.2   c0.1-0.1,0.2-0.2,0.3-0.3c0.1-0.1,0.2-0.2,0.2-0.3c0.1-0.1,0.1-0.2,0.2-0.3c0.1-0.1,0.1-0.2,0.1-0.4c0-0.1,0-0.3,0-0.4s0-0.3,0-0.4   C53.9,62.5,53.9,62.4,53.8,62.2z"></path></g></svg></g></svg>