<svg xmlns="http://www.w3.org/2000/svg" xmlns:xlink="http://www.w3.org/1999/xlink" width="100" height="100" viewBox="0 0 100 100"><circle stroke="none" fill="#03a286" r="48%" cx="50%" cy="50%"></circle><g transform="translate(50 50) scale(0.69 0.69) rotate(0) translate(-50 -50)" style="fill:#ffffff"><svg fill="#ffffff" xmlns="http://www.w3.org/2000/svg" xmlns:xlink="http://www.w3.org/1999/xlink" version="1.1" x="0px" y="0px" viewBox="0 0 96 96" style="enable-background:new 0 0 96 96;" xml:space="preserve"><style type="text/css">
	.st0{fill-rule:evenodd;clip-rule:evenodd;}
</style><path class="st0" d="M12,23v50h72V23H12z M82,28h-2c-11,0-20,9-20,20c0,11,9,20,20,20h2v3H49V55.9c4-0.5,7-3.9,7-7.9  c0-4.1-3-7.5-7-7.9V25h33V28z M82,42H69c-3.3,0-6,2.7-6,6s2.7,6,6,6h13v12h-2c-9.9,0-18-8.1-18-18c0-9.9,8.1-18,18-18h2V42z   M68,51.9c-1.7-0.4-3-2-3-3.9s1.3-3.4,3-3.9V51.9z M70,44h12v8H70V44z M14,68h2c11,0,20-9,20-20c0-11-9-20-20-20h-2v-3h33v15.1  c-4,0.5-7,3.9-7,7.9c0,4.1,3,7.5,7,7.9V71H14V68z M14,54h13c3.3,0,6-2.7,6-6s-2.7-6-6-6H14V30h2c9.9,0,18,8.1,18,18  c0,9.9-8.1,18-18,18h-2V54z M28,44.1c1.7,0.4,3,2,3,3.9s-1.3,3.4-3,3.9V44.1z M26,52H14v-8h12V52z M47,53.9c-2.8-0.5-5-2.9-5-5.9  c0-3,2.2-5.4,5-5.9V53.9z M49,42.1c2.8,0.5,5,2.9,5,5.9c0,3-2.2,5.4-5,5.9V42.1z"></path></svg></g></svg>