<svg xmlns="http://www.w3.org/2000/svg" xmlns:xlink="http://www.w3.org/1999/xlink" width="100" height="100" viewBox="0 0 100 100"><circle stroke="none" fill="#03a286" r="48%" cx="50%" cy="50%"></circle><g transform="translate(50 50) scale(0.69 0.69) rotate(0) translate(-50 -50)" style="fill:#ffffff"><svg fill="#ffffff" xmlns="http://www.w3.org/2000/svg" xmlns:xlink="http://www.w3.org/1999/xlink" version="1.1" baseProfile="basic" x="0px" y="0px" viewBox="0 0 100 100" xml:space="preserve"><g><path d="M22.428,45.292l-0.609-1.205c-0.622,0.314-1.189,0.723-1.685,1.216l0.951,0.958C21.481,45.869,21.932,45.543,22.428,45.292   z"></path><path d="M22.422,54.705c-0.495-0.251-0.946-0.577-1.341-0.97l-0.953,0.956c0.495,0.493,1.061,0.903,1.684,1.218L22.422,54.705z"></path><path d="M20.108,47.597l-1.201-0.616c-0.319,0.622-0.536,1.287-0.646,1.977l1.333,0.211C19.682,48.62,19.855,48.091,20.108,47.597z   "></path><path d="M18.26,51.035c0.108,0.69,0.325,1.355,0.643,1.978l1.202-0.615c-0.253-0.495-0.425-1.024-0.511-1.572L18.26,51.035z"></path><path d="M50.675,20.75h-1.35H5v6.239v46.022v6.239h44.325h1.35H95v-6.238V26.99v-6.24H50.675z M49.325,55.225   C46.737,54.893,44.73,52.677,44.73,50s2.007-4.893,4.595-5.225V55.225z M50.675,44.775c2.588,0.333,4.595,2.548,4.595,5.225   s-2.007,4.893-4.595,5.225V44.775z M25.475,53.027v-2.018v-2.018v-2.018v-2.2c2.588,0.332,4.595,2.55,4.595,5.227   s-2.007,4.895-4.595,5.227V53.027z M24.125,43.38v3.593v2.018v2.018v2.018v3.593v0.993H6.8V42.387h17.325V43.38z M6.8,58.963   h18.675v-2.377c3.334-0.339,5.945-3.163,5.945-6.586s-2.611-6.247-5.945-6.586v-2.377H6.8V28.339h15.785   C29.146,33.668,32.9,41.537,32.9,50.001c0,8.463-3.753,16.331-10.313,21.66H6.8V58.963z M6.8,77.45v-4.439h16.26v0   c6.814-5.355,11.19-13.672,11.19-23.01c0-9.34-4.377-17.657-11.192-23.012H6.8V22.55h42.525v20.864   C45.991,43.753,43.38,46.578,43.38,50s2.611,6.247,5.945,6.586V77.45H6.8z M74.525,46.974v2.018v2.018v2.018v2.2   c-2.588-0.332-4.595-2.55-4.595-5.227c0-2.677,2.007-4.895,4.595-5.227V46.974z M75.875,56.621v-3.593V51.01v-2.018v-2.018v-3.593   v-0.993H93.2v15.226H75.875V56.621z M93.2,41.038H74.525v2.377c-3.334,0.339-5.945,3.163-5.945,6.586   c0,3.422,2.611,6.247,5.945,6.586v2.377H93.2v12.698H77.415C70.854,66.333,67.1,58.464,67.1,50c0-8.463,3.753-16.331,10.313-21.66   H93.2V41.038z M76.94,26.99L76.94,26.99C70.126,32.345,65.75,40.661,65.75,50c0,9.34,4.377,17.657,11.192,23.012H93.2v4.438H50.675   V56.586c3.334-0.339,5.945-3.163,5.945-6.586s-2.611-6.247-5.945-6.586V22.55H93.2v4.44H76.94z"></path><path d="M77.572,54.708l0.609,1.205c0.622-0.314,1.189-0.723,1.685-1.216l-0.951-0.958C78.519,54.132,78.068,54.458,77.572,54.708z   "></path><path d="M81.74,48.966c-0.108-0.69-0.325-1.355-0.643-1.978l-1.202,0.615c0.253,0.495,0.425,1.024,0.511,1.572L81.74,48.966z"></path><path d="M79.892,52.404l1.201,0.616c0.319-0.622,0.536-1.287,0.646-1.977l-1.333-0.211C80.318,51.38,80.145,51.909,79.892,52.404z"></path><path d="M77.578,45.296c0.495,0.251,0.946,0.577,1.341,0.97l0.953-0.956c-0.495-0.493-1.062-0.903-1.684-1.218L77.578,45.296z"></path></g></svg></g></svg>