<svg xmlns="http://www.w3.org/2000/svg" xmlns:xlink="http://www.w3.org/1999/xlink" width="100" height="100" viewBox="0 0 100 100"><circle stroke="none" fill="#03a286" r="48%" cx="50%" cy="50%"></circle><g transform="translate(50 50) scale(0.69 0.69) rotate(0) translate(-50 -50)" style="fill:#ffffff"><svg fill="#ffffff" xmlns="http://www.w3.org/2000/svg" xmlns:xlink="http://www.w3.org/1999/xlink" version="1.1" x="0px" y="0px" viewBox="0 0 43 25" style="enable-background:new 0 0 43 25;" xml:space="preserve"><g><path d="M18,12.5c0-1.762,1.306-3.205,3-3.45V0H0v3h3.5C8.747,3,13,7.253,13,12.5S8.747,22,3.5,22H0v3h21v-9.05   C19.306,15.705,18,14.262,18,12.5z"></path><path d="M25,12.5c0,1.762-1.306,3.205-3,3.45V25h21v-3h-3.5c-5.247,0-9.5-4.253-9.5-9.5S34.253,3,39.5,3H43V0H22v9.05   C23.694,9.295,25,10.738,25,12.5z"></path><path d="M24,12.5c0-1.207-0.86-2.217-2-2.449v4.898C23.14,14.717,24,13.707,24,12.5z"></path><path d="M19,12.5c0,1.207,0.86,2.217,2,2.449v-4.898C19.86,10.283,19,11.293,19,12.5z"></path><path d="M12,12.5C12,7.813,8.187,4,3.5,4H0v5h6.5c1.933,0,3.5,1.567,3.5,3.5S8.433,16,6.5,16H0v5h3.5C8.187,21,12,17.187,12,12.5z"></path><path d="M7,14.949c1.14-0.232,2-1.242,2-2.449s-0.86-2.217-2-2.449V14.949z"></path><rect y="10" width="6" height="5"></rect><path d="M31,12.5c0,4.687,3.813,8.5,8.5,8.5H43v-5h-6.5c-1.933,0-3.5-1.567-3.5-3.5S34.567,9,36.5,9H43V4h-3.5   C34.813,4,31,7.813,31,12.5z"></path><path d="M36,10.051c-1.14,0.232-2,1.242-2,2.449s0.86,2.217,2,2.449V10.051z"></path><rect x="37" y="10" width="6" height="5"></rect></g></svg></g></svg>