<svg height='100px' width='100px'  fill="#FFFFFF" xmlns="http://www.w3.org/2000/svg" xmlns:xlink="http://www.w3.org/1999/xlink" version="1.1" x="0px" y="0px" viewBox="0 0 1024 1024" style="enable-background:new 0 0 1024 1024;" xml:space="preserve"><g><g><path d="M77.7,161.7h236.2c10.1,0,18.3,8.2,18.3,18.3v663.9c0,10.1-8.2,18.3-18.3,18.3H77.7    c-10.1,0-18.3-8.2-18.3-18.3V180.1C59.3,169.9,67.5,161.7,77.7,161.7z"></path><g><path d="M77.7,171.7c25.5,0,51,0,76.5,0c41.9,0,83.7,0,125.6,0c10.9,0,21.7-0.1,32.6,0c5.3,0,9.5,2.6,9.9,8.3     c0.1,0.7,0,1.5,0,2.3c0,16.2,0,32.4,0,48.6c0,32.3,0,64.6,0,96.9c0,41.8,0,83.6,0,125.4c0,44.9,0,89.7,0,134.6     c0,41,0,81.9,0,122.9c0,30.6,0,61.2,0,91.8c0,13.6,0.7,27.3,0,40.9c-0.4,9.1-7.9,8.9-14.8,8.9c-13.8,0-27.5,0-41.3,0     c-42.7,0-85.3,0-128,0c-15.9,0-31.8,0-47.8,0c-7.7,0-20.4,2.3-21.1-8.4c-0.7-11.2,0-22.7,0-34c0-29,0-58.1,0-87.1     c0-40.1,0-80.3,0-120.4c0-44.6,0-89.2,0-133.8c0-42.5,0-85,0-127.4c0-33.7,0-67.5,0-101.2c0-18.4,0-36.8,0-55.2     C69.3,178.7,69.7,172,77.7,171.7c12.8-0.5,12.9-20.5,0-20c-15.8,0.6-27.9,12.6-28.3,28.4c0,1.1,0,2.1,0,3.2c0,6.3,0,12.7,0,19     c0,26.6,0,53.3,0,79.9c0,39.2,0,78.5,0,117.7c0,45.3,0,90.6,0,136c0,43.8,0,87.6,0,131.4c0,35.8,0,71.6,0,107.3     c0,20.6,0,41.2,0,61.8c0,6.1-0.3,11.9,2.1,17.8c4.5,11.3,15.2,17.8,27.2,18c3.5,0,6.9,0,10.4,0c37.9,0,75.8,0,113.8,0     c35.1,0,70.3,0,105.4,0c2.4,0,4.8,0.1,7.1-0.1c15.3-1,26.6-13.2,27-28.4c0.1-3.6,0-7.3,0-10.9c0-22.5,0-45,0-67.4     c0-36.9,0-73.9,0-110.8c0-44.4,0-88.8,0-133.2c0-44.9,0-89.8,0-134.7c0-38.3,0-76.5,0-114.8c0-25,0-49.9,0-74.9     c0-5.2,0-10.5,0-15.7c-0.1-16.8-12.4-29.6-29.4-29.8c-30.3-0.3-60.5,0-90.8,0c-40.9,0-81.7,0-122.6,0c-7.3,0-14.5,0-21.8,0     C64.8,151.7,64.8,171.7,77.7,171.7z"></path></g></g><g><path d="M403.9,161.7h226.2c10.1,0,18.3,8.2,18.3,18.3v663.9c0,10.1-8.2,18.3-18.3,18.3H403.9    c-10.1,0-18.3-8.2-18.3-18.3V180.1C385.5,169.9,393.8,161.7,403.9,161.7z"></path><g><path d="M403.9,171.7c25.9,0,51.8,0,77.7,0c40.6,0,81.1,0,121.7,0c8.8,0,17.8-0.5,26.6,0     c7.6,0.4,8.6,6.2,8.6,12.3c0,17.5,0,34.9,0,52.4c0,32.8,0,65.5,0,98.3c0,41.7,0,83.3,0,125c0,44.2,0,88.4,0,132.6     c0,40.3,0,80.6,0,120.9c0,30,0,60.1,0,90.1c0,13.3,0.6,26.8,0,40.1c-0.4,9.1-8,8.9-14.9,8.9c-14,0-28,0-41.9,0     c-42.1,0-84.3,0-126.4,0c-14.5,0-29,0-43.6,0c-7.1,0-15.7,0.9-16.2-8.7c-0.7-12.7,0-25.6,0-38.3c0-29.6,0-59.3,0-88.9     c0-40.1,0-80.2,0-120.3c0-44.3,0-88.7,0-133c0-41.7,0-83.4,0-125c0-33.2,0-66.4,0-99.7c0-17.9,0-35.9,0-53.8     C395.5,178.6,396,172,403.9,171.7c12.8-0.5,12.9-20.5,0-20c-15.8,0.6-27.9,12.6-28.3,28.4c0,1,0,2,0,3.1c0,6.2,0,12.4,0,18.6     c0,26.1,0,52.2,0,78.3c0,38.7,0,77.4,0,116.2c0,44.6,0,89.2,0,133.8c0,43.7,0,87.4,0,131.1c0,35.9,0,71.8,0,107.8     c0,21.7,0,43.4,0,65.1c0,3.3-0.1,6.7,0,10c0.5,15.8,12.6,27.9,28.4,28.4c2.3,0.1,4.6,0,6.9,0c35.7,0,71.5,0,107.2,0     c35.4,0,70.8,0,106.1,0c2.4,0,4.9,0.1,7.3-0.1c15.3-1,26.5-13.2,27-28.4c0.1-3.5,0-7.1,0-10.6c0-22,0-44,0-66     c0-36.3,0-72.6,0-108.8c0-43.8,0-87.6,0-131.3c0-44.5,0-89.1,0-133.6c0-38.4,0-76.8,0-115.2c0-25.8,0-51.6,0-77.4c0-6,0-12,0-18     c0-16.6-10.9-30.6-28.4-31.1c-27.3-0.8-54.7,0-82,0c-40.6,0-81.3,0-121.9,0c-7.4,0-14.8,0-22.3,0     C391,151.7,391,171.7,403.9,171.7z"></path></g></g><g><path d="M730.1,161.7h216.2c10.1,0,18.3,8.2,18.3,18.3v663.9c0,10.1-8.2,18.3-18.3,18.3H730.1    c-10.1,0-18.3-8.2-18.3-18.3V180.1C711.8,169.9,720,161.7,730.1,161.7z"></path><g><path d="M730.1,171.7c26,0,52,0,78,0c39.5,0,79,0,118.5,0c5.1,0,10.2,0,15.3,0c3.1,0,6.2-0.4,8.8,1.3     c4.7,2.9,4,8.2,4,13c0,18.6,0,37.2,0,55.8c0,33.1,0,66.3,0,99.4c0,41.7,0,83.3,0,125c0,43.7,0,87.3,0,131c0,39.6,0,79.3,0,118.9     c0,29.4,0,58.9,0,88.3c0,13,0.6,26.1,0,39.1c-0.4,9.1-8,8.9-15,8.9c-14.1,0-28.1,0-42.2,0c-41.5,0-83,0-124.4,0     c-13,0-25.9,0-38.9,0c-3.2,0-6.4,0.4-9-1.6c-2.7-2-3.4-4.7-3.4-7.9c-0.1-14.1,0-28.3,0-42.4c0-30.2,0-60.3,0-90.5     c0-40.2,0-80.4,0-120.6c0-43.7,0-87.4,0-131.1c0-41.2,0-82.4,0-123.5c0-32.5,0-64.9,0-97.4c0-17.6,0-35.2,0-52.7     C721.8,178.6,722.3,172,730.1,171.7c12.8-0.5,12.9-20.5,0-20c-15.8,0.6-27.9,12.6-28.3,28.4c0,1,0,2,0,3c0,6,0,12.1,0,18.1     c0,25.5,0,51.1,0,76.6c0,38,0,76.1,0,114.1c0,44,0,88,0,132c0,43.4,0,86.8,0,130.2c0,36.3,0,72.6,0,108.9c0,22.6,0,45.2,0,67.7     c0,4.2-0.1,8.4,0,12.6c0.2,9.9,4.8,19.1,13.3,24.5c5.6,3.6,11.9,4.3,18.4,4.3c33.4,0,66.8,0,100.3,0c35.5,0,71,0,106.6,0     c2.5,0,5,0.1,7.4-0.1c15.3-1,26.5-13.2,27-28.4c0.1-3.4,0-6.9,0-10.4c0-21.5,0-43.1,0-64.6c0-35.6,0-71.2,0-106.9     c0-43,0-86,0-129c0-44.3,0-88.6,0-133c0-38.5,0-77,0-115.5c0-26.6,0-53.2,0-79.8c0-6.7,0-13.5,0-20.2c0-11.6-3.4-23-14.4-29.2     c-9.4-5.2-21.8-3.7-32.1-3.7c-17.9,0-35.8,0-53.6,0c-40.6,0-81.3,0-121.9,0c-7.5,0-15,0-22.5,0     C717.2,151.7,717.2,171.7,730.1,171.7z"></path></g></g></g></svg>