<svg xmlns="http://www.w3.org/2000/svg" xmlns:xlink="http://www.w3.org/1999/xlink" width="100" height="100" viewBox="0 0 100 100"><circle stroke="none" fill="#03a286" r="48%" cx="50%" cy="50%"></circle><g transform="translate(50 50) scale(0.69 0.69) rotate(0) translate(-50 -50)" style="fill:#ffffff"><svg fill="#ffffff" xmlns="http://www.w3.org/2000/svg" xmlns:xlink="http://www.w3.org/1999/xlink" version="1.1" x="0px" y="0px" viewBox="0 0 100 100" enable-background="new 0 0 100 100" xml:space="preserve"><path d="M43.68,89.633h12.955h0.24h0.285l-0.09-0.139c-0.004-0.004-0.001-0.01-0.003-0.016c-0.003-0.006-0.009-0.01-0.011-0.018  l-0.04-0.187c-0.001-0.004,0.003-0.007,0.002-0.011s-0.005-0.006-0.005-0.01v-0.14H56.63H43.685c-0.001,0-0.001,0-0.001,0h-0.383  v0.14c0,0.004-0.004,0.006-0.005,0.01s0.003,0.007,0.002,0.01l-0.039,0.188c-0.001,0.007-0.008,0.011-0.011,0.018  c-0.002,0.006,0,0.012-0.004,0.017l-0.091,0.138h0.287H43.68z"></path><polygon points="55.83,12.77 55.834,12.759 55.832,12.748 55.846,12.676 55.85,12.671 44.465,12.671 44.467,12.676 44.482,12.748   44.48,12.759 44.484,12.77 43.785,88.914 56.529,88.914 "></polygon><polygon points="56.44,12.346 56.533,12.268 56.584,12.154 56.584,12.031 56.533,11.922 56.438,11.84 56.318,11.805 55.921,11.805   44.394,11.805 43.996,11.805 43.871,11.84 43.78,11.922 43.73,12.031 43.73,12.154 43.781,12.268 43.871,12.347 43.996,12.385   56.316,12.385 "></polygon><polygon points="55.836,11.6 55.824,11.551 55.826,11.539 55.82,11.527 55.787,8.196 44.527,8.196 44.494,11.527 44.488,11.539   44.49,11.553 44.478,11.6 "></polygon><polygon points="41.439,93.253 41.439,96.111 49.678,96.111 49.692,96.111 49.742,96.111 49.82,96.111 49.917,96.111 50.035,96.111   50.158,96.111 50.279,96.111 50.396,96.111 50.494,96.111 50.573,96.111 50.621,96.111 50.638,96.111 58.873,96.111 58.873,93.253   58.494,93.253 41.819,93.253 "></polygon><path d="M44.352,7.817l0.069,0.046c0.007,0.005,0.007,0.013,0.012,0.018c0.005,0.006,0.013,0.006,0.017,0.013l0.043,0.068  c0.004,0.005,0.001,0.011,0.003,0.015c0.003,0.006,0.009,0.008,0.011,0.014l0.001,0.006h11.302V7.992  c0.002-0.007,0.008-0.01,0.011-0.015c0.003-0.006,0-0.012,0.003-0.017l0.045-0.068c0.004-0.006,0.012-0.006,0.016-0.012  c0.006-0.004,0.006-0.012,0.012-0.016l0.066-0.047c0.006-0.004,0.014-0.002,0.021-0.005c0.007-0.003,0.011-0.011,0.019-0.012  l0.085-0.015l0.027-0.006l0.006-0.004l0.003-0.012l-0.001-0.011L56.117,7.75l-0.002-0.002H44.197l-0.004,0.006l-0.002,0.013  l0.004,0.01l0.006,0.005l0.028,0.006l0.083,0.015c0.008,0.001,0.012,0.009,0.018,0.011C44.338,7.816,44.346,7.812,44.352,7.817z"></path><rect x="42.277" y="4.475" width="15.76" height="0.043"></rect><polygon points="58.066,3.996 50.638,3.996 50.621,3.996 50.573,3.996 50.494,3.996 50.396,3.996 50.279,3.996 50.158,3.996   50.035,3.996 49.917,3.996 49.82,3.996 49.742,3.996 49.692,3.996 49.678,3.996 42.248,3.996 42.248,4.275 58.066,4.275 "></polygon><path d="M58.717,90.699l-0.3-0.329l-0.387-0.214l-0.444-0.082H42.728l-0.441,0.082l-0.387,0.213l-0.304,0.33l-0.182,0.402  l-0.047,0.441l0.102,0.433l0.229,0.379l0.35,0.298c0.006,0.004,0.005,0.011,0.009,0.016c0.004,0.004,0.011,0.005,0.013,0.01  l0.074,0.127c0.005,0.01,0.001,0.02,0.004,0.029c0.002,0.01,0.01,0.018,0.009,0.027l-0.01,0.143  c-0.001,0.012-0.01,0.019-0.014,0.029c-0.003,0.006-0.001,0.014-0.006,0.02h16.063c-0.005-0.006-0.004-0.014-0.006-0.021  c-0.004-0.01-0.014-0.017-0.014-0.027l-0.01-0.143c-0.001-0.01,0.007-0.018,0.01-0.027c0.002-0.01-0.002-0.02,0.004-0.029  l0.072-0.127c0.004-0.005,0.01-0.006,0.014-0.01c0.004-0.005,0.004-0.012,0.008-0.016l0.351-0.297l0.226-0.379l0.098-0.435  L58.9,91.1L58.717,90.699z"></path><path d="M57.801,5.958V4.896c0-0.003,0.004-0.005,0.004-0.008s-0.002-0.005-0.002-0.008l0.016-0.098  c0.001-0.007,0.008-0.01,0.01-0.017c0.002-0.006-0.002-0.012,0.002-0.017l0.018-0.032H42.467l0.018,0.03  c0.004,0.006,0.001,0.014,0.003,0.02c0.003,0.006,0.009,0.01,0.011,0.018l0.014,0.098c0,0.002-0.002,0.004-0.002,0.007  s0.002,0.005,0.002,0.007v1.062h0.102h15.084H57.801z"></path><polygon points="56.326,7.523 56.713,7.377 57.052,7.136 57.324,6.822 57.509,6.453 57.573,6.158 42.738,6.158 42.807,6.454   42.989,6.821 43.263,7.136 43.601,7.377 43.986,7.523 44.179,7.549 56.131,7.549 "></polygon><polygon points="57.494,89.833 56.875,89.833 56.635,89.833 43.68,89.833 43.44,89.833 42.82,89.833 42.82,89.874 57.494,89.874 "></polygon></svg></g></svg>