<svg height='100px' width='100px'  fill="#FFFFFF" xmlns="http://www.w3.org/2000/svg" version="1.1" x="0px" y="0px" viewBox="0 0 16 16" enable-background="new 0 0 16 16" xml:space="preserve"><path d="M12 0.5C12 0.224 12.224 0 12.5 0h3C15.776 0 16 0.224 16 0.5v15c0 0.276-0.224 0.5-0.5 0.5h-3c-0.276 0-0.5-0.224-0.5-0.5V0.5z"></path><path d="M6 0.5C6 0.224 6.224 0 6.5 0h3C9.776 0 10 0.224 10 0.5v15c0 0.276-0.224 0.5-0.5 0.5h-3C6.224 16 6 15.776 6 15.5V0.5z"></path><path d="M0 0.5C0 0.224 0.224 0 0.5 0h3C3.776 0 4 0.224 4 0.5v15C4 15.776 3.776 16 3.5 16h-3C0.224 16 0 15.776 0 15.5V0.5z"></path></svg>