<svg xmlns="http://www.w3.org/2000/svg" xmlns:xlink="http://www.w3.org/1999/xlink" version="1.1" x="0px" y="0px" viewBox="0 0 100 100" enable-background="new 0 0 100 100" xml:space="preserve"><path d="M83,21.33v0.006L68.664,7h0.006l-2-2h-1.639H15v70v20h70V75V24.969V23.33L83,21.33z M67.031,8.195l14.773,14.773H67.031  V8.195z M83,93H17V77h66V93z M17,75V7h48.031v17.969H83V75H17z"></path><path d="M45.435,90.626c-0.544,0.272-1.632,0.544-3.025,0.544c-3.23,0-5.661-2.04-5.661-5.796c0-3.587,2.431-6.019,5.983-6.019  c1.428,0,2.329,0.307,2.72,0.511l-0.357,1.207c-0.561-0.272-1.36-0.478-2.312-0.478c-2.686,0-4.471,1.717-4.471,4.727  c0,2.805,1.615,4.604,4.402,4.604c0.901,0,1.819-0.187,2.414-0.476L45.435,90.626z"></path><path d="M47.084,89.198c0.663,0.407,1.632,0.747,2.652,0.747c1.513,0,2.396-0.799,2.396-1.954c0-1.071-0.61-1.683-2.159-2.277  c-1.87-0.663-3.026-1.632-3.026-3.247c0-1.785,1.479-3.109,3.706-3.109c1.175,0,2.022,0.271,2.533,0.562l-0.408,1.207  c-0.375-0.204-1.139-0.544-2.176-0.544c-1.562,0-2.159,0.936-2.159,1.717c0,1.071,0.697,1.6,2.278,2.21  c1.938,0.748,2.924,1.685,2.924,3.365c0,1.771-1.31,3.298-4.012,3.298c-1.105,0-2.312-0.322-2.924-0.729L47.084,89.198z"></path><path d="M58.186,91l-3.74-11.457h1.6l1.785,5.645c0.492,1.547,0.918,2.939,1.225,4.283h0.033c0.323-1.326,0.801-2.771,1.311-4.268  l1.938-5.66h1.582L59.816,91H58.186z"></path><rect x="27.5" y="58.438" width="9.426" height="6.312"></rect><rect x="39.357" y="58.438" width="9.427" height="6.312"></rect><rect x="51.216" y="58.438" width="9.427" height="6.312"></rect><rect x="63.074" y="58.438" width="9.426" height="6.312"></rect><rect x="27.5" y="48.438" width="9.426" height="6.312"></rect><rect x="39.357" y="48.438" width="9.427" height="6.312"></rect><rect x="51.216" y="48.438" width="9.427" height="6.312"></rect><rect x="63.074" y="48.438" width="9.426" height="6.312"></rect><rect x="27.5" y="38.438" width="9.426" height="6.312"></rect><rect x="39.357" y="38.438" width="9.427" height="6.312"></rect><rect x="51.216" y="38.438" width="9.427" height="6.312"></rect><rect x="63.074" y="38.438" width="9.426" height="6.312"></rect><rect x="27.5" y="28.438" width="9.426" height="6.312"></rect><rect x="39.357" y="28.438" width="9.427" height="6.312"></rect><rect x="51.216" y="28.438" width="9.427" height="6.312"></rect><rect x="63.074" y="28.438" width="9.426" height="6.312"></rect><rect x="27.5" y="18.438" width="9.426" height="6.312"></rect><rect x="39.357" y="18.438" width="9.427" height="6.312"></rect><rect x="51.216" y="18.438" width="9.427" height="6.312"></rect></svg>