<svg xmlns="http://www.w3.org/2000/svg" xmlns:xlink="http://www.w3.org/1999/xlink" width="100" height="100" viewBox="0 0 100 100"><circle stroke="none" fill="#03a286" r="48%" cx="50%" cy="50%"></circle><g transform="translate(50 50) scale(0.69 0.69) rotate(0) translate(-50 -50)" style="fill:#ffffff"><svg fill="#ffffff" xmlns="http://www.w3.org/2000/svg" xmlns:xlink="http://www.w3.org/1999/xlink" version="1.1" x="0px" y="0px" viewBox="-260 352 90 90" style="enable-background:new -260 352 90 90;" xml:space="preserve"><path d="M-178.1,427.7v-25.1h-23.8v-20.2l-17.8-9.8l-0.6-0.3l-0.6,0.3l-17.8,9.4v14.7l-18,8.6h2.4v22.4h-0.8v5h79.9v-5H-178.1z   M-249.8,427.7h-2.4V418h2.4V427.7z M-246.1,427.7h-1.7V418h1.7V427.7z M-242.4,427.7h-1.7V418h1.7V427.7z M-238.6,427.7h-1.8V418  h1.8V427.7z M-238.6,416h-13.6v-10.6h13.6V416z M-225.8,382.6L-225.8,382.6c0.3-2.5,2.2-4.5,4.6-4.9v9.7h-4.6V382.6z M-225.8,389.4  h4.6v2.7h-4.6V389.4z M-225.8,394h4.6v2.9h-4.6V394z M-226.3,408.4h4.6v3.7h-4.6V408.4z M-226.3,414.1h4.6v3h-4.6V414.1z   M-226.3,419.1h4.6v3h-4.6V419.1z M-226.3,427.7V424h4.6v3.7H-226.3z M-215.1,427.7h-4.6V424h4.6V427.7z M-215.1,422h-4.6v-3h4.6  V422z M-215.1,417.1h-4.6v-3h4.6V417.1z M-215.1,412.1h-4.6v-3.7h4.6V412.1z M-214.6,396.9h-4.6V394h4.6V396.9z M-214.6,392h-4.6  v-2.7h4.6V392z M-214.6,387.4h-4.6v-9.7c2.4,0.4,4.3,2.4,4.6,4.9l0,0V387.4z M-194.3,420.4h-3.3v-12h3.3V420.4z M-188.6,420.4h-3.8  v-12h3.8V420.4z M-182.8,420.4h-3.7v-12h3.7V420.4z"></path><polygon points="-220.3,370.7 -195.6,384.3 -193.6,380.8 -220.1,366.2 -228.9,370.8 -228.9,361.3 -234.6,361.3 -234.6,373.8   -247.6,380.7 -245.8,384.3 "></polygon><polygon points="-200.4,401.2 -173.3,401.2 -190.6,391 -200.4,391 "></polygon></svg></g></svg>