<svg xmlns="http://www.w3.org/2000/svg" xmlns:xlink="http://www.w3.org/1999/xlink" width="100" height="100" viewBox="0 0 100 100"><circle stroke="none" fill="#03a286" r="48%" cx="50%" cy="50%"></circle><g transform="translate(50 50) scale(0.69 0.69) rotate(0) translate(-50 -50)" style="fill:#ffffff"><svg fill="#ffffff" xmlns="http://www.w3.org/2000/svg" xmlns:xlink="http://www.w3.org/1999/xlink" version="1.1" x="0px" y="0px" viewBox="0 0 100 99.995" enable-background="new 0 0 100 99.995" xml:space="preserve"><path d="M80.556,25.694c0-4.218-3.421-7.638-7.639-7.638c-0.821,0-1.61,0.132-2.353,0.373c-1.1-4.979-5.53-8.706-10.843-8.706  c-1.043,0-2.049,0.153-3.006,0.422C55.615,4.369,50.544,0,44.446,0c-6.904,0-12.5,5.596-12.5,12.5c0,0.626,0.061,1.238,0.152,1.84  c-0.925-0.292-1.909-0.449-2.929-0.449c-5.37,0-9.722,4.351-9.722,9.721s4.352,9.722,9.722,9.722c0.009,0,0.017-0.001,0.027-0.001  h44.417v-0.035C77.504,32.945,80.556,29.679,80.556,25.694"></path><path d="M41.667,48.61c0,2.3-1.865,4.167-4.167,4.167c-2.3,0-4.167-1.866-4.167-4.167s4.167-9.722,4.167-9.722  S41.667,46.31,41.667,48.61"></path><path d="M54.167,59.721c0,2.301-1.865,4.167-4.167,4.167c-2.3,0-4.167-1.866-4.167-4.167c0-2.3,4.167-9.723,4.167-9.723  S54.167,57.421,54.167,59.721"></path><path d="M66.668,44.443c0,2.3-1.868,4.167-4.167,4.167c-2.302,0-4.168-1.866-4.168-4.167s4.168-9.722,4.168-9.722  S66.668,42.143,66.668,44.443"></path><path d="M87.592,89.391c-0.427,1.539-1.44,2.272-5.647,2.272H18.057c-4.206,0-5.22-0.733-5.646-2.272L8.458,66.664H0l4.229,24.324  l0.063,0.296c2.179,8.711,10.898,8.711,13.764,8.711h63.888c2.865,0,11.586,0,13.765-8.711l0.062-0.296L100,66.664h-8.457  L87.592,89.391z"></path><polyline points="11.115,81.946 11.113,81.931 11.113,81.944 11.115,81.946 "></polyline><path d="M17.477,86.101c0.176,0.004,0.368,0.007,0.58,0.007h63.888c0.213,0,0.404-0.003,0.58-0.007l1.947-11.191  c-0.373,0.043-0.745,0.088-1.14,0.088c-4.166,0-6.944-2.776-11.111-2.776c-4.166,0-6.943,2.776-11.109,2.776  c-4.167,0-6.944-2.776-11.111-2.776c-4.167,0-6.944,2.776-11.111,2.776c-4.167,0-6.944-2.776-11.11-2.776s-6.945,2.776-11.111,2.776  c-0.394,0-0.765-0.043-1.137-0.088L17.477,86.101z"></path></svg></g></svg>