<svg height='100px' width='100px'  fill="#FFFFFF" xmlns="http://www.w3.org/2000/svg" xmlns:xlink="http://www.w3.org/1999/xlink" version="1.1" x="0px" y="0px" viewBox="0 0 80 80" style="enable-background:new 0 0 80 80;" xml:space="preserve"><polygon points="33.9,32.5 28.3,32.5 33.9,38.1 17,38.1 17,41.9 33.9,41.9 28.3,47.5 33.9,47.5 41.4,40 "></polygon><path d="M63,13.1h-5.2L45,10v3.1H23.6v19.4h2V15.1H45v50H25.6V47.5h-2V67H45v3l12.8-3H63V13.1z M48.9,38.9V41  c0,0.4-0.3,0.7-0.7,0.8h-0.4c-0.4,0-0.8-0.3-0.8-0.7v-2.2c0-0.4,0.4-0.8,0.8-0.7h0.4C48.6,38.2,48.9,38.5,48.9,38.9z"></path></svg>