<svg xmlns="http://www.w3.org/2000/svg" xmlns:xlink="http://www.w3.org/1999/xlink" width="100" height="100" viewBox="0 0 100 100"><circle stroke="none" fill="#03a286" r="48%" cx="50%" cy="50%"></circle><g transform="translate(50 50) scale(0.69 0.69) rotate(0) translate(-50 -50)" style="fill:#ffffff"><svg fill="#ffffff" xmlns="http://www.w3.org/2000/svg" xmlns:xlink="http://www.w3.org/1999/xlink" viewBox="0 0 60 60" version="1.1" x="0px" y="0px"><title>8 -Foundation Blueprint- (house, home, property, real, estate)</title><desc>Created with Sketch.</desc><g stroke="none" stroke-width="1" fill="none" fill-rule="evenodd" stroke-linecap="round" stroke-linejoin="round"><g transform="translate(-943.000000, -362.000000)" stroke="#ffffff" stroke-width="2"><g transform="translate(944.000000, 363.000000)"><path d="M13,0 L13,10"></path><path d="M48,45 L58,45"></path><path d="M9,54 L10,54"></path><path d="M14,54 L15,54"></path><path d="M19,54 L20,54"></path><path d="M24,54 L25,54"></path><path d="M29,54 L30,54"></path><path d="M34,54 L35,54"></path><path d="M39,54 L40,54"></path><path d="M44,54 L45,54"></path><path d="M49,54 L50,54"></path><polyline points="54 58 54 54 58 54"></polyline><path d="M50,4 L49,4"></path><path d="M45,4 L44,4"></path><path d="M40,4 L39,4"></path><path d="M35,4 L34,4"></path><path d="M30,4 L29,4"></path><path d="M25,4 L24,4"></path><path d="M20,4 L19,4"></path><path d="M15,4 L13,4"></path><path d="M9,4 L8,4"></path><polyline points="54 0 54 4 58 4"></polyline><polyline points="4 0 4 4 0 4"></polyline><path d="M4,9 L4,10"></path><path d="M4,14 L4,15"></path><path d="M4,19 L4,20"></path><path d="M4,24 L4,25"></path><path d="M4,29 L4,30"></path><path d="M4,34 L4,35"></path><path d="M4,39 L4,40"></path><path d="M4,44 L4,45"></path><path d="M4,49 L4,50"></path><path d="M54,8 L54,9"></path><path d="M54,13 L54,14"></path><path d="M54,18 L54,19"></path><path d="M54,23 L54,24"></path><path d="M54,28 L54,29"></path><path d="M54,33 L54,34"></path><path d="M54,38 L54,39"></path><path d="M54,43 L54,45"></path><path d="M54,49 L54,50"></path><polyline points="0 54 4 54 4 58"></polyline><polygon points="11 48 43 48 43 14 11 14"></polygon><path d="M14,35 L40,35"></path><polyline points="37 38 40 35 37 32"></polyline><polyline points="17 32 14 35 17 38"></polyline><path d="M32,17 L32,45"></path><polyline points="29 42 32 45 35 42"></polyline><polyline points="35 20 32 17 29 20"></polyline></g></g></g></svg></g></svg>