<svg xmlns="http://www.w3.org/2000/svg" xmlns:xlink="http://www.w3.org/1999/xlink" width="100" height="100" viewBox="0 0 100 100"><circle stroke="none" fill="#03a286" r="48%" cx="50%" cy="50%"></circle><g transform="translate(50 50) scale(0.69 0.69) rotate(0) translate(-50 -50)" style="fill:#ffffff"><svg fill="#ffffff" xmlns="http://www.w3.org/2000/svg" xmlns:xlink="http://www.w3.org/1999/xlink" version="1.1" x="0px" y="0px" viewBox="0 0 90 90" enable-background="new 0 0 90 90" xml:space="preserve"><path d="M80.167,36c0-0.108-0.029-0.211-0.077-0.306c-0.017-0.033-0.044-0.057-0.065-0.087c-0.032-0.044-0.056-0.094-0.099-0.13  L56.827,15.702l-0.018-0.016c0,0,0,0-0.002,0l-0.005-0.004c-0.091-0.078-0.198-0.118-0.31-0.142  c-0.022-0.005-0.044-0.01-0.068-0.012c-0.113-0.012-0.226,0-0.333,0.044c-0.006,0.002-0.012,0-0.017,0.002L31.67,26.462  c-0.016,0.007-0.025,0.023-0.04,0.032c-0.045,0.024-0.092,0.043-0.132,0.078L8.834,46.368c-0.149,0.131-0.235,0.32-0.235,0.519  v26.971c0,0.381,0.308,0.689,0.688,0.689h45.328c0.293,0,0.64-0.227,0.64-0.227l24.487-11.171c0.003-0.002,0.005-0.003,0.009-0.004  l0.008-0.004c0.004-0.003,0.006-0.007,0.01-0.009c0.104-0.048,0.187-0.125,0.253-0.217c0.017-0.022,0.032-0.043,0.046-0.066  c0.058-0.102,0.1-0.211,0.1-0.336V36z M31.941,28.013l19.953,18.185H11.121L31.941,28.013z M65.887,61.824H55.304V47.128  l6.271-2.692l4.312-1.743V61.824z M25.084,47.575h6.179v7.614h-6.179V47.575z M32.639,47.575h6.178v7.614h-6.178V47.575z   M40.194,47.575h13.238v16.604H40.194V47.575z M67.264,40.495v-3.348h7.799L67.264,40.495z M65.887,41.086l-4.849,2.082  l-6.587,2.662l-4.866-4.25v-4.433h16.302V41.086z M48.207,40.376l-3.697-3.229h3.697V40.376z M77.646,35.77H42.935l-3.967-3.465  l17.387-15.186L77.646,35.77z M37.921,31.392l-4.707-4.111l19.241-8.583L37.921,31.392z M23.708,47.575v16.604H9.976V47.575H23.708z   M25.084,56.566h13.733v16.603H25.084V56.566z M40.194,65.557h13.238v7.612H40.194V65.557z M55.304,63.202h20.949l-20.949,9.589  V63.202z M67.264,61.824V52.07h11.525v9.754H67.264z M78.789,50.692H67.264v-8.556l11.525-4.657V50.692z M9.976,65.557h13.732v7.612  H9.976V65.557z"></path></svg></g></svg>