<svg xmlns="http://www.w3.org/2000/svg" xmlns:xlink="http://www.w3.org/1999/xlink" width="100" height="100" viewBox="0 0 100 100"><circle stroke="none" fill="#03a286" r="48%" cx="50%" cy="50%"></circle><g transform="translate(50 50) scale(0.69 0.69) rotate(0) translate(-50 -50)" style="fill:#ffffff"><svg fill="#ffffff" xmlns="http://www.w3.org/2000/svg" xmlns:xlink="http://www.w3.org/1999/xlink" version="1.2" baseProfile="tiny" x="0px" y="0px" viewBox="0 0 100 100" xml:space="preserve"><path d="M5,50h7.5v42.5h75V50H95L50,5L5,50z M35,85H20V50h15V85z M35,45H20.607L35,30.607V45z M60,85H40V50h20V85z M65,30.607  L79.393,45H65V30.607z M65,50h15v35H65V50z M60,45H40V27.5h20V45z M43.107,22.5L50,15.607l6.893,6.893H43.107z"></path></svg></g></svg>