<svg xmlns="http://www.w3.org/2000/svg" xmlns:xlink="http://www.w3.org/1999/xlink" width="100" height="100" viewBox="0 0 100 100"><circle stroke="none" fill="#cd5c5c" r="48%" cx="50%" cy="50%"></circle><g transform="translate(50 50) scale(0.69 0.69) rotate(0) translate(-50 -50)" style="fill:#ffffff"><svg fill="#ffffff" xmlns="http://www.w3.org/2000/svg" xmlns:xlink="http://www.w3.org/1999/xlink" version="1.1" x="0px" y="0px" viewBox="0 0 100 100" style="enable-background:new 0 0 100 100;" xml:space="preserve"><path d="M44.5,4C22.8,4,5.2,21.6,5.2,43.2c0,21.6,17.6,39.2,39.2,39.2c7,0,14-1.9,20.1-5.6l1.5-0.9l18,18  c1.2,1.2,2.8,1.8,4.4,1.8c1.7,0,3.3-0.7,4.4-1.8c1.2-1.2,1.8-2.8,1.8-4.4c0-1.7-0.7-3.3-1.8-4.4L75.4,67.4l1.6-2.3  c4.4-6.5,6.7-14.1,6.7-21.9C83.7,21.6,66.1,4,44.5,4z M44.5,71.8c-15.8,0-28.6-12.8-28.6-28.6c0-15.8,12.8-28.6,28.6-28.6  C60.2,14.6,73,27.4,73,43.2C73,59,60.2,71.8,44.5,71.8z"></path><path d="M44.1,22.9L21.3,38.1l1.9,2.9l4.6-3.1v21h33V38.1l4.4,2.9l1.9-2.9L44.1,22.9z M42.8,49.3c0,0.7-0.6,1.4-1.4,1.4h-3  c-0.7,0-1.4-0.6-1.4-1.4v-2.8c0-0.7,0.6-1.4,1.4-1.4h3c0.7,0,1.4,0.6,1.4,1.4V49.3z M42.8,42.1c0,0.7-0.6,1.4-1.4,1.4h-3  c-0.7,0-1.4-0.6-1.4-1.4v-2.8c0-0.7,0.6-1.4,1.4-1.4h3c0.7,0,1.4,0.6,1.4,1.4V42.1z M50.8,49.3c0,0.7-0.6,1.4-1.4,1.4h-3  c-0.7,0-1.4-0.6-1.4-1.4v-2.8c0-0.7,0.6-1.4,1.4-1.4h3c0.7,0,1.4,0.6,1.4,1.4V49.3z M50.8,42.1c0,0.7-0.6,1.4-1.4,1.4h-3  c-0.7,0-1.4-0.6-1.4-1.4v-2.8c0-0.7,0.6-1.4,1.4-1.4h3c0.7,0,1.4,0.6,1.4,1.4V42.1z"></path></svg></g></svg>