<svg height='100px' width='100px'  fill="#000000" xmlns:x="http://ns.adobe.com/Extensibility/1.0/" xmlns:i="http://ns.adobe.com/AdobeIllustrator/10.0/" xmlns:graph="http://ns.adobe.com/Graphs/1.0/" xmlns="http://www.w3.org/2000/svg" xmlns:xlink="http://www.w3.org/1999/xlink" version="1.1" x="0px" y="0px" viewBox="0 0 100 100" enable-background="new 0 0 100 100" xml:space="preserve"><g><g i:extraneous="self"><g><g><path d="M94.3,88.8l-14-15.4c-0.2-0.2-0.6-0.3-0.8,0L76.6,76c-0.2,0.2-0.3,0.6,0,0.8l14,15.4c0.2,0.2,0.6,0.3,0.8,0l2.8-2.6      C94.5,89.4,94.6,89,94.3,88.8z"></path><path d="M67.1,45c0.1,0,0.2,0,0.4,0V29.8L42.6,12.5L17.7,29.9v0.4v34.1h19.7V50.5h10.4v13.9h3.4c-0.2-1-0.3-2.1-0.3-3.2      C50.8,52.3,58.1,45,67.1,45z"></path><path d="M82.3,61.2c0-8.3-6.6-15-14.9-15.2c-0.1,0-0.3,0-0.4,0c-8.4,0-15.2,6.8-15.2,15.2c0,1.1,0.1,2.2,0.3,3.2      c1.5,6.9,7.6,12.1,14.9,12.1C75.5,76.5,82.3,69.6,82.3,61.2z M67.1,74c-6,0-10.9-4.1-12.4-9.6h2.1v-2h-2.4      c0-0.4-0.1-0.8-0.1-1.2c0-6.5,4.9-11.9,11.1-12.7v2.2h2v-2.3c0,0,0,0,0,0c6.9,0.2,12.4,5.8,12.4,12.8C79.9,68.3,74.1,74,67.1,74      z"></path><rect x="65.4" y="53.4" width="2" height="4.8"></rect><polygon points="65.4,62.4 63.9,62.4 63.9,64.4 67.4,64.4 67.4,60.9 65.4,60.9     "></polygon><rect x="58.3" y="62.4" width="4.1" height="2"></rect></g></g></g></g></svg>