<svg height='100px' width='100px'  fill="#FFFFFF" xmlns="http://www.w3.org/2000/svg" xmlns:xlink="http://www.w3.org/1999/xlink" xml:space="preserve" version="1.1" style="shape-rendering:geometricPrecision;text-rendering:geometricPrecision;image-rendering:optimizeQuality;" viewBox="0 0 258.31 258.32" x="0px" y="0px" fill-rule="evenodd" clip-rule="evenodd"><defs><style type="text/css">
   
    .fil0 {fill:#FFFFFF}
   
  </style></defs><g><path class="fil0" d="M24.88 24.88c33.17,-33.17 86.93,-33.17 120.1,-0 28.77,28.77 32.57,73.03 11.44,105.91l96.33 96.33c16.95,16.95 -8.68,42.6 -25.64,25.64l-96.33 -96.33c-32.87,21.13 -77.14,17.32 -105.91,-11.44 -33.17,-33.17 -33.16,-86.93 0,-120.1zm94.69 12.69c0.57,1.59 0.88,3.3 0.88,5.08 0,8.32 -6.74,15.06 -15.06,15.06 -4.37,0 -8.3,-1.87 -11.06,-4.84 2.07,-2.88 3.29,-6.41 3.29,-10.22 0,-3.81 -1.22,-7.35 -3.29,-10.22 1.94,-2.09 4.46,-3.64 7.31,-4.37 6.36,2.05 12.43,5.22 17.92,9.51zm-53.84 -9.51c1.08,0.28 2.12,0.67 3.09,1.17 -3.82,3.22 -6.26,8.04 -6.26,13.43 0,5.39 2.43,10.2 6.26,13.43 -2.05,1.04 -4.37,1.63 -6.83,1.63 -8.31,0 -15.06,-6.74 -15.06,-15.06 0,-1.78 0.31,-3.5 0.88,-5.08 5.49,-4.28 11.56,-7.46 17.91,-9.51zm2.34 111.4c-0.29,0.05 -0.58,0.08 -0.87,0.1 -6.91,-2.03 -13.51,-5.37 -19.43,-10l0 -34.55 -3.03 0c-4.43,0 -8.04,-3.62 -8.04,-8.04l0 -22.47c0,-2.03 1.66,-3.69 3.69,-3.69l13.17 0c-0.77,1.03 -1.22,2.3 -1.22,3.69l0 22.47c0,5.79 4.72,10.52 10.52,10.52l0.55 0 0 32.39c0,3.88 1.83,7.35 4.68,9.58zm33.64 -78.65c2.03,0 3.69,1.66 3.69,3.69l0 22.47c0,4.43 -3.62,8.04 -8.04,8.04l-3.02 0 0 34.86c0,5.34 -4.37,9.71 -9.71,9.71l-9.04 0c-5.34,0 -9.71,-4.37 -9.71,-9.71l0 -34.86 -3.02 0c-4.43,0 -8.04,-3.62 -8.04,-8.04l0 -22.47c0,-2.03 1.65,-3.69 3.69,-3.69 14.41,0 28.81,0 43.22,0zm-21.61 -33.22c8.32,0 15.06,6.74 15.06,15.06 0,8.32 -6.74,15.06 -15.06,15.06 -8.32,0 -15.06,-6.74 -15.06,-15.06 0,-8.32 6.74,-15.06 15.06,-15.06zm46.91 33.22c2.03,0 3.69,1.66 3.69,3.69l0 22.47c0,4.43 -3.62,8.04 -8.04,8.04l-3.02 0 0 34.55c-5.91,4.63 -12.52,7.97 -19.42,10 -2.21,-0.15 -4.22,-1.05 -5.79,-2.45 1.5,-2.02 2.39,-4.53 2.39,-7.23l0 -32.39 0.55 0c5.79,0 10.52,-4.73 10.52,-10.52l0 -22.47c0,-1.38 -0.46,-2.65 -1.23,-3.69l20.37 0zm-92.47 -26.28c27.83,-27.83 72.95,-27.83 100.78,0 27.83,27.83 27.83,72.95 0,100.78 -27.83,27.83 -72.95,27.83 -100.78,-0 -27.83,-27.83 -27.83,-72.95 0,-100.78z"></path></g></svg>