<svg height='100px' width='100px'  fill="#000000" xmlns:x="http://ns.adobe.com/Extensibility/1.0/" xmlns:i="http://ns.adobe.com/AdobeIllustrator/10.0/" xmlns:graph="http://ns.adobe.com/Graphs/1.0/" xmlns="http://www.w3.org/2000/svg" xmlns:xlink="http://www.w3.org/1999/xlink" version="1.1" x="0px" y="0px" viewBox="0 0 120 120" style="enable-background:new 0 0 120 120;" xml:space="preserve"><g><g i:extraneous="self"><g><path d="M60,27.1L46.1,39.4v-5.1h-7.7v11.9l-18,15.9h8.6v32.1h61.9V62.1h8.6L60,27.1z M77.2,82c-0.3,0.3-0.7,0.5-1.1,0.5     c-0.4,0-0.7-0.1-1-0.4l-11.3-9.9c-2.4,2.1-5.4,3.2-8.4,3.2c-2.9,0-5.9-1-8.3-3.1c-2.5-2.2-4-5.3-4.3-8.6     c-0.2-3.4,0.9-6.6,3.1-9.1c4.6-5.2,12.5-5.7,17.7-1.2c4.8,4.2,5.6,11.4,2.1,16.5l11.3,9.9C77.7,80.4,77.7,81.4,77.2,82z"></path><path d="M61.7,55.6c-1.8-1.6-4.1-2.4-6.3-2.4c-2.7,0-5.3,1.1-7.2,3.3c-3.5,4-3.1,10,0.9,13.5c4,3.5,10,3.1,13.5-0.9     C66,65.2,65.7,59.1,61.7,55.6z"></path></g></g></g></svg>