<svg height='100px' width='100px'  fill="#FFFFFF" xmlns:x="http://ns.adobe.com/Extensibility/1.0/" xmlns:i="http://ns.adobe.com/AdobeIllustrator/10.0/" xmlns:graph="http://ns.adobe.com/Graphs/1.0/" xmlns="http://www.w3.org/2000/svg" xmlns:xlink="http://www.w3.org/1999/xlink" version="1.1" x="0px" y="0px" viewBox="0 0 100 100" style="enable-background:new 0 0 100 100;" xml:space="preserve"><g><g i:extraneous="self"><g><path d="M5273.1,2400.1v-2c0-2.8-5-4-9.7-4s-9.7,1.3-9.7,4v2c0,1.8,0.7,3.6,2,4.9l5,4.9c0.3,0.3,0.4,0.6,0.4,1v6.4     c0,0.4,0.2,0.7,0.6,0.8l2.9,0.9c0.5,0.1,1-0.2,1-0.8v-7.2c0-0.4,0.2-0.7,0.4-1l5.1-5C5272.4,2403.7,5273.1,2401.9,5273.1,2400.1z      M5263.4,2400c-4.8,0-7.4-1.3-7.5-1.8v0c0.1-0.5,2.7-1.8,7.5-1.8c4.8,0,7.3,1.3,7.5,1.8C5270.7,2398.7,5268.2,2400,5263.4,2400z"></path><path d="M5268.4,2410.3c-0.6,0-1,0.4-1,1c0,0.6,0.4,1,1,1h4.3c0.6,0,1-0.4,1-1c0-0.6-0.4-1-1-1H5268.4z"></path><path d="M5272.7,2413.7h-4.3c-0.6,0-1,0.4-1,1c0,0.6,0.4,1,1,1h4.3c0.6,0,1-0.4,1-1C5273.7,2414.1,5273.3,2413.7,5272.7,2413.7z"></path><path d="M5272.7,2417h-4.3c-0.6,0-1,0.4-1,1c0,0.6,0.4,1,1,1h4.3c0.6,0,1-0.4,1-1C5273.7,2417.5,5273.3,2417,5272.7,2417z"></path></g><g><ellipse transform="matrix(0.4232 -0.906 0.906 0.4232 6.1041 55.6351)" cx="46.8" cy="23" rx="17.8" ry="17.8"></ellipse><path d="M84.2,63.3c7.8,0,14.1-6.3,14.1-14.1c0-7.8-6.3-14.1-14.1-14.1c-7.8,0-14.1,6.3-14.1,14.1c0,4.5,2.2,8.6,5.5,11.1     l-4.4,9.9L59,70.6c0,0-7.1-12-11.1-18.6c-5.4-8.8-19.6-18.5-30.2-9.2C7.3,52,4.1,74.7,3.3,90.9C3.2,93,4.9,94.8,7,94.8h32     c2,0,3.7-1.7,3.7-3.7l0-16l4.8,8c0.8,1.4,2.1,2.5,3.5,3.2c1.2,0.5,2.4,0.8,3.7,0.8l21.9-0.8c4.5-0.1,8-3.9,7.8-8.4     c-0.1-3.7-2.7-6.7-6.1-7.6l3.2-7.3C82.5,63.2,83.3,63.3,84.2,63.3z M84.2,41.7c4.1,0,7.5,3.3,7.5,7.5s-3.3,7.5-7.5,7.5     c-4.1,0-7.5-3.3-7.5-7.5S80.1,41.7,84.2,41.7z"></path></g></g></g></svg>