<svg xmlns="http://www.w3.org/2000/svg" xmlns:xlink="http://www.w3.org/1999/xlink" width="100" height="100" viewBox="0 0 100 100"><circle stroke="none" fill="#77b93f" r="48%" cx="50%" cy="50%"></circle><g transform="translate(50 50) scale(0.69 0.69) rotate(0) translate(-50 -50)" style="fill:#ffffff"><svg fill="#ffffff" xmlns="http://www.w3.org/2000/svg" xmlns:xlink="http://www.w3.org/1999/xlink" version="1.1" x="0px" y="0px" viewBox="0 0 29.509 29.892" style="enable-background:new 0 0 29.509 29.892;" xml:space="preserve"><g><path d="M29.076,21.779l-4.051-2.017l-2.122,1.057l3.311,1.649L15.357,27.87c-0.185,0.093-0.393,0.142-0.602,0.142   s-0.417-0.049-0.603-0.142L3.294,22.468l3.313-1.648l-2.122-1.057l-4.052,2.017C0.167,21.911,0,22.178,0,22.469   c0,0.288,0.167,0.555,0.433,0.688l12.839,6.387c0.466,0.232,0.976,0.349,1.484,0.349s1.019-0.116,1.484-0.349l12.836-6.387   c0.266-0.133,0.433-0.399,0.433-0.688C29.509,22.178,29.342,21.911,29.076,21.779z"></path><path d="M29.076,14.259l-4.051-2.017l-7.903,3.933c-0.729,0.363-1.547,0.555-2.366,0.555s-1.637-0.191-2.365-0.555l-7.906-3.933   l-4.052,2.017C0.167,14.391,0,14.656,0,14.947c0,0.289,0.167,0.556,0.433,0.688l12.839,6.389c0.466,0.231,0.976,0.347,1.484,0.347   s1.019-0.115,1.484-0.347l12.836-6.389c0.266-0.132,0.433-0.398,0.433-0.688C29.509,14.656,29.342,14.391,29.076,14.259z"></path><path d="M0.433,8.113l12.839,6.389c0.466,0.231,0.976,0.348,1.484,0.348s1.019-0.116,1.484-0.348l12.836-6.389   c0.266-0.132,0.433-0.397,0.433-0.688c0-0.291-0.167-0.556-0.433-0.688L16.241,0.349C15.774,0.116,15.265,0,14.756,0   s-1.02,0.116-1.485,0.348L0.433,6.737C0.167,6.87,0,7.135,0,7.426C0,7.716,0.167,7.981,0.433,8.113z"></path></g></svg></g></svg>