<svg xmlns="http://www.w3.org/2000/svg" xmlns:xlink="http://www.w3.org/1999/xlink" width="100" height="100" viewBox="0 0 100 100"><circle stroke="none" fill="#77b93f" r="48%" cx="50%" cy="50%"></circle><g transform="translate(50 50) scale(0.69 0.69) rotate(0) translate(-50 -50)" style="fill:#ffffff"><svg fill="#ffffff" xmlns="http://www.w3.org/2000/svg" xmlns:xlink="http://www.w3.org/1999/xlink" version="1.1" x="0px" y="0px" viewBox="0 0 29.875 23.795" style="enable-background:new 0 0 29.875 23.795;" xml:space="preserve"><g><path d="M29.438,15.166l-4.102-2.146l-2.148,1.124l3.352,1.754l-10.99,5.746c-0.188,0.098-0.398,0.15-0.609,0.15   s-0.423-0.053-0.61-0.15L3.336,15.897l3.353-1.753L4.54,13.021l-4.102,2.146C0.17,15.307,0,15.59,0,15.898s0.17,0.591,0.438,0.731   l12.998,6.795c0.472,0.246,0.987,0.37,1.503,0.37c0.515,0,1.03-0.124,1.502-0.37l12.996-6.795c0.269-0.141,0.438-0.423,0.438-0.731   S29.706,15.307,29.438,15.166z"></path><path d="M0.438,8.63l12.998,6.795c0.472,0.246,0.987,0.37,1.503,0.37c0.515,0,1.03-0.124,1.502-0.37L29.438,8.63   c0.269-0.141,0.438-0.423,0.438-0.731s-0.169-0.592-0.438-0.732L16.442,0.37C15.97,0.123,15.454,0,14.938,0   s-1.031,0.123-1.502,0.369L0.438,7.166C0.17,7.307,0,7.59,0,7.898S0.17,8.489,0.438,8.63z"></path></g></svg></g></svg>