<svg height='100px' width='100px'  fill="#FFFFFF" xmlns:x="http://ns.adobe.com/Extensibility/1.0/" xmlns:i="http://ns.adobe.com/AdobeIllustrator/10.0/" xmlns:graph="http://ns.adobe.com/Graphs/1.0/" xmlns="http://www.w3.org/2000/svg" xmlns:xlink="http://www.w3.org/1999/xlink" version="1.1" x="0px" y="0px" viewBox="0 0 100 100" enable-background="new 0 0 100 100" xml:space="preserve"><g><g i:extraneous="self"><path d="M7.9,4.7h84.1c1.8,0,3.3,1.5,3.3,3.3v17c0,1.8-1.5,3.3-3.3,3.3H7.9c-1.8,0-3.3-1.5-3.3-3.3v-17C4.7,6.1,6.1,4.7,7.9,4.7z"></path><path d="M7.9,38.2h84.1c1.8,0,3.3,1.5,3.3,3.3v17c0,1.8-1.5,3.3-3.3,3.3H7.9c-1.8,0-3.3-1.5-3.3-3.3v-17    C4.7,39.7,6.1,38.2,7.9,38.2z"></path><path d="M7.9,71.8h84.1c1.8,0,3.3,1.5,3.3,3.3v17c0,1.8-1.5,3.3-3.3,3.3H7.9c-1.8,0-3.3-1.5-3.3-3.3v-17    C4.7,73.2,6.1,71.8,7.9,71.8z"></path></g></g></svg>