<svg xmlns="http://www.w3.org/2000/svg" xmlns:xlink="http://www.w3.org/1999/xlink" width="100" height="100" viewBox="0 0 100 100"><circle stroke="none" fill="#77b93f" r="48%" cx="50%" cy="50%"></circle><g transform="translate(50 50) scale(0.69 0.69) rotate(0) translate(-50 -50)" style="fill:#ffffff"><svg fill="#ffffff" xmlns="http://www.w3.org/2000/svg" xmlns:xlink="http://www.w3.org/1999/xlink" version="1.1" x="0px" y="0px" viewBox="0 0 100 100" style="enable-background:new 0 0 100 100;" xml:space="preserve"><path d="M35.2,93.6c-4.9,0-9.5-3.1-11.1-8L9.6,41.4c-1.5-4.6,0-9.7,3.8-12.8L38.6,8.5c2.6-2,5.9-2.9,9.1-2.4  c3.2,0.5,6.1,2.4,7.9,5.2l34.3,53c2.1,3.2,2.5,7.1,1.1,10.6c-1.4,3.5-4.3,6.1-8,7L38,93.2C37.1,93.5,36.2,93.6,35.2,93.6z M45.8,9  c-1.9,0-3.9,0.7-5.4,1.9L15.2,30.9c-2.8,2.2-4,6.1-2.8,9.5L27,84.6c1.4,4.3,6,6.8,10.3,5.7L82.2,79c2.7-0.7,4.9-2.6,5.9-5.2  c1-2.6,0.7-5.5-0.8-7.9l-34.3-53c-1.3-2-3.5-3.4-5.9-3.8C46.8,9,46.3,9,45.8,9z"></path></svg></g></svg>