<svg xmlns="http://www.w3.org/2000/svg" xmlns:xlink="http://www.w3.org/1999/xlink" width="100" height="100" viewBox="0 0 100 100"><circle stroke="none" fill="#77b93f" r="48%" cx="50%" cy="50%"></circle><g transform="translate(50 50) scale(0.69 0.69) rotate(0) translate(-50 -50)" style="fill:#ffffff"><svg fill="#ffffff" xmlns="http://www.w3.org/2000/svg" xmlns:xlink="http://www.w3.org/1999/xlink" version="1.1" x="0px" y="0px" viewBox="0 0 100 100" enable-background="new 0 0 100 100" xml:space="preserve"><polygon fill="#ffffff" points="82.669,68.961 82.032,68.961 79.274,68.961 78.478,68.961 76.126,68.961 75.337,68.961   72.976,68.961 72.188,68.961 69.423,68.961 68.784,68.961 68.784,69.449 82.669,69.449 "></polygon><polygon fill="#ffffff" points="83.446,31.949 82.97,31.949 82.97,32.586 82.97,35.736 82.97,36.523 82.97,57.786 82.97,58.573   82.97,68.811 82.97,69.449 83.446,69.449 "></polygon><rect x="83.747" y="31.949" fill="#ffffff" width="0.486" height="37.5"></rect><rect x="87.694" y="31.949" fill="#ffffff" width="0.486" height="37.5"></rect><rect x="84.534" y="31.949" fill="#ffffff" width="2.859" height="37.5"></rect><rect x="78.628" y="58.723" fill="#ffffff" width="0.496" height="9.938"></rect><rect x="79.425" y="58.723" fill="#ffffff" width="2.457" height="9.938"></rect><polygon fill="#ffffff" points="68.784,32.436 69.423,32.436 70.22,32.436 73.36,32.436 74.157,32.436 77.306,32.436 78.095,32.436   81.243,32.436 82.032,32.436 82.669,32.436 82.669,31.949 68.784,31.949 "></polygon><rect x="88.481" y="31.949" fill="#ffffff" width="5.213" height="37.5"></rect><rect x="82.183" y="58.723" fill="#ffffff" width="0.486" height="9.938"></rect><rect x="96.356" y="31.949" fill="#ffffff" width="0.486" height="37.5"></rect><rect x="93.995" y="31.949" fill="#ffffff" width="0.486" height="37.5"></rect><rect x="76.276" y="58.723" fill="#ffffff" width="2.051" height="9.938"></rect><rect x="94.782" y="31.949" fill="#ffffff" width="1.273" height="37.5"></rect><polygon fill="#ffffff" points="97.632,69.748 96.993,69.748 96.206,69.748 94.632,69.748 93.845,69.748 88.331,69.748   87.544,69.748 84.384,69.748 83.597,69.748 82.819,69.748 68.634,69.748 67.847,69.748 67.069,69.748 63.132,69.748 62.345,69.748   56.821,69.748 56.034,69.748 51.319,69.748 50.514,69.748 49.735,69.748 45.01,69.748 44.223,69.748 38.701,69.748 37.923,69.748   33.985,69.748 33.197,69.748 32.41,69.748 18.235,69.748 17.447,69.748 16.65,69.748 13.51,69.748 12.713,69.748 7.201,69.748   6.423,69.748 4.838,69.748 4.051,69.748 3.414,69.748 3.414,70.246 97.632,70.246 "></polygon><polygon fill="#ffffff" points="3.414,31.161 3.414,31.649 4.051,31.649 4.838,31.649 6.423,31.649 7.201,31.649 12.713,31.649   13.51,31.649 16.65,31.649 17.447,31.649 18.235,31.649 32.41,31.649 33.197,31.649 33.985,31.649 37.923,31.649 38.701,31.649   44.223,31.649 45.01,31.649 49.735,31.649 50.514,31.649 51.319,31.649 56.034,31.649 56.821,31.649 62.345,31.649 63.132,31.649   67.069,31.649 67.847,31.649 68.634,31.649 82.819,31.649 83.597,31.649 84.384,31.649 87.544,31.649 88.331,31.649 93.845,31.649   94.632,31.649 96.206,31.649 96.993,31.649 97.632,31.649 97.632,31.161 "></polygon><polygon fill="#ffffff" points="68.784,36.374 82.669,36.374 82.669,35.886 82.032,35.886 81.243,35.886 78.095,35.886   77.306,35.886 74.157,35.886 73.36,35.886 70.22,35.886 69.423,35.886 68.784,35.886 "></polygon><rect x="82.183" y="32.736" fill="#ffffff" width="0.486" height="2.851"></rect><rect x="77.456" y="32.736" fill="#ffffff" width="0.488" height="2.851"></rect><rect x="78.245" y="32.736" fill="#ffffff" width="2.848" height="2.851"></rect><rect x="68.784" y="36.673" fill="#ffffff" width="13.885" height="20.963"></rect><rect x="81.394" y="32.736" fill="#ffffff" width="0.488" height="2.851"></rect><rect x="67.22" y="31.949" fill="#ffffff" width="0.477" height="37.5"></rect><polygon fill="#ffffff" points="68.483,68.811 68.483,58.573 68.483,57.786 68.483,36.523 68.483,35.736 68.483,32.586   68.483,31.949 67.997,31.949 67.997,69.449 68.483,69.449 "></polygon><polygon fill="#ffffff" points="82.669,57.936 68.784,57.936 68.784,58.424 69.423,58.424 72.188,58.424 72.976,58.424   75.337,58.424 76.126,58.424 78.478,58.424 79.274,58.424 82.032,58.424 82.669,58.424 "></polygon><rect x="68.784" y="32.736" fill="#ffffff" width="0.488" height="2.851"></rect><rect x="68.784" y="58.723" fill="#ffffff" width="0.488" height="9.938"></rect><rect x="72.339" y="58.723" fill="#ffffff" width="0.486" height="9.938"></rect><rect x="74.308" y="32.736" fill="#ffffff" width="2.848" height="2.851"></rect><rect x="73.126" y="58.723" fill="#ffffff" width="2.061" height="9.938"></rect><rect x="69.573" y="58.723" fill="#ffffff" width="2.465" height="9.938"></rect><rect x="73.511" y="32.736" fill="#ffffff" width="0.496" height="2.851"></rect><rect x="70.37" y="32.736" fill="#ffffff" width="2.84" height="2.851"></rect><rect x="75.487" y="58.723" fill="#ffffff" width="0.488" height="9.938"></rect><rect x="69.573" y="32.736" fill="#ffffff" width="0.496" height="2.851"></rect><rect x="63.282" y="31.949" fill="#ffffff" width="3.637" height="37.5"></rect><rect x="62.495" y="31.949" fill="#ffffff" width="0.486" height="37.5"></rect><rect x="97.144" y="31.949" fill="#ffffff" width="0.488" height="37.5"></rect><rect x="3.414" y="31.949" fill="#ffffff" width="0.486" height="37.5"></rect><rect x="4.201" y="31.949" fill="#ffffff" width="0.486" height="37.5"></rect><rect x="29.008" y="58.723" fill="#ffffff" width="2.455" height="9.938"></rect><rect x="31.764" y="58.723" fill="#ffffff" width="0.496" height="9.938"></rect><polygon fill="#ffffff" points="18.386,32.436 19.014,32.436 19.801,32.436 22.951,32.436 23.738,32.436 26.889,32.436   27.676,32.436 30.826,32.436 31.613,32.436 32.26,32.436 32.26,31.949 18.386,31.949 "></polygon><polygon fill="#ffffff" points="32.26,68.961 31.613,68.961 28.857,68.961 28.079,68.961 25.707,68.961 24.92,68.961 22.557,68.961   21.77,68.961 19.014,68.961 18.386,68.961 18.386,69.449 32.26,69.449 "></polygon><polygon fill="#ffffff" points="33.047,31.949 32.561,31.949 32.561,32.586 32.561,35.736 32.561,36.523 32.561,57.786   32.561,58.573 32.561,68.811 32.561,69.449 33.047,69.449 "></polygon><rect x="25.857" y="58.723" fill="#ffffff" width="2.071" height="9.938"></rect><rect x="25.07" y="58.723" fill="#ffffff" width="0.486" height="9.938"></rect><rect x="22.707" y="58.723" fill="#ffffff" width="2.062" height="9.938"></rect><rect x="28.229" y="58.723" fill="#ffffff" width="0.478" height="9.938"></rect><rect x="33.348" y="31.949" fill="#ffffff" width="0.487" height="37.5"></rect><rect x="56.185" y="31.949" fill="#ffffff" width="0.486" height="37.5"></rect><rect x="49.886" y="31.949" fill="#ffffff" width="0.478" height="37.5"></rect><rect x="51.47" y="31.949" fill="#ffffff" width="4.414" height="37.5"></rect><rect x="50.664" y="31.949" fill="#ffffff" width="0.505" height="37.5"></rect><rect x="56.972" y="31.949" fill="#ffffff" width="5.223" height="37.5"></rect><rect x="21.92" y="58.723" fill="#ffffff" width="0.486" height="9.938"></rect><rect x="38.073" y="31.949" fill="#ffffff" width="0.478" height="37.5"></rect><rect x="34.136" y="31.949" fill="#ffffff" width="3.637" height="37.5"></rect><rect x="45.16" y="31.949" fill="#ffffff" width="4.425" height="37.5"></rect><rect x="38.852" y="31.949" fill="#ffffff" width="5.221" height="37.5"></rect><rect x="44.373" y="31.949" fill="#ffffff" width="0.486" height="37.5"></rect><rect x="13.66" y="31.949" fill="#ffffff" width="2.84" height="37.5"></rect><polygon fill="#ffffff" points="32.26,57.936 18.386,57.936 18.386,58.424 19.014,58.424 21.77,58.424 22.557,58.424 24.92,58.424   25.707,58.424 28.079,58.424 28.857,58.424 31.613,58.424 32.26,58.424 "></polygon><rect x="31.764" y="32.736" fill="#ffffff" width="0.496" height="2.851"></rect><rect x="16.801" y="31.949" fill="#ffffff" width="0.496" height="37.5"></rect><rect x="18.386" y="36.673" fill="#ffffff" width="13.874" height="20.963"></rect><polygon fill="#ffffff" points="18.386,36.374 32.26,36.374 32.26,35.886 31.613,35.886 30.826,35.886 27.676,35.886 26.889,35.886   23.738,35.886 22.951,35.886 19.801,35.886 19.014,35.886 18.386,35.886 "></polygon><polygon fill="#ffffff" points="18.085,68.811 18.085,58.573 18.085,57.786 18.085,36.523 18.085,35.736 18.085,32.586   18.085,31.949 17.598,31.949 17.598,69.449 18.085,69.449 "></polygon><rect x="4.988" y="31.949" fill="#ffffff" width="1.284" height="37.5"></rect><rect x="6.573" y="31.949" fill="#ffffff" width="0.478" height="37.5"></rect><rect x="7.352" y="31.949" fill="#ffffff" width="5.211" height="37.5"></rect><rect x="12.863" y="31.949" fill="#ffffff" width="0.496" height="37.5"></rect><rect x="27.826" y="32.736" fill="#ffffff" width="2.85" height="2.851"></rect><rect x="19.951" y="32.736" fill="#ffffff" width="2.85" height="2.851"></rect><rect x="18.386" y="32.736" fill="#ffffff" width="0.478" height="2.851"></rect><rect x="19.164" y="32.736" fill="#ffffff" width="0.486" height="2.851"></rect><rect x="18.386" y="58.723" fill="#ffffff" width="0.478" height="9.938"></rect><rect x="19.164" y="58.723" fill="#ffffff" width="2.455" height="9.938"></rect><rect x="30.977" y="32.736" fill="#ffffff" width="0.486" height="2.851"></rect><rect x="23.102" y="32.736" fill="#ffffff" width="0.486" height="2.851"></rect><rect x="27.039" y="32.736" fill="#ffffff" width="0.486" height="2.851"></rect><rect x="23.889" y="32.736" fill="#ffffff" width="2.85" height="2.851"></rect></svg></g></svg>