<svg xmlns="http://www.w3.org/2000/svg" xmlns:xlink="http://www.w3.org/1999/xlink" width="100" height="100" viewBox="0 0 100 100"><circle stroke="none" fill="#03a286" r="48%" cx="50%" cy="50%"></circle><g transform="translate(50 50) scale(0.69 0.69) rotate(0) translate(-50 -50)" style="fill:#ffffff"><svg fill="#ffffff" xmlns="http://www.w3.org/2000/svg" xmlns:xlink="http://www.w3.org/1999/xlink" version="1.1" x="0px" y="0px" viewBox="0 0 70 70" style="enable-background:new 0 0 70 70;" xml:space="preserve"><g><path d="M7.5500183,61.4299927c0,0.5499878,0.4500122,1,1,1h14.6699829V41.581543L7.5500183,41.6431274V61.4299927z    M12.6000061,47.6999512c0-0.5499878,0.4500122-1,1-1h6c0.5599976,0,1,0.4500122,1,1v6c0,0.5500488-0.4400024,1-1,1h-6   c-0.5499878,0-1-0.4499512-1-1V47.6999512z"></path><path d="M7.5500183,39.6430664l15.8123779-0.0621338c0.8430176-6.0385742,5.7283325-10.690979,11.6276245-10.690979   c5.9243164,0,10.8349609,4.6917114,11.6483765,10.7676392l15.791626-0.0620728V26.4945068H7.5500183V39.6430664z    M54.5539856,32.6610107c0-0.5522461,0.4477539-1,1-1s1,0.4477539,1,1v3.6665039c0,0.5522461-0.4477539,1-1,1s-1-0.4477539-1-1   V32.6610107z M49.2424622,32.6610107c0-0.5522461,0.4477539-1,1-1s1,0.4477539,1,1v3.6665039c0,0.5522461-0.4477539,1-1,1   s-1-0.4477539-1-1V32.6610107z M18.7424622,32.6610107c0-0.5522461,0.4477539-1,1-1s1,0.4477539,1,1v3.6665039   c0,0.5522461-0.4477539,1-1,1s-1-0.4477539-1-1V32.6610107z M13.4309387,32.6610107c0-0.5522461,0.4477539-1,1-1s1,0.4477539,1,1   v3.6665039c0,0.5522461-0.4477539,1-1,1s-1-0.4477539-1-1V32.6610107z"></path><path d="M46.769989,62.4299927h14.6600342c0.5599976,0,1-0.4500122,1-1V41.59552L46.769989,41.6571045V62.4299927z    M49.3799744,47.6999512c0-0.5499878,0.4500122-1,1-1h6c0.5500488,0,1,0.4500122,1,1v6c0,0.5500488-0.4499512,1-1,1h-6   c-0.5499878,0-1-0.4499512-1-1V47.6999512z"></path><rect x="7.5500183" y="18.9901123" width="54.8800049" height="5.5043945"></rect><path d="M67.0099792,7.5700073H2.9900208c-0.5500488,0-1,0.4400024-1,1v7.4199829c0,0.5599976,0.4499512,1,1,1h64.0199585   c0.5599976,0,1-0.4400024,1-1V8.5700073C68.0099792,8.0100098,67.5699768,7.5700073,67.0099792,7.5700073z"></path></g></svg></g></svg>