<svg xmlns="http://www.w3.org/2000/svg" xmlns:xlink="http://www.w3.org/1999/xlink" width="100" height="100" viewBox="0 0 100 100"><circle stroke="none" fill="#77b93f" r="48%" cx="50%" cy="50%"></circle><g transform="translate(50 50) scale(0.69 0.69) rotate(15) translate(-50 -50)" style="fill:#ffffff"><svg fill="#ffffff" xmlns="http://www.w3.org/2000/svg" xmlns:sodipodi="http://sodipodi.sourceforge.net/DTD/sodipodi-0.dtd" viewBox="0 0 100 100" x="0px" y="0px"><path d="M 5,5 5,7 6.96875,5 5,5 z"></path><path d="M 10.875,5 5,11 5,13 12.8125,5 10.875,5 z"></path><path d="M 16.75,5 5,17 5,19 18.6875,5 16.75,5 z"></path><path d="M 22.59375,5 5,23 5,25 24.5625,5 22.59375,5 z"></path><path d="M 28.46875,5 5,29 5,31 30.4375,5 28.46875,5 z"></path><path d="M 34.34375,5 5,35 5,37 36.3125,5 34.34375,5 z"></path><path d="M 40.21875,5 5,41 5,43 24.5625,23 42.1875,5 40.21875,5 z"></path><path d="m 46.09375,5 -17.625,18 1.96875,0 17.59375,-18 -1.9375,0 z"></path><path d="m 51.96875,5 -17.625,18 1.96875,0 17.59375,-18 -1.9375,0 z"></path><path d="M 57.8125,5 40.21875,23 42.1875,23 59.78125,5 57.8125,5 z"></path><path d="m 63.6875,5 -17.59375,18 1.9375,0 17.625,-18 -1.96875,0 z"></path><path d="m 69.5625,5 -17.59375,18 1.9375,0 17.625,-18 -1.96875,0 z"></path><path d="m 75.4375,5 -17.625,18 1.96875,0 17.625,-18 -1.96875,0 z"></path><path d="M 81.3125,5 63.6875,23 65.65625,23 83.25,5 81.3125,5 z"></path><path d="M 87.1875,5 69.5625,23 71.53125,23 89.125,5 87.1875,5 z"></path><path d="m 93.03125,5 -17.59375,18 0,2 L 95,5 93.03125,5 z"></path><path d="m 95,9 -19.5625,20 0,2 L 95,11 95,9 z"></path><path d="m 95,15 -19.5625,20 0,2 L 95,17 95,15 z"></path><path d="m 95,21 -19.5625,20 0,2 L 95,23 95,21 z"></path><path d="M 24.5625,27 5,47 l 0,2 19.5625,-20 0,-2 z"></path><path d="m 95,27 -19.5625,20 0,2 L 95,29 95,27 z"></path><path d="M 24.5625,33 5,53 l 0,2 19.5625,-20 0,-2 z"></path><path d="m 95,33 -19.5625,20 0,2 L 95,35 95,33 z"></path><path d="M 24.5625,39 5,59 l 0,2 19.5625,-20 0,-2 z"></path><path d="m 95,39 -19.5625,20 0,2 L 95,41 95,39 z"></path><path d="m 40.5,40.5 0,19 19,0 0,-19 -19,0 z"></path><path d="M 24.5625,45 5,65 l 0,2 19.5625,-20 0,-2 z"></path><path d="m 95,45 -19.5625,20 0,2 L 95,47 95,45 z"></path><path d="M 24.5625,51 5,71 l 0,2 19.5625,-20 0,-2 z"></path><path d="m 95,51 -19.5625,20 0,2 L 95,53 95,51 z"></path><path d="M 24.5625,57 5,77 l 0,2 19.5625,-20 0,-2 z"></path><path d="M 95,57 75.4375,77 57.8125,95 59.78125,95 95,59 95,57 z"></path><path d="M 24.5625,63 5,83 l 0,2 19.5625,-20 0,-2 z"></path><path d="M 95,63 63.6875,95 65.65625,95 95,65 95,63 z"></path><path d="M 24.5625,69 5,89 l 0,2 19.5625,-20 0,-2 z"></path><path d="M 95,69 69.5625,95 71.53125,95 95,71 95,69 z"></path><path d="M 24.5625,75 5,95 6.96875,95 24.5625,77 l 0,-2 z"></path><path d="M 95,75 75.4375,95 77.40625,95 95,77 95,75 z"></path><path d="M 28.46875,77 10.875,95 l 1.9375,0 17.625,-18 -1.96875,0 z"></path><path d="M 34.34375,77 16.75,95 l 1.9375,0 17.625,-18 -1.96875,0 z"></path><path d="m 40.21875,77 -17.625,18 1.96875,0 17.625,-18 -1.96875,0 z"></path><path d="m 46.09375,77 -17.625,18 1.96875,0 17.59375,-18 -1.9375,0 z"></path><path d="m 51.96875,77 -17.625,18 1.96875,0 17.59375,-18 -1.9375,0 z"></path><path d="M 57.8125,77 40.21875,95 42.1875,95 59.78125,77 57.8125,77 z"></path><path d="m 63.6875,77 -17.59375,18 1.9375,0 17.625,-18 -1.96875,0 z"></path><path d="m 69.5625,77 -17.59375,18 1.9375,0 17.625,-18 -1.96875,0 z"></path><path d="M 95,81 81.3125,95 83.25,95 95,83 95,81 z"></path><path d="M 95,87 87.1875,95 89.125,95 95,89 95,87 z"></path><path d="M 95,93 93.03125,95 95,95 95,93 z"></path></svg></g></svg>