<svg xmlns="http://www.w3.org/2000/svg" xmlns:xlink="http://www.w3.org/1999/xlink" width="100" height="100" viewBox="0 0 100 100"><circle stroke="none" fill="#03a286" r="48%" cx="50%" cy="50%"></circle><g transform="translate(50 50) scale(0.69 0.69) rotate(0) translate(-50 -50)" style="fill:#ffffff"><svg fill="#ffffff" xmlns="http://www.w3.org/2000/svg" xmlns:xlink="http://www.w3.org/1999/xlink" version="1.1" x="0px" y="0px" viewBox="0 0 100 100" enable-background="new 0 0 100 100" xml:space="preserve"><g><path d="M11.5,92h77c4.3,0,7.5-3.3,7.5-7.7V42c0-4.5-3.3-8-7.5-8H57V17.5c0-3.1,2.6-5.6,5.7-5.6s5.7,2.5,5.7,5.6c0,1.1,0.9,2,2,2   s2-0.9,2-2c0-5.3-4.4-9.6-9.7-9.6S53,12.2,53,17.5V23H30v-5.5c0-3.1,2.7-5.6,5.9-5.6s5.9,2.6,5.9,5.6c0,1.1,0.9,2,2,2s2-0.9,2-2   c0-5.2-4.5-9.6-9.9-9.6c-5.3,0-9.9,4.4-9.9,9.6V34H11.5C7.3,34,4,37.5,4,42v42.2C4,88.7,7.2,92,11.5,92z M53,27v13H30V27H53z M8,42   c0-2,1.3-4,3.5-4H26v12c0,1.1,0.9,2,2,2s2-0.9,2-2v-6h23v6c0,1.1,0.9,2,2,2s2-0.9,2-2V38h31.5c2.2,0,3.5,2.1,3.5,4v42.2   c0,2.2-1.4,3.7-3.5,3.7h-77C9.4,88,8,86.5,8,84.3V42z"></path><path d="M17.3,71.6c2.6,0,3.8,0.9,5.3,2c1.7,1.2,3.8,2.8,7.7,2.8c3.9,0,6-1.5,7.7-2.8c1.5-1.1,2.7-2,5.3-2c2.6,0,3.8,0.9,5.3,2   c1.7,1.2,3.8,2.8,7.7,2.8c3.9,0,6-1.5,7.7-2.8c1.5-1.1,2.7-2,5.3-2s3.8,0.9,5.3,2c1.7,1.2,3.8,2.8,7.7,2.8c1.1,0,2-0.9,2-2   s-0.9-2-2-2c-2.6,0-3.8-0.9-5.3-2c-1.7-1.2-3.8-2.8-7.7-2.8s-6,1.5-7.7,2.8c-1.5,1.1-2.7,2-5.3,2c-2.6,0-3.8-0.9-5.3-2   c-1.7-1.2-3.8-2.8-7.7-2.8c-3.9,0-6,1.5-7.7,2.8c-1.5,1.1-2.7,2-5.3,2c-2.6,0-3.8-0.9-5.3-2c-1.7-1.2-3.8-2.8-7.7-2.8   c-1.1,0-2,0.9-2,2S16.2,71.6,17.3,71.6z"></path><path d="M17.3,54.8c2.6,0,3.8,0.9,5.3,2c1.7,1.2,3.8,2.8,7.7,2.8c3.9,0,6-1.5,7.7-2.8c1.5-1.1,2.7-2,5.3-2c2.6,0,3.8,0.9,5.3,2   c1.7,1.2,3.8,2.8,7.7,2.8c3.9,0,6-1.5,7.7-2.8c1.5-1.1,2.7-2,5.3-2s3.8,0.9,5.3,2c1.7,1.2,3.8,2.8,7.7,2.8c1.1,0,2-0.9,2-2   s-0.9-2-2-2c-2.6,0-3.8-0.9-5.3-2c-1.7-1.2-3.8-2.8-7.7-2.8s-6,1.5-7.7,2.8c-1.5,1.1-2.7,2-5.3,2c-2.6,0-3.8-0.9-5.3-2   c-1.7-1.2-3.8-2.8-7.7-2.8c-3.9,0-6,1.5-7.7,2.8c-1.5,1.1-2.7,2-5.3,2c-2.6,0-3.8-0.9-5.3-2c-1.7-1.2-3.8-2.8-7.7-2.8   c-1.1,0-2,0.9-2,2S16.2,54.8,17.3,54.8z"></path></g></svg></g></svg>