<svg xmlns="http://www.w3.org/2000/svg" xmlns:xlink="http://www.w3.org/1999/xlink" width="100" height="100" viewBox="0 0 100 100"><circle stroke="none" fill="#03a286" r="48%" cx="50%" cy="50%"></circle><g transform="translate(50 50) scale(0.69 0.69) rotate(0) translate(-50 -50)" style="fill:#ffffff"><svg fill="#ffffff" xmlns="http://www.w3.org/2000/svg" xmlns:xlink="http://www.w3.org/1999/xlink" version="1.1" x="0px" y="0px" viewBox="0 0 1006.883 1006.883" enable-background="new 0 0 1006.883 1006.883" xml:space="preserve"><path d="M655.447,299.797c23.359,23.709,27.674,32.872,33.474,51.836c10.253,33.531,9.646,67.842,7.738,101.937  c-1.362,24.577-6.9,48.965-11.486,73.265c-1.102,5.888-0.663,13.727-10.328,18.022C680.051,463.32,673.732,383.63,655.447,299.797z   M759.334,556.127c40.271-61.91,83.276-121.522,130.462-178.139C826.236,422.788,773.091,475.195,759.334,556.127z M167.638,391.124  c36.698,63.92,68.753,130.071,97.713,197.999C265.798,507.034,222.49,446.25,167.638,391.124z M333.67,358.179  c1.084,0.564,2.242,0.839,3.37,0.839c2.602,0,5.122-1.403,6.408-3.862l44.468-84.498c1.851-3.538,0.49-7.913-3.055-9.772  c-3.542-1.871-7.911-0.505-9.765,3.031l-44.449,84.498C328.78,351.944,330.14,356.313,333.67,358.179z M448.58,252.598  c1.07,0.564,2.229,0.816,3.371,0.816c2.604,0,5.121-1.402,6.409-3.861l44.452-84.476c1.864-3.552,0.505-7.928-3.039-9.787  c-3.543-1.872-7.913-0.506-9.78,3.045l-44.449,84.476C443.689,246.349,445.053,250.717,448.58,252.598z M489.43,341.27  c1.086,0.563,2.229,0.838,3.37,0.838c2.602,0,5.122-1.432,6.407-3.89l44.453-84.469c1.865-3.538,0.506-7.927-3.04-9.787  c-3.542-1.859-7.911-0.513-9.762,3.038l-44.465,84.477C484.542,335.02,485.9,339.403,489.43,341.27z M539.87,432.639  c1.07,0.549,2.227,0.839,3.371,0.839c2.605,0,5.105-1.419,6.395-3.877l44.465-84.484c1.852-3.544,0.491-7.913-3.036-9.792  c-3.546-1.853-7.929-0.493-9.78,3.037l-44.452,84.47C534.964,426.39,536.328,430.758,539.87,432.639z M372.782,432.639  c1.071,0.549,2.229,0.839,3.357,0.839c2.602,0,5.122-1.419,6.423-3.877L427,345.117c1.881-3.544,0.506-7.913-3.04-9.792  c-3.526-1.853-7.926-0.493-9.776,3.037l-44.437,84.47C367.866,426.39,369.239,430.758,372.782,432.639z M736.668,351.178  c1.07,0.563,2.227,0.838,3.358,0.838c2.617,0,5.119-1.402,6.422-3.877l44.437-84.482c1.88-3.538,0.521-7.906-3.023-9.765  c-3.545-1.88-7.913-0.514-9.78,3.024l-44.452,84.498C731.78,344.944,733.139,349.312,736.668,351.178z M278.008,279.055  c1.069,0.564,2.229,0.838,3.354,0.838c2.618,0,5.122-1.402,6.423-3.875l44.452-84.476c1.866-3.538,0.506-7.913-3.024-9.793  c-3.557-1.853-7.928-0.493-9.792,3.044l-44.45,84.478C273.118,272.828,274.478,277.196,278.008,279.055z M699.32,252.598  c1.069,0.564,2.229,0.816,3.37,0.816c2.589,0,5.106-1.402,6.408-3.861l44.452-84.476c1.851-3.552,0.506-7.928-3.04-9.787  c-3.542-1.859-7.91-0.506-9.789,3.045l-44.438,84.476C694.43,246.349,695.791,250.717,699.32,252.598z M600.638,279.055  c1.085,0.564,2.241,0.838,3.383,0.838c2.593,0,5.108-1.402,6.41-3.875l44.452-84.476c1.851-3.538,0.49-7.913-3.036-9.793  c-3.546-1.853-7.929-0.493-9.78,3.044l-44.452,84.478C595.748,272.828,597.11,277.196,600.638,279.055z M851.85,625.873  c-9.947,3.392-20.014,10.472-27.246,14.903c-8.593,5.267-16.14,12.485-25.134,17.914c-9.688,5.85-20.47,11.366-30.822,15.922  c-4.653,2.049-9.92,3.375-14.965,3.962c-1.595,0.186-15.545-0.428-15.742-0.016c2.589-5.451,5.063-10.934,7.191-16.561  c25.227-66.784,68.926-118.281,127.654-157.786c5.9-3.978,11.586-8.258,19.715-14.089  c-60.274,12.006-151.293,79.211-167.867,187.281c-5.525-0.694-12.311-1.635-16.462,0.463c-5.988,3.022-8.026,11.5-13.323,17.766  c-1.198,1.445-2.442,2.66-3.687,3.773c11.165-29.016,10.412-61.015,21.277-90.305c12.021-32.388,21.134-65.862,32.374-98.567  c10.978-31.923,29.998-60.261,42.858-91.217c13.02-31.347,34.978-57.399,48.201-88.708c-28.297,9.974-109.157,125.767-123.1,166.717  c-33.417,98.088-34.343,126.123-24.491,204.394c-10.979,7.798-23.216,5.48-35.135,2.561c-0.391-0.103-0.71-0.116-1.085-0.216  c21.349-52.61,18.054-113.565-8.954-151.408c-8.709,30.088-1.099,58.555-1.245,85.95c-0.1,20.399-1.272,40.938-1.417,63.75  c-9.867-0.478-17.72,2.171-26.47,7.608c-5.006-72.847-24.911-136.885-48.314-149.396c13.02,54.982,23.519,108.59,43.048,152.927  c-1.315,0.926-2.617,1.836-4.021,2.892c-12.094,9.13-23.232,9.433-35.294,2.389c-1.536-0.885-2.968-1.723-4.372-2.505  c2.201-26.238-2.081-51.855-4.802-78.934c-17.069,15.94-22.465,43.409-16.65,71.53c-5.959,0.259-11.96,3.268-19.281,10.196  c-0.663-72.902,7.031-141.846,23.493-210.628c-10.242,2.576-11.152,10.387-13.251,15.983c-8.648,23.175-18.254,46.26-23.781,70.245  c-7.695,33.268-14.117,66.986-9.749,101.762c1.491,11.832,3.08,20.107,8.232,30.752c-4.269,0.159-8.664-1.285-14.064-3.34  c-10.455-4.021-21.477-3.559-31.676-7.71c-0.97-0.407-1.894-0.87-2.792-1.36c5.281-27.815,7.898-52.176,11.948-76.114  c4.603-27.037,17.012-53.738,13.642-84.883c-34.848,34.28-48.227,98.262-32.865,156.122c-4.543-3.239-8.983-5.859-15.347-4.137  c-7.147,1.954-12.861,9.721-19.499,14.018c7.143-19.154,11.512-39.274,17.125-59.858c-20.54,8.305-34.932,30.102-40.316,56.5  c-2.936-1.604-6.059-2.833-9.79-2.602c-5.471,0.347-10.446,3.574-15.565,5.438c4.772-26.08,7.348-49.225,11.194-71.948  c4.603-27.021,17.01-53.739,13.642-84.869c-35.238,34.66-48.561,99.68-32.374,158.033c-1.373-0.116-2.762-0.419-4.196-1.04  c-14.943-6.439-14.274-26.068-32.662-27.456c-1.636-0.131-3.225-0.362-4.832-0.565c11.861-47.893,11.645-82.233-0.954-162.978  c-6.668-42.746-66.324-170.763-92.463-185.443c7.61,33.096,24.751,62.561,32.158,95.687c7.304,32.707,21.162,63.892,26.455,97.248  c5.425,34.141,8.608,68.682,14.871,102.66c2.993,16.259,2.633,32.677,2.53,49.052c-19.527-6.163-36.221-17.936-52.97-31.912  C242.336,538.811,146.983,464.36,84.218,450.763c8.029,5.959,13.639,10.328,19.485,14.408  c58.079,40.475,100.896,92.68,125.007,159.885c2.288,6.379,5.034,12.598,7.87,18.775c-2.252-4.904-11.736-10.287-15.82-13.858  c-8.279-7.239-18.201-16.662-29.924-16.775c-8.918-0.086-25.601,8.205-21.409,19.742c2.344,6.451,8.549,11.716,12.762,16.974  c11.271,14.063,23.483,27.353,35.701,40.603c4.021,4.36,8.198,8.569,12.063,13.07c112.468,130.853,263.572,181.682,403.114,127.322  c42.559-16.576,84.653-41.95,124.024-70.735c15.359-11.245,29.729-23.913,44.436-35.982c21.982-18.04,42.477-37.615,63.081-57.146  c8.602-8.155,21.983-21.112,13.932-33.694C871.78,622.784,861.875,622.455,851.85,625.873z"></path></svg></g></svg>