<svg height='100px' width='100px'  fill="#FFFFFF" xmlns="http://www.w3.org/2000/svg" data-name="Layer 1" viewBox="0 0 512 512" x="0px" y="0px"><title>Artboard 52</title><path d="M161,94.913a13.923,13.923,0,0,0-9,13v2.174a13.923,13.923,0,0,0,9,13Z"></path><path d="M398,122H329.856A5.729,5.729,0,0,1,324,116.178V42H114V470H398ZM228,89h60a6,6,0,0,1,0,12H228a6,6,0,0,1,0-12Zm0,31h60a6,6,0,0,1,0,12H228a6,6,0,0,1,0-12Zm0,33h60a6,6,0,0,1,0,12H228a6,6,0,0,1,0-12Zm15,61.1v79.846a6,6,0,0,1-12,0V214.1a6,6,0,1,1,12,0Zm-40,23.081a6,6,0,0,1,12,0v56.765a6,6,0,0,1-12,0ZM140,110.087v-2.174a25.954,25.954,0,0,1,21-25.44V74.35a6,6,0,0,1,12,0v8.123a25.954,25.954,0,0,1,21,25.44,6,6,0,1,1-12,0,13.923,13.923,0,0,0-9-13v29.56a25.954,25.954,0,0,1,21,25.44v2.174a25.954,25.954,0,0,1-21,25.44v8.123a6,6,0,0,1-12,0v-8.123a25.954,25.954,0,0,1-21-25.44,6,6,0,0,1,12,0,13.923,13.923,0,0,0,9,13v-29.56A25.954,25.954,0,0,1,140,110.087Zm47,148.3v35.556a6,6,0,0,1-12,0V258.387a6,6,0,0,1,12,0Zm-28,35.556a6,6,0,0,1-12,0V268.991a6,6,0,0,1,12,0ZM346.191,408H165.809a6,6,0,1,1,0-12H346.191a6,6,0,1,1,0,12Zm0-40H165.809a6,6,0,1,1,0-12H346.191a6,6,0,1,1,0,12ZM322,308.193a52.121,52.121,0,1,1,46.605-75.18c.053.1.111.19.16.291.067.138.123.279.179.42A52.084,52.084,0,0,1,322,308.193Z"></path><path d="M182,152.087v-2.174a13.923,13.923,0,0,0-9-13v28.174A13.923,13.923,0,0,0,182,152.087Z"></path><polygon points="336 110 389.97 110 336 51.218 336 110"></polygon><path d="M335.214,218.238A39.591,39.591,0,0,0,328,216.456V246.5l26.94-13.131A39.961,39.961,0,0,0,335.214,218.238Z"></path><path d="M324.629,261.49A6,6,0,0,1,316,256.1V216.452a40.091,40.091,0,1,0,44.18,27.711Z"></path></svg>