<svg xmlns="http://www.w3.org/2000/svg" xmlns:xlink="http://www.w3.org/1999/xlink" width="100" height="100" viewBox="0 0 100 100"><circle stroke="none" fill="#03a286" r="48%" cx="50%" cy="50%"></circle><g transform="translate(50 50) scale(0.69 0.69) rotate(0) translate(-50 -50)" style="fill:#ffffff"><svg fill="#ffffff" xmlns="http://www.w3.org/2000/svg" xmlns:xlink="http://www.w3.org/1999/xlink" version="1.1" x="0px" y="0px" viewBox="-55 147 500 500" style="enable-background:new -55 147 500 500;" xml:space="preserve"><path d="M314.5,374.1c-1.6,0-3.1,0.1-4.1,0.2c-12.2,0.9-23.7,6.1-32.3,14.7c-1.2,1.2-2.7,1.5-3.5,1.5s-2.3-0.3-3.5-1.5  c-9.6-9.6-22.5-14.9-36.1-14.9c-0.1,0-0.2,0-0.3,0c-13.6,0-26.5,5.3-36.1,14.9c-1.3,1.3-2.8,1.5-3.5,1.5c-0.8,0-2.3-0.2-3.6-1.5  c-9.6-9.6-22.5-14.9-36.1-14.9h-0.1c-2.5,0-5.1,0.2-7.8,0.6h-0.3c-0.6,0.1-1.3,0.2-1.8,0.3c-0.3,0.1-0.6,0.1-1,0.2  c-9.7,2.1-18.4,6.8-25.4,13.7c-1.2,1.2-2.7,1.5-3.5,1.5s-2.3-0.3-3.5-1.5c-9.6-9.6-22.5-14.9-36.1-14.9c-0.1,0-0.2,0-0.3,0  c-8.2,0-14.8,6.6-14.8,14.7c0,7.9,6.2,14.3,14.1,14.7c0.4,0,0.8,0,1.2,0c5.6,0.1,10.9,2.3,14.9,6.3c6.5,6.5,15.1,10.1,24.3,10.1  c0.1,0,0.1,0,0.2,0c9.2-0.1,17.8-3.7,24.3-10.1c3-2.9,6.7-4.9,10.8-5.8h0.1c0.1,0,0.1,0,0.2,0l0,0c0.3,0,0.6-0.1,0.9-0.1  c1.2-0.2,2.2-0.3,3.1-0.3c0.2,0,0.4,0,0.6,0c5.7,0.1,11,2.3,15,6.3c6.5,6.5,15.2,10.1,24.5,10.1c9.2,0,17.9-3.6,24.4-10.1  c4-4,9.3-6.2,14.9-6.3c0.3,0,0.5,0,0.8,0c5.6,0.1,10.9,2.3,14.9,6.3c6.5,6.5,15.1,10.1,24.3,10.1c0.1,0,0.1,0,0.2,0  c9.2-0.1,17.8-3.7,24.3-10.1c4.6-4.6,9.9-5.9,13.7-6.2c0.6,0,1.3-0.1,1.8-0.1c8.2,0,14.8-6.6,14.8-14.7  C329.3,380.7,322.6,374.1,314.5,374.1z"></path><path d="M369.3,278.3C322.5,248.5,260.6,232,195,232S67.5,248.5,20.7,278.3C-28.1,309.5-55,351.7-55,397s26.9,87.5,75.7,118.7  C67.5,545.5,129.4,562,195,562s127.5-16.5,174.3-46.3C418.1,484.5,445,442.3,445,397S418.1,309.5,369.3,278.3z M353.3,490.9  c-42.1,26.9-98.3,41.7-158.3,41.7S78.7,517.8,36.7,490.9c-2.5-1.6-5-3.3-7.4-5c0.6-0.2,1.3-0.4,1.9-0.5c0.1,0,0.2,0,0.3-0.1l0,0  c0.3,0,0.5-0.1,0.8-0.1c1.2-0.2,2.2-0.3,3.1-0.3c0.2,0,0.4,0,0.5,0c5.7,0.1,11,2.3,15,6.3c6.5,6.5,15.2,10.1,24.5,10.1  c9.2,0,17.9-3.6,24.4-10.1c4-4,9.3-6.2,15-6.3c0.3,0,0.5,0,0.7,0c5.7,0.1,11,2.3,15,6.3c6.5,6.5,15.1,10,24.3,10.1h0.2  c9.2-0.1,17.8-3.7,24.3-10.1c3.6-3.6,8.4-5.8,13.7-6.2c0.6,0,1.3-0.1,1.8-0.1c8.2,0,14.8-6.6,14.8-14.7s-6.6-14.7-14.8-14.7  c-1.6,0-3.1,0.1-4.1,0.2c-12.2,0.9-23.7,6.1-32.3,14.7c-1.2,1.2-2.7,1.5-3.5,1.5s-2.3-0.3-3.5-1.5c-9.6-9.6-22.5-14.9-36.1-14.9H115  c-13.6,0-26.5,5.3-36.1,14.9c-1.3,1.3-2.8,1.5-3.5,1.5c-0.8,0-2.3-0.2-3.6-1.5c-9.6-9.6-22.5-14.9-36.1-14.9h-0.1  c-2.5,0-5,0.2-7.8,0.6h-0.3c-0.6,0.1-1.3,0.2-1.8,0.3c-0.3,0.1-0.6,0.1-0.9,0.2c-7.2,1.5-13.9,4.5-19.7,8.8  c-20-20.7-30.6-44.2-30.6-68.5c0-35,22.1-68.3,62.1-93.9c42.1-26.9,98.3-41.7,158.3-41.7c53.6,0,104.1,11.8,144.2,33.4  c-7.9,2.4-15.2,6.7-21.2,12.7c-1.3,1.3-2.8,1.5-3.5,1.5c-0.8,0-2.3-0.2-3.6-1.5c-9.6-9.6-22.5-14.9-36.1-14.9c-0.1,0-0.1,0-0.2,0  c-2.5,0-5,0.2-7.7,0.6h-0.3c-0.6,0.1-1.3,0.2-1.9,0.3c-0.3,0.1-0.6,0.1-1,0.2c-9.7,2.1-18.4,6.8-25.4,13.7c-1.2,1.2-2.7,1.5-3.5,1.5  s-2.3-0.3-3.5-1.5c-9.6-9.6-22.5-14.9-36.1-14.9H195c-8.2,0-14.8,6.6-14.8,14.7c0,7.9,6.3,14.4,14.2,14.7c0.4,0,0.7,0,1.1,0  c5.7,0.1,11,2.3,15,6.3c6.5,6.5,15.1,10,24.3,10.1h0.2c9.2-0.1,17.8-3.7,24.3-10.1c3-2.9,6.7-4.9,10.8-5.8c0.1,0,0.2,0,0.3-0.1l0,0  c0.3,0,0.5-0.1,0.8-0.1c1.2-0.2,2.2-0.3,3.1-0.3c0.2,0,0.4,0,0.5,0c5.7,0.1,11,2.3,15,6.3c6.5,6.5,15.2,10.1,24.5,10.1  c9.2,0,17.9-3.6,24.4-10.1c4-4,9.3-6.2,15-6.3c0.3,0,0.5,0,0.7,0c5.7,0.1,11,2.3,15,6.3c6.4,6.4,14.9,9.9,23.9,10.1  c14.3,18.1,21.9,38,21.9,58.5C415.4,432,393.4,465.3,353.3,490.9z"></path></svg></g></svg>