<svg xmlns="http://www.w3.org/2000/svg" xmlns:xlink="http://www.w3.org/1999/xlink" width="100" height="100" viewBox="0 0 100 100"><circle stroke="none" fill="#03a286" r="48%" cx="50%" cy="50%"></circle><g transform="translate(50 50) scale(-0.69 0.69) rotate(0) translate(-50 -50)" style="fill:#ffffff"><svg fill="#ffffff" xmlns="http://www.w3.org/2000/svg" xmlns:xlink="http://www.w3.org/1999/xlink" version="1.1" x="0px" y="0px" viewBox="0 0 100 100" enable-background="new 0 0 100 100" xml:space="preserve"><path d="M87.9831543,23.1616211c-1.9672852-1.4824219-4.5019531-0.0786133-4.6088867-0.0180664  c-0.0229492,0.0126953-2.3598633,1.3022461-4.0625,0.0180664c-1.9667969-1.4824219-4.5019531-0.0786133-4.6088867-0.0180664  c-0.0229492,0.0131836-2.359375,1.3022461-4.0620117,0.0180664c-1.9672852-1.4824219-4.5029297-0.0786133-4.609375-0.0180664  c-0.0234375,0.0131836-2.3588867,1.3022461-4.0620117,0.0180664c-1.9667969-1.4824219-4.5029297-0.0786133-4.609375-0.0180664  c-0.0234375,0.0131836-2.3598633,1.3022461-4.0620117,0.0180664c-1.9663086-1.4824219-4.5019531-0.0786133-4.6088867-0.0180664  c-0.0239258,0.0126953-2.3598633,1.3022461-4.0625,0.0180664c-1.6577148-1.2491455-3.7126465-0.4508667-4.3840332-0.131897  l-2.7351074-12.7216187h-8.2597656v37.0695801l-0.0029297,0.001709c-0.0117188,0.0073242-1.2236328,0.7070313-2.0908203,0.0195313  c-1.1401367-0.902832-2.5952148-0.0556641-2.65625-0.0195313c-0.012207,0.0073242-1.2246094,0.706543-2.0913086,0.0195313  c-1.1391602-0.902832-2.5947266-0.0556641-2.65625-0.0195313c-0.0117188,0.0073242-1.2236328,0.7070313-2.0908203,0.0195313  c-1.1381836-0.9018555-2.5952148-0.0556641-2.6572266-0.019043c-0.0117188,0.0073242-1.2163086,0.7094727-2.090332,0.019043  c-1.1396484-0.902832-2.5952148-0.0556641-2.65625-0.0195313c-0.0117188,0.0073242-1.2241211,0.7070313-2.0908203,0.0195313  v0.5765991v3.1873779v0.2625732v38.2664185h83.6704102V23.7955933v-0.5483398  C91.2247925,23.5285034,89.3902588,24.22229,87.9831543,23.1616211z M29.7478027,10.8081055h7.3554688l9.8188477,45.6694336  h32.6030273v8.2553711h-32.769043v8.8735352H29.7478027V10.8081055z"></path></svg></g></svg>