<svg xmlns="http://www.w3.org/2000/svg" xmlns:xlink="http://www.w3.org/1999/xlink" width="100" height="100" viewBox="0 0 100 100"><circle stroke="none" fill="#03a286" r="48%" cx="50%" cy="50%"></circle><g transform="translate(50 50) scale(0.69 0.69) rotate(0) translate(-50 -50)" style="fill:#ffffff"><svg fill="#ffffff" xmlns="http://www.w3.org/2000/svg" xmlns:xlink="http://www.w3.org/1999/xlink" version="1.1" x="0px" y="0px" viewBox="0 0 100 100" enable-background="new 0 0 100 100" xml:space="preserve"><path d="M90.9075317,47.1593018c-1.2548828-0.8383789-2.8789063-0.0419922-2.9472656-0.0078125  c-0.0166016,0.0083008-1.5634766,0.762207-2.6962891,0.0078125c-1.2558594-0.8383789-2.8789063-0.0419922-2.9472656-0.0078125  c-0.015625,0.0083008-1.5644531,0.762207-2.6962891,0.0078125c-1.2558594-0.8383789-2.8789063-0.0419922-2.9472656-0.0078125  c-0.015625,0.0087891-1.5625,0.7661133-2.6972656,0.0078125c-0.3429565-0.2282104-0.7516479-0.3400269-1.2041016-0.3613281  l-7.9355469-36.5058594l-0.0429688-0.1967773h-8.2587891v2.6334839c-0.7254639,0.1798706-2.4876099,0.5275879-3.3886833-0.0719604  c-1.2548714-0.8359375-2.8788948-0.0415039-2.9472542-0.0078125c-0.015625,0.0083008-1.5615234,0.7641602-2.6962891,0.0078125  c-1.2558594-0.8383789-2.8798828-0.0419922-2.9472656-0.0078125c-0.015625,0.0083008-1.5625,0.7641602-2.6962891,0.0078125  c-1.2548828-0.8383789-2.8789063-0.0419922-2.9472656-0.0078125c-0.0156364,0.0083008-1.5615234,0.7641602-2.6962891,0.0078125  c-1.2558594-0.8383789-2.8789063-0.0419922-2.9472656-0.0078125c-0.0166016,0.0083008-1.5625,0.7641602-2.6972656,0.0078125  c-1.2558594-0.8383789-2.8779297-0.0419922-2.9462891-0.0078125c-0.015625,0.0083008-1.5625,0.7641602-2.6972656,0.0078125  c-1.2548828-0.8383789-2.8779297-0.0419922-2.9462891-0.0078125c-0.0166016,0.0073242-1.5634766,0.7631836-2.6972656,0.0078125  c-1.2539063-0.8359375-2.8789063-0.0415039-2.9472656-0.0078125c-0.015625,0.0083008-1.5615234,0.7641602-2.6962891,0.0078125  c-1.2548828-0.8383789-2.8789063-0.0419922-2.9472656-0.0078125c-0.0166016,0.0083008-1.5615234,0.7641602-2.6962891,0.0078125  C7.3378296,12.2172241,6.583374,12.2294312,6,12.3432617v0.2596436v66.8642578v3.6218262v6.8156738h88v-6.8156738v-3.6218262  V47.5587158v-0.2587891C93.1668091,47.4799805,91.7017212,47.6881104,90.9075317,47.1593018z M20.9534302,56.2642822h36.0810547  V10.5953369h7.3564453l11.7207031,53.9243164H20.9534302V56.2642822z"></path></svg></g></svg>