<svg xmlns="http://www.w3.org/2000/svg" xmlns:xlink="http://www.w3.org/1999/xlink" width="100" height="100" viewBox="0 0 100 100"><circle stroke="none" fill="#03a286" r="48%" cx="50%" cy="50%"></circle><g transform="translate(50 50) scale(0.69 0.69) rotate(0) translate(-50 -50)" style="fill:#ffffff"><svg fill="#ffffff" xmlns="http://www.w3.org/2000/svg" xmlns:xlink="http://www.w3.org/1999/xlink" version="1.1" x="0px" y="0px" viewBox="0 0 100 100" style="enable-background:new 0 0 100 100;" xml:space="preserve"><path d="M96.2890625,57.1796875c-0.0253906,0.0078125-2.5693359,0.7783203-3.7148438,0.015625  c-1.2548828-0.8383789-2.8789063-0.0419922-2.9472656-0.0078125c-0.0166016,0.0083008-1.5634766,0.762207-2.6962891,0.0078125  c-1.2558594-0.8383789-2.8789063-0.0419922-2.9472656-0.0078125c-0.015625,0.0083008-1.5644531,0.762207-2.6962891,0.0078125  c-1.2558594-0.8383789-2.8789063-0.0419922-2.9472656-0.0078125c-0.015625,0.0087891-1.5625,0.7661133-2.6972656,0.0078125  c-0.3429565-0.2282104-0.7516479-0.3400269-1.2041016-0.3613281L66.5029297,20.328125l-0.0429688-0.1967773h-8.2587891v2.6334839  c-0.7254639,0.1798706-2.4876099,0.5275879-3.3886719-0.0719604c-1.2548828-0.8359375-2.8789063-0.0415039-2.9472656-0.0078125  c-0.015625,0.0083008-1.5615234,0.7641602-2.6962891,0.0078125c-1.2558594-0.8383789-2.8798828-0.0419922-2.9472656-0.0078125  c-0.015625,0.0083008-1.5625,0.7641602-2.6962891,0.0078125c-1.2548828-0.8383789-2.8789063-0.0419922-2.9472656-0.0078125  c-0.015625,0.0083008-1.5615234,0.7641602-2.6962891,0.0078125c-1.2558594-0.8383789-2.8789063-0.0419922-2.9472656-0.0078125  c-0.0166016,0.0083008-1.5625,0.7641602-2.6972656,0.0078125c-1.2558594-0.8383789-2.8779297-0.0419922-2.9462891-0.0078125  c-0.015625,0.0083008-1.5625,0.7641602-2.6972656,0.0078125c-1.2548828-0.8383789-2.8779297-0.0419922-2.9462891-0.0078125  c-0.0166016,0.0073242-1.5634766,0.7631836-2.6972656,0.0078125c-1.2539063-0.8359375-2.8789063-0.0415039-2.9472656-0.0078125  c-0.015625,0.0083008-1.5615234,0.7641602-2.6962891,0.0078125c-1.2548828-0.8383789-2.8789063-0.0419922-2.9472656-0.0078125  c-0.0166016,0.0083008-1.5615234,0.7641602-2.6962891,0.0078125c-1.2558594-0.8383789-2.8789063-0.0419922-2.9472656-0.0078125  c-0.0615234,0.0307617-0.0869141,0.105957-0.0556641,0.1674805c0.0302734,0.0620117,0.1074219,0.0869141,0.1669922,0.0561523  c0.015625-0.0078125,1.5625-0.7641602,2.6972656-0.0078125c1.2558594,0.8369141,2.8779297,0.0424805,2.9462891,0.0078125  c0.015625-0.0078125,1.5634766-0.7641602,2.6972656-0.0078125c1.2548828,0.8369141,2.8779297,0.0424805,2.9462891,0.0078125  c0.0166016-0.0068359,1.5644531-0.7636719,2.6972656-0.0078125c1.2539063,0.8364258,2.8789063,0.0415039,2.9472656,0.0078125  c0.0166016-0.0078125,1.5625-0.7641602,2.6962891-0.0078125c1.2548828,0.8369141,2.8789063,0.0424805,2.9472656,0.0078125  c0.0166016-0.0078125,1.5615234-0.7641602,2.6962891-0.0078125c0.4296875,0.2866211,0.9033203,0.3818359,1.3417969,0.3818359  c0.8427734,0,1.5605469-0.3515625,1.6054688-0.3740234c0.015625-0.0078125,1.5615234-0.7641602,2.6972656-0.0078125  c1.2558594,0.8369141,2.8779297,0.0424805,2.9462891,0.0078125c0.0166016-0.0078125,1.5625-0.7641602,2.6972656-0.0078125  c1.2548828,0.8369141,2.8779297,0.0424805,2.9462891,0.0078125c0.0166016-0.0078125,1.5615234-0.7641602,2.6972656-0.0078125  c1.2558594,0.8369141,2.8779297,0.0424805,2.9462891,0.0078125c0.015625-0.0068359,1.5644531-0.7636719,2.6972656-0.0078125  c0.9667358,0.6443481,2.7355347,0.3169556,3.5273438,0.1234741V65.800293H22.1201172v9.2553711h56.2792969l-3.9050903-17.9645386  c0.3782349,0.0281982,0.7227173,0.1212158,1.0095825,0.3121948c0.4296875,0.2866211,0.9033203,0.3818359,1.3417969,0.3818359  c0.8427734,0,1.5605469-0.3515625,1.6054688-0.3740234c0.0166016-0.0078125,1.5615234-0.7646484,2.6972656-0.0078125  c1.2558594,0.8369141,2.8779297,0.0419922,2.9462891,0.0078125c0.0166016-0.0078125,1.5625-0.7646484,2.6972656-0.0078125  c1.2548828,0.8369141,2.8779297,0.0419922,2.9462891,0.0078125c0.015625-0.0078125,1.5615234-0.7646484,2.6972656-0.0078125  c1.2441406,0.8295898,3.8193359,0.0493164,3.9277344,0.015625c0.0654297-0.0205078,0.1025391-0.090332,0.0820313-0.15625  C96.4248047,57.1977539,96.3613281,57.1611328,96.2890625,57.1796875z M22.6201172,74.5556641V66.300293h36.0810547V20.6313477  h7.3564453l11.7207031,53.9243164H22.6201172z" stroke="white" stroke-width="3"></path></svg></g></svg>
