<svg xmlns="http://www.w3.org/2000/svg" xmlns:xlink="http://www.w3.org/1999/xlink" width="100" height="100" viewBox="0 0 100 100"><circle stroke="none" fill="#03a286" r="48%" cx="50%" cy="50%"></circle><g transform="translate(50 50) scale(0.69 0.69) rotate(0) translate(-50 -50)" style="fill:#ffffff"><svg fill="#ffffff" xmlns="http://www.w3.org/2000/svg" xmlns:xlink="http://www.w3.org/1999/xlink" version="1.1" x="0px" y="0px" viewBox="0 0 100 100" style="enable-background:new 0 0 100 100;" xml:space="preserve"><path d="M92.605957,68.1000977c-0.0302734-0.0625-0.105957-0.0854492-0.1674805-0.0561523  c-0.0161133,0.0073242-1.5634766,0.7631836-2.6967773,0.0078125c-1.2548828-0.8364258-2.8789063-0.0419922-2.9467773-0.0078125  c-0.0151367,0.0073242-1.5634766,0.7631836-2.6967773,0.0078125c-1.2543945-0.8364258-2.878418-0.0419922-2.9467773-0.0078125  c-0.0151367,0.0087891-1.5615234,0.7651367-2.6972656,0.0078125c-1.2548828-0.8364258-2.8789063-0.0419922-2.9467773-0.0078125  c-0.0161133,0.0073242-1.5634766,0.7631836-2.6967773,0.0078125c-1.2543945-0.8364258-2.878418-0.0419922-2.9467773-0.0078125  c-0.0166016,0.0078125-1.5610352,0.7646484-2.6967773,0.0078125c-1.2553711-0.8364258-2.8793945-0.0419922-2.9472656-0.0078125  c-0.0166016,0.0073242-1.5639648,0.7631836-2.6967773,0.0078125c-0.9642334-0.6429443-2.1397095-0.3239136-2.6665649-0.1256104  l-10.4423218-48.039917l-0.0424805-0.1967773h-8.2592773v3.7802734c-0.4434204,0.1740723-1.5983276,0.5296631-2.5024414-0.0737305  c-1.2553711-0.8374023-2.8779297-0.0419922-2.9467773-0.0078125c-0.0166016,0.0083008-1.5610352,0.765625-2.6967773,0.0078125  c-1.2548828-0.8374023-2.8789063-0.0419922-2.9472656-0.0078125c-0.0161133,0.0083008-1.5634766,0.7641602-2.6967773,0.0078125  c-1.2553711-0.8374023-2.8779297-0.0419922-2.9467773-0.0078125c-0.015625,0.0083008-1.5639648,0.7641602-2.6967773,0.0078125  c-1.2548828-0.8374023-2.878418-0.0419922-2.9467773-0.0078125c-0.015625,0.0083008-1.5610352,0.7661133-2.6972656,0.0078125  c-1.2548828-0.8374023-2.8779297-0.0419922-2.9467773-0.0078125c-0.0166016,0.0083008-1.5639648,0.7641602-2.6967773,0.0078125  c-1.2548828-0.8374023-2.878418-0.0419922-2.9467773-0.0078125c-0.0620117,0.0307617-0.0869141,0.105957-0.0561523,0.1674805  c0.0307617,0.0620117,0.1074219,0.0874023,0.1674805,0.0561523c0.0166016-0.0078125,1.5639648-0.7641602,2.6967773-0.0078125  c1.2548828,0.8364258,2.8789063,0.0419922,2.9467773,0.0078125c0.015625-0.0078125,1.5610352-0.765625,2.6967773-0.0078125  c0.4296875,0.2866211,0.902832,0.3818359,1.3417969,0.3818359c0.8427734,0,1.5605469-0.3515625,1.6054688-0.3740234  c0.015625-0.0078125,1.5639648-0.7641602,2.6967773-0.0078125c1.2548828,0.8364258,2.8789063,0.0419922,2.9467773,0.0078125  c0.0161133-0.0078125,1.5644531-0.7641602,2.6967773-0.0078125c1.2543945,0.8364258,2.878418,0.0419922,2.9467773,0.0078125  c0.0166016-0.0073242,1.5629883-0.7646484,2.6972656-0.0078125c1.2548828,0.8364258,2.8789063,0.0419922,2.9467773,0.0078125  c0.0161133-0.0078125,1.5629883-0.7641602,2.6967773-0.0078125c0.9459839,0.6307983,2.1004028,0.3344116,2.6411133,0.1357422  v50.8740234h20.1977539l-1.3995972-6.4389648c0.4645996-0.1779175,1.5889282-0.5053101,2.4738159,0.0849609  c1.2553711,0.8364258,2.8779297,0.0419922,2.9467773,0.0078125c0.0166016-0.0078125,1.5639648-0.7636719,2.6972656-0.0078125  c1.2543945,0.8364258,2.8779297,0.0419922,2.9472656,0.0078125c0.015625-0.0078125,1.5600586-0.7651367,2.6962891-0.0078125  c1.2553711,0.8364258,2.8779297,0.0419922,2.9467773,0.0078125c0.0161133-0.0078125,1.5629883-0.7636719,2.6967773-0.0078125  c0.4296875,0.2866211,0.902832,0.3818359,1.3417969,0.3818359c0.8427734,0,1.5605469-0.3515625,1.605957-0.3740234  c0.0161133-0.0078125,1.5600586-0.7651367,2.6962891-0.0078125c1.2553711,0.8364258,2.8779297,0.0419922,2.9472656,0.0078125  c0.015625-0.0078125,1.5600586-0.7651367,2.6962891-0.0078125c1.2548828,0.8364258,2.878418,0.0419922,2.9467773,0.0078125  C92.6118164,68.2368164,92.6367188,68.1616211,92.605957,68.1000977z M40.6123047,74.1137695V20.1894531h7.355957  l11.7216797,53.9243164H40.6123047z" stroke="white" stroke-width="3"></path></svg></g></svg>
