<svg xmlns="http://www.w3.org/2000/svg" xmlns:xlink="http://www.w3.org/1999/xlink" width="100" height="100" viewBox="0 0 100 100"><circle stroke="none" fill="#03a286" r="48%" cx="50%" cy="50%"></circle><g transform="translate(50 50) scale(0.69 0.69) rotate(0) translate(-50 -50)" style="fill:#ffffff"><svg fill="#ffffff" xmlns="http://www.w3.org/2000/svg" xmlns:xlink="http://www.w3.org/1999/xlink" version="1.1" x="0px" y="0px" viewBox="0 0 100 100" enable-background="new 0 0 100 100" xml:space="preserve"><path d="M90.1791992,60.9570313c-1.2548828-0.8364258-2.8789063-0.0419922-2.9467773-0.0078125  c-0.0151367,0.0073242-1.5634766,0.7631836-2.6967773,0.0078125c-1.2543945-0.8364258-2.878418-0.0419922-2.9467773-0.0078125  c-0.0151367,0.0087891-1.5615234,0.7651367-2.6972656,0.0078125c-1.2548828-0.8364258-2.8789063-0.0419922-2.9467773-0.0078125  c-0.0161133,0.0073242-1.5634766,0.7631836-2.6967773,0.0078125c-1.2543945-0.8364258-2.878418-0.0419922-2.9467773-0.0078125  c-0.0166016,0.0078125-1.5610352,0.7646484-2.6967773,0.0078125c-1.2553711-0.8364258-2.8793945-0.0419922-2.9472656-0.0078125  c-0.0166016,0.0073242-1.5639648,0.7631836-2.6967773,0.0078125c-0.9642334-0.6429443-2.1397095-0.3239136-2.6665649-0.1256104  l-9.7926636-45.0511475l-0.6496582-2.9887695l-0.0424805-0.1967773h-8.2592773v3.1855469V16.375  c-0.4434204,0.1740723-1.5983276,0.5296631-2.5024414-0.0737305c-1.2553711-0.8374023-2.8779297-0.0419922-2.9467773-0.0078125  c-0.0166016,0.0083008-1.5610352,0.765625-2.6967773,0.0078125c-1.2548828-0.8374023-2.8789063-0.0419922-2.9472656-0.0078125  c-0.0161133,0.0083008-1.5634766,0.7641602-2.6967773,0.0078125c-1.2553711-0.8374023-2.8779297-0.0419922-2.9467773-0.0078125  c-0.015625,0.0083008-1.5639648,0.7641602-2.6967773,0.0078125c-1.2548828-0.8374023-2.878418-0.0419922-2.9467773-0.0078125  c-0.015625,0.0083008-1.5610352,0.7661133-2.6972656,0.0078125c-1.2548828-0.8374023-2.8779297-0.0419922-2.9467773-0.0078125  c-0.0166016,0.0083008-1.5639648,0.7641602-2.6967773,0.0078125C8.9454346,15.7119141,7.8901978,15.9310303,7.3125,16.1246338  v0.2653809v0.8590088v70.15625h85.375v-21.6875v-4.4193115v-0.2705078  C92.2487793,61.2006226,91.0875854,61.5625,90.1791992,60.9570313z M41.0498047,67.019043V15.7802734v-2.6855469h7.355957  l0.5837402,2.6855469L60.1274414,67.019043H41.0498047z"></path></svg></g></svg>