<svg height='100px' width='100px' xmlns="http://www.w3.org/2000/svg" viewBox="0 0 100 100" x="0px" y="0px"><title>SCHOOL_ICONS_100</title><path d="M83.75,17.83H79.32V6.67a1.5,1.5,0,0,0-1.5-1.5H19a1.5,1.5,0,0,0-1.5,1.5v87a1.5,1.5,0,0,0,1.5,1.5H77.82a1.5,1.5,0,0,0,1.5-1.5V62.5h4.42A11.51,11.51,0,0,0,95.24,51V30.2a1.48,1.48,0,0,0-.07-.43,1.48,1.48,0,0,0,.07-.44A11.51,11.51,0,0,0,83.75,17.83ZM76.32,92.17H20.5v-84H76.32V38.66H56.76V29.75a1.5,1.5,0,0,0-2.43-1.18L27.91,49.4a1.5,1.5,0,0,0,0,2.36L54.33,72.59a1.49,1.49,0,0,0,.41.22l.14,0a1.48,1.48,0,0,0,.31.05h.07l.17,0h.12a1.48,1.48,0,0,0,1.21-1.47V62.5H76.32ZM92.24,51a8.51,8.51,0,0,1-8.5,8.5H55.26a1.5,1.5,0,0,0-1.5,1.5v7.32L31.26,50.58l22.5-17.74v7.32a1.5,1.5,0,0,0,1.5,1.5H84.59a11.44,11.44,0,0,0,7.65-3.73ZM84.42,38.66h-5.1V20.83h4.43a8.51,8.51,0,0,1,8.5,8.5,1.48,1.48,0,0,0,.07.43,1.48,1.48,0,0,0-.07.44A8.51,8.51,0,0,1,84.42,38.66Z"></path><path d="M27.5,20H70.33a1.5,1.5,0,0,0,0-3H27.5a1.5,1.5,0,0,0,0,3Z"></path><path d="M27.5,27.12H50a1.5,1.5,0,0,0,0-3H27.5a1.5,1.5,0,0,0,0,3Z"></path><path d="M27.5,34.25H42.18a1.5,1.5,0,1,0,0-3H27.5a1.5,1.5,0,1,0,0,3Z"></path><path d="M27.5,41.37H34a1.5,1.5,0,0,0,0-3H27.5a1.5,1.5,0,0,0,0,3Z"></path><path d="M27.5,62.74H34a1.5,1.5,0,0,0,0-3H27.5a1.5,1.5,0,0,0,0,3Z"></path><path d="M27.5,69.86H42.18a1.5,1.5,0,0,0,0-3H27.5a1.5,1.5,0,0,0,0,3Z"></path><path d="M27.5,77H50a1.5,1.5,0,0,0,0-3H27.5a1.5,1.5,0,0,0,0,3Z"></path><path d="M70.5,24.12H62a1.5,1.5,0,0,0,0,3h8.5a1.5,1.5,0,0,0,0-3Z"></path><path d="M70.5,31.25H62a1.5,1.5,0,1,0,0,3h8.5a1.5,1.5,0,1,0,0-3Z"></path><path d="M62,69.86h8.5a1.5,1.5,0,0,0,0-3H62a1.5,1.5,0,0,0,0,3Z"></path><path d="M62,77h8.5a1.5,1.5,0,0,0,0-3H62a1.5,1.5,0,0,0,0,3Z"></path><path d="M70.33,81.11H27.5a1.5,1.5,0,0,0,0,3H70.33a1.5,1.5,0,1,0,0-3Z"></path></svg>
