<svg height='100px' width='100px'  fill="#FFFFFF" xmlns="http://www.w3.org/2000/svg" data-name="Layer 2" viewBox="0 0 32 32" x="0px" y="0px"><title>Artboard 23</title><path d="M27.93,7.67a.32.32,0,0,0,0-.09,1.07,1.07,0,0,0-.19-.28h0l-6-6h0a1.07,1.07,0,0,0-.28-.19l-.1,0A1.1,1.1,0,0,0,21.06,1H7A1,1,0,0,0,6,2V30a1,1,0,0,0,1,1H27a1,1,0,0,0,1-1V8s0,0,0-.06A1.31,1.31,0,0,0,27.93,7.67ZM24.59,7H22V4.41ZM26,29H8V3H20V8a1,1,0,0,0,1,1h5Z"></path><path d="M18.3,21.83A5,5,0,0,1,12,17a5,5,0,0,1,1.46-3.54.54.54,0,0,0,.09-.12,1,1,0,0,0,.11-.17.67.67,0,0,0,.05-.19.58.58,0,0,0,0-.18.78.78,0,0,0,0-.22c0-.05,0-.09,0-.14l0,0a.48.48,0,0,0-.1-.17.67.67,0,0,0-.11-.18l0,0-.1-.07a.86.86,0,0,0-.2-.13l-.17,0-.19,0a1.33,1.33,0,0,0-.21,0,.77.77,0,0,0-.15,0l-2.12.71a1,1,0,0,0-.66.71,1,1,0,0,0,.27.94l.48.48A7.17,7.17,0,0,0,10,17a7,7,0,0,0,8.81,6.76,1,1,0,0,0-.51-1.93Z"></path><path d="M15.19,10.24a1,1,0,0,0,.51,1.93,5.05,5.05,0,0,1,4.84,1.29,5,5,0,0,1,0,7.08s-.05.07-.08.11a.94.94,0,0,0-.12.18.67.67,0,0,0-.05.19.58.58,0,0,0,0,.18.78.78,0,0,0,0,.22s0,.09,0,.14,0,0,0,0l.05.1a1.1,1.1,0,0,0,.14.21s0,0,0,.05l.05,0a1,1,0,0,0,.21.15l.1.05a1,1,0,0,0,.34.06.89.89,0,0,0,.32,0l2.12-.71a1,1,0,0,0,.66-.72,1,1,0,0,0-.27-.93l-.48-.48A7.17,7.17,0,0,0,24,17,7,7,0,0,0,22,12.05,7,7,0,0,0,15.19,10.24Z"></path></svg>