<svg height='100px' width='100px'  fill="#000000" xmlns="http://www.w3.org/2000/svg" xmlns:xlink="http://www.w3.org/1999/xlink" version="1.1" x="0px" y="0px" viewBox="0 0 90 90" enable-background="new 0 0 90 90" xml:space="preserve"><path fill-rule="evenodd" clip-rule="evenodd" d="M39.375,81.563c-18.638,0-33.75-15.111-33.75-33.75  c0-18.64,15.112-33.75,33.75-33.75V8.438C17.627,8.438,0,26.066,0,47.813C0,69.56,17.627,87.188,39.375,87.188  c21.747,0,39.375-17.628,39.375-39.375h-5.625C73.125,66.451,58.014,81.563,39.375,81.563z"></path><g><polygon fill-rule="evenodd" clip-rule="evenodd" points="28.125,59.063 39.375,59.063 28.125,47.813  "></polygon><rect x="29.148" y="24.323" transform="matrix(0.7071 -0.7071 0.7071 0.7071 -6.7417 48.2808)" fill-rule="evenodd" clip-rule="evenodd" width="51.522" height="15.91"></rect></g><path fill-rule="evenodd" clip-rule="evenodd" d="M73.125,42.188l-11.25,11.25H90L75.938,39.375L73.125,42.188z"></path></svg>