<svg height='100px' width='100px'  fill="#FFFFFF" xmlns:rdf="http://www.w3.org/1999/02/22-rdf-syntax-ns#" xmlns="http://www.w3.org/2000/svg" xmlns:cc="http://creativecommons.org/ns#" xmlns:dc="http://purl.org/dc/elements/1.1/" version="1.1" viewBox="0 0 48 48" x="0px" y="0px"><path style="color-rendering:auto;color:#000000;isolation:auto;mix-blend-mode:normal;shape-rendering:auto;solid-color:#000000;image-rendering:auto;" d="m28.188 4.8262c-0.33776 0-0.60938 0.27168-0.60938 0.60938v2.0898a6.7063 6.7063 0 0 0 -2.8379 1.6406l-1.8105-1.0469c-0.29251-0.1688-0.66316-0.070044-0.83203 0.22266l-1.2207 2.1133c-0.16888 0.2925-0.06985 0.66313 0.22266 0.83203l1.8105 1.0449a6.7063 6.7063 0 0 0 -0.20898 1.6387 6.7063 6.7063 0 0 0 0.21094 1.6387l-1.8125 1.0469c-0.2925 0.1689-0.39154 0.53953-0.22266 0.83203l1.2207 2.1113c0.16888 0.2925 0.53952 0.39146 0.83203 0.22266l1.8027-1.041a6.7063 6.7063 0 0 0 2.8457 1.6406v2.084c0 0.3377 0.27162 0.61133 0.60938 0.61133h2.4395c0.33776 0 0.60938-0.27363 0.60938-0.61133v-2.0898a6.7063 6.7063 0 0 0 2.8379 -1.6387l1.8105 1.0449c0.2925 0.1688 0.66315 0.07004 0.83203-0.22266l1.2188-2.1113c0.16888-0.2925 0.06985-0.66313-0.22266-0.83203l-1.8086-1.0449a6.7063 6.7063 0 0 0 0.20898 -1.6406 6.7063 6.7063 0 0 0 -0.21094 -1.6387l1.8105-1.0449c0.2925-0.1689 0.39153-0.53953 0.22266-0.83203l-1.22-2.1132c-0.169-0.2925-0.539-0.3915-0.832-0.2227l-1.8047 1.043a6.7063 6.7063 0 0 0 -2.8438 -1.6406v-2.0859c0-0.3377-0.27162-0.60938-0.60938-0.60938h-2.4395zm1.2188 5.4863a3.658 3.658 0 0 1 3.6582 3.6582 3.658 3.658 0 0 1 -3.6582 3.6582 3.658 3.658 0 0 1 -3.6562 -3.6582 3.658 3.658 0 0 1 3.6562 -3.6582zm-15.324 5.8438c-0.47064 0-0.84961 0.37901-0.84961 0.84961v2.9121a9.3449 9.3449 0 0 0 -3.9551 2.2852l-2.5234-1.457c-0.40759-0.2353-0.92483-0.09675-1.1602 0.31055l-1.6992 2.943c-0.23532 0.4076-0.097044 0.92486 0.31055 1.1602l2.5234 1.4551a9.3449 9.3449 0 0 0 -0.29297 2.2852 9.3449 9.3449 0 0 0 0.29492 2.2812l-2.5254 1.457c-0.40759 0.2353-0.54587 0.75256-0.31055 1.1602l1.6992 2.9434c0.23532 0.4076 0.75256 0.54585 1.1602 0.31055l2.5137-1.4512a9.3449 9.3449 0 0 0 3.9648 2.2871v2.9043c0 0.4706 0.37896 0.84961 0.84961 0.84961h3.3984c0.47064 0 0.84961-0.37901 0.84961-0.84961v-2.9121a9.3449 9.3449 0 0 0 3.9531 -2.2852l2.5234 1.457c0.40759 0.2353 0.92483 0.09675 1.1602-0.31055l1.6992-2.9434c0.23532-0.4076 0.09704-0.92486-0.31055-1.1602l-2.5215-1.4551a9.3449 9.3449 0 0 0 0.29102 -2.2832 9.3449 9.3449 0 0 0 -0.29492 -2.2832l2.5254-1.457c0.409-0.235 0.547-0.752 0.312-1.16l-1.6992-2.9434c-0.23532-0.4076-0.75256-0.54585-1.1602-0.31055l-2.5137 1.4512a9.3449 9.3449 0 0 0 -3.9629 -2.2852v-2.9062c0-0.4706-0.37896-0.84961-0.84961-0.84961h-3.3984zm1.6992 7.6465a5.0972 5.0972 0 0 1 5.0957 5.0977 5.0972 5.0972 0 0 1 -5.0957 5.0957 5.0972 5.0972 0 0 1 -5.0977 -5.0957 5.0972 5.0972 0 0 1 5.0977 -5.0977zm18.607 1.0801c-0.33776 0-0.60938 0.27363-0.60938 0.61133v2.0898a6.7063 6.7063 0 0 0 -2.8379 1.6387l-1.8105-1.0449c-0.29251-0.1688-0.66315-0.07004-0.83203 0.22266l-1.2207 2.1113c-0.16888 0.2925-0.06985 0.66313 0.22266 0.83203l1.8105 1.0449a6.7063 6.7063 0 0 0 -0.20898 1.6406 6.7063 6.7063 0 0 0 0.21094 1.6387l-1.8125 1.0449c-0.2925 0.1689-0.39154 0.53953-0.22266 0.83203l1.2207 2.1133c0.16888 0.2925 0.53952 0.39146 0.83203 0.22266l1.8027-1.043a6.7063 6.7063 0 0 0 2.8457 1.6406v2.0859c0 0.3377 0.27162 0.60938 0.60938 0.60938h2.4395c0.33776 0 0.60938-0.27168 0.60938-0.60938v-2.0898a6.7063 6.7063 0 0 0 2.8379 -1.6406l1.8105 1.0469c0.2925 0.1688 0.66315 0.07004 0.83203-0.22266l1.2188-2.1133c0.16888-0.2925 0.06984-0.66313-0.22266-0.83203l-1.8086-1.0449a6.7063 6.7063 0 0 0 0.20898 -1.6387 6.7063 6.7063 0 0 0 -0.21289 -1.6387l1.8125-1.0469c0.2925-0.1689 0.39154-0.53953 0.22266-0.83203l-1.2188-2.1113c-0.16888-0.2925-0.53953-0.39146-0.83203-0.22266l-1.8047 1.041a6.7063 6.7063 0 0 0 -2.8438 -1.6406v-2.084c0-0.3377-0.27162-0.61133-0.60938-0.61133h-2.4395zm1.2188 5.4883a3.658 3.658 0 0 1 3.6582 3.6582 3.658 3.658 0 0 1 -3.6582 3.6582 3.658 3.658 0 0 1 -3.6582 -3.6582 3.658 3.658 0 0 1 3.6582 -3.6582z"></path></svg>