<svg xmlns="http://www.w3.org/2000/svg" xmlns:xlink="http://www.w3.org/1999/xlink" width="100" height="100" viewBox="0 0 100 100"><circle stroke="none" fill="#B3B3B3" r="48%" cx="50%" cy="50%"></circle><g transform="translate(50 50) scale(0.69 0.69) rotate(0) translate(-50 -50)" style="fill:#f14bad"><svg fill="#f14bad" xmlns:dc="http://purl.org/dc/elements/1.1/" xmlns:cc="http://creativecommons.org/ns#" xmlns:rdf="http://www.w3.org/1999/02/22-rdf-syntax-ns#" xmlns:svg="http://www.w3.org/2000/svg" xmlns="http://www.w3.org/2000/svg" xmlns:sodipodi="http://sodipodi.sourceforge.net/DTD/sodipodi-0.dtd" xmlns:inkscape="http://www.inkscape.org/namespaces/inkscape" version="1.1" x="0px" y="0px" viewBox="0 0 100 100"><g transform="translate(0,-952.36218)"><path style="text-indent:0;text-transform:none;direction:ltr;block-progression:tb;baseline-shift:baseline;color:#000000;enable-background:accumulate;" d="m 9.6104148,961.97249 c -4.2863,4.28631 -4.2863,11.30944 0,15.59575 l 23.5459202,23.54596 -23.7896002,23.7897 c -2.87405,2.874 -3.30106,7.6037 -0.39599,10.5088 l 9.3513602,9.3514 c 2.90509,2.905 7.66527,2.5084 10.53931,-0.3656 l 23.7896,-23.7896 15.443441,15.4435 c 7.372635,3.0784 13.554536,5.4157 21.109084,8.4375 0.984463,0.4022 2.019628,0.278 2.610933,-0.3133 0.591305,-0.5913 0.715508,-1.6264 0.313269,-2.6109 -3.41953,-6.6677 -4.952477,-15.2541 -8.732051,-21.1091 l -15.148926,-15.4434 23.789596,-23.78971 c 2.87404,-2.87404 3.270622,-7.63421 0.365525,-10.53931 l -9.351355,-9.35135 c -2.905077,-2.90508 -7.634808,-2.47808 -10.508844,0.39598 l -23.789612,23.7896 -23.54592,-23.54592 c -4.2863,-4.2863 -11.30944,-4.2863 -15.5957402,0 z m 10.7220802,18.51995 7.79786,-7.79787 1.94948,1.94947 -7.79788,7.79788 z m 5.8484,5.8484 1.94946,-1.94946 43.527974,43.52802 -1.949463,1.9495 z m 5.8484,-5.8484 1.94947,-1.94946 43.527967,43.52802 -1.949468,1.9495 z m -18.76363,48.31036 23.78961,-23.7896 11.6968,11.6967 -1.94946,1.9496 -2.9242,-2.9243 c -0.541482,-0.5858 -1.612942,-0.5394 -2.10177,0.091 -0.418886,0.5388 -0.348737,1.3948 0.15229,1.8582 l 2.9242,2.9241 -3.89892,3.8989 -6.82314,-6.823 c -0.541482,-0.5858 -1.612953,-0.5394 -2.10178,0.091 -0.418884,0.5388 -0.34873,1.3948 0.1523,1.8582 l 6.82314,6.8231 -3.89893,3.8989 -2.92421,-2.9242 c -0.541482,-0.5857 -1.612932,-0.5394 -2.10176,0.091 -0.418827,0.5388 -0.348676,1.3947 0.1523,1.8581 l 2.9242,2.9243 -3.89894,3.8989 -6.82313,-6.8232 c -0.541482,-0.5858 -1.612942,-0.5394 -2.10177,0.091 -0.418886,0.5388 -0.348737,1.3948 0.15229,1.8582 l 6.82315,6.8231 -2.34545,2.3455 c -1.01398,1.0139 -2.19044,0.9166 -2.74144,0.3654 l -9.35136,-9.3513 c -0.55094,-0.5509 -0.61799,-1.6969 0.39598,-2.7109 z m 39.38535,-39.38546 23.789601,-23.78959 c 1.013958,-1.01398 2.16004,-0.94693 2.71098,-0.39599 l 9.351354,9.35136 c 0.551017,0.55102 0.648453,1.72746 -0.365525,2.74144 l -2.345454,2.34545 -6.823139,-6.82314 c -0.541593,-0.58566 -1.613063,-0.53907 -2.10177,0.0914 -0.418815,0.53881 -0.348663,1.39466 0.152303,1.85808 l 6.823137,6.82315 -3.898935,3.89892 -2.924202,-2.9242 c -0.541593,-0.58566 -1.613063,-0.53907 -2.10177,0.0914 -0.418821,0.53881 -0.348669,1.39467 0.152302,1.85809 l 2.924202,2.92423 -3.898937,3.8989 -6.823136,-6.82313 c -0.541593,-0.58566 -1.613064,-0.53907 -2.101771,0.0914 -0.418786,0.53881 -0.348633,1.39462 0.152308,1.85803 l 6.823128,6.8232 -3.898926,3.8989 -2.924202,-2.9242 c -0.541482,-0.58575 -1.612943,-0.53936 -2.101771,0.091 -0.418829,0.53881 -0.348681,1.39468 0.152294,1.8581 l 2.924202,2.9241 -1.949463,1.94956 -11.69681,-11.69676 z" fill="#f14bad" fill-opacity="1" stroke="none" marker="none" visibility="visible" display="inline" overflow="visible"></path></g></svg></g></svg>