<svg xmlns="http://www.w3.org/2000/svg" xmlns:xlink="http://www.w3.org/1999/xlink" width="100" height="100" viewBox="0 0 100 100"><circle stroke="none" fill="#03a286" r="48%" cx="50%" cy="50%"></circle><g transform="translate(50 50) scale(0.69 0.69) rotate(0) translate(-50 -50)" style="fill:#ffffff"><svg fill="#ffffff" xmlns="http://www.w3.org/2000/svg" xmlns:xlink="http://www.w3.org/1999/xlink" version="1.1" x="0px" y="0px" viewBox="0 0 90 90" style="enable-background:new 0 0 90 90;" xml:space="preserve"><path d="M12.8963318,52.6072083h5.534729h18.961792v19.8634033v4.6330566c0,2.2890625,3.3417969,4.0825195,7.6074219,4.0825195  s7.6069336-1.793457,7.6069336-4.0825195v-4.6330566V52.6072083h19.8634033h4.6330566  c2.2890625,0,4.0825195-3.3417969,4.0825195-7.6074219s-1.793457-7.6069336-4.0825195-7.6069336h-4.6330566H52.6072083v-18.961792  v-5.534729c0-2.2890625-3.3413086-4.0825195-7.6069336-4.0825195s-7.6074219,1.793457-7.6074219,4.0825195v5.534729v18.961792  h-18.961792h-5.534729c-2.2890625,0-4.0825195,3.3413086-4.0825195,7.6069336S10.6072693,52.6072083,12.8963318,52.6072083z   M76.0816956,40.193634c-0.5029907,0-0.9633179,0.2545166-1.3609619,0.6729126  c0.5706177-1.4977417,1.4345703-2.4736938,2.3829346-2.4736938c1.6708984,0,3.0825195,3.0253906,3.0825195,6.6069336  s-1.4116211,6.6074219-3.0825195,6.6074219c-0.9484253,0-1.812439-0.9762573-2.3830566-2.4743042  c0.3977051,0.4185181,0.8580933,0.6730347,1.361084,0.6730347c1.4975586,0,2.6708984-2.1113281,2.6708984-4.8061523  S77.5792542,40.193634,76.0816956,40.193634z M52.6072083,41.193634h12.9189453  c-0.1447754,0.4498291-0.2653198,0.9278564-0.3562622,1.4321289H52.6072083V41.193634z M45.0002747,9.8138123  c3.581543,0,6.6069336,1.4116211,6.6069336,3.0825195c0,0.9483643-0.9759521,1.8123169-2.4736938,2.3829346  c0.418396-0.397644,0.6729126-0.8579712,0.6729126-1.3609619c0-1.4975586-2.1113281-2.6708984-4.8061523-2.6708984  s-4.8061523,1.1733398-4.8061523,2.6708984c0,0.5029907,0.2545166,0.9633789,0.6730347,1.361084  c-1.4980469-0.5706177-2.4743042-1.4346313-2.4743042-2.3830566C38.3928528,11.2254333,41.4187317,9.8138123,45.0002747,9.8138123z   M48.806427,52.6072083v12.9189453c-0.4498291-0.1447754-0.9278564-0.2652588-1.4321289-0.3562622V52.6072083H48.806427z   M47.3742981,37.3928528V24.7792664c0.5042725-0.0910034,0.9822998-0.2114868,1.4321289-0.3562622v12.9698486H47.3742981z   M40.867157,74.7206116c-0.4185181,0.3977051-0.6730347,0.8580933-0.6730347,1.361084  c0,1.4975586,2.1113281,2.6708984,4.8061523,2.6708984s4.8061523-1.1733398,4.8061523-2.6708984  c0-0.5029907-0.2545166-0.9633179-0.6729126-1.3609619c1.4977417,0.5706177,2.4736938,1.4345703,2.4736938,2.3829346  c0,1.6708984-3.0253906,3.0825195-6.6069336,3.0825195s-6.6074219-1.4116211-6.6074219-3.0825195  C38.3928528,76.1552429,39.3691101,75.2912292,40.867157,74.7206116z M37.3928528,41.193634v1.4321289H24.7792664  c-0.0910034-0.5042725-0.2115479-0.9822998-0.3562622-1.4321289H37.3928528z M12.8963318,38.3928528  c0.9483643,0,1.8123169,0.9759521,2.3829346,2.4736938c-0.397644-0.418396-0.8579712-0.6729126-1.3609619-0.6729126  c-1.4975586,0-2.6708984,2.1113281-2.6708984,4.8061523s1.1733398,4.8061523,2.6708984,4.8061523  c0.5029907,0,0.9633789-0.2545166,1.361084-0.6730347c-0.5706177,1.4980469-1.4346313,2.4743042-2.3830566,2.4743042  c-1.6708984,0-3.0825195-3.0258789-3.0825195-6.6074219S11.2254333,38.3928528,12.8963318,38.3928528z"></path></svg></g></svg>