<svg xmlns="http://www.w3.org/2000/svg" xmlns:xlink="http://www.w3.org/1999/xlink" width="100" height="100" viewBox="0 0 100 100"><circle stroke="none" fill="#03a286" r="48%" cx="50%" cy="50%"></circle><g transform="translate(50 50) scale(0.69 0.69) rotate(0) translate(-50 -50)" style="fill:#ffffff"><svg fill="#ffffff" xmlns="http://www.w3.org/2000/svg" xmlns:xlink="http://www.w3.org/1999/xlink" version="1.1" x="0px" y="0px" viewBox="0 0 90 90" style="enable-background:new 0 0 90 90;" xml:space="preserve"><path d="M79.38184,59.01221L68.38086,52.4917c-0.31445-0.18652-0.66699-0.2793-1.01953-0.2793  c-0.3418,0-0.68262,0.08691-0.99023,0.2627c-0.62402,0.35547-1.00977,1.01855-1.00977,1.7373v2.90234L52.98145,57.104  c-0.25586-0.00781-0.46387-0.04492-0.56738-0.0625c-0.86035-0.14941-1.6709-0.56543-2.30664-1.16895l-0.08887-0.08789  c-0.6377-0.6709-1.05273-1.47559-1.20117-2.32422c-0.0293-0.16797-0.05859-0.35645-0.06543-0.55859l-0.01367-0.56738V35.74854  h2.90527c0.71875,0,1.38184-0.38574,1.7373-1.00977c0.35645-0.625,0.34961-1.3916-0.0166-2.00977l-6.52051-11.00098  c-0.36035-0.60742-1.01465-0.98047-1.7207-0.98047s-1.36035,0.37305-1.7207,0.98047L36.88281,32.729  c-0.36621,0.61816-0.37305,1.38574-0.0166,2.00977c0.35547,0.62402,1.01855,1.00977,1.7373,1.00977h2.9043l0.00098,16.8916  l0.01855,0.55762c0,0.61816-0.46191,1.47656-0.67773,1.78613c-0.02051,0.02832-0.15234,0.22559-0.2168,0.31445  c-0.5166,0.74023-1.32715,1.31543-2.21387,1.60059l-0.47559,0.13379l-0.47852,0.06055c0,0-0.20605,0.00879-0.25098,0.0127  c-0.08887,0.00879-0.17383,0.01074-0.30469,0.01074c-0.01465,0-12.27051,0-12.27051,0v-2.9043  c0-0.71875-0.38574-1.38184-1.00977-1.7373c-0.30762-0.17578-0.64844-0.2627-0.99023-0.2627  c-0.35254,0-0.70605,0.09375-1.01953,0.2793l-11.00098,6.52051c-0.60742,0.36035-0.98047,1.01465-0.98047,1.7207  s0.37305,1.36035,0.98047,1.7207l11.00098,6.51953c0.31445,0.18652,0.66699,0.2793,1.01953,0.2793  c0.3418,0,0.68262-0.08691,0.99023-0.2627c0.62402-0.35547,1.00977-1.01855,1.00977-1.7373v-2.90625L37.2627,64.3374  c0.0293,0,0.15332-0.00488,0.18164-0.00586c0.26367-0.01172,0.52539-0.02344,0.78613-0.04688  c0.04199-0.00391,1.08496-0.16309,1.08496-0.16309c0.04883-0.00684,0.09766-0.0166,0.14648-0.02734  c0.30078-0.07031,0.59961-0.14844,0.96484-0.24805c1.35352-0.41406,2.625-1.0752,3.77832-1.96484l0.91602-0.70703l0.91602,0.70703  c1.50781,1.16211,3.25,1.94629,5.03809,2.2666c0.62695,0.1123,1.1875,0.17188,1.68652,0.18262l0.52246,0.0166h12.07715v2.90527  c0,0.71875,0.38574,1.38184,1.00977,1.7373c0.30762,0.17578,0.64844,0.2627,0.99023,0.2627  c0.35254,0,0.70508-0.09375,1.01953-0.2793l11.00098-6.51953c0.60742-0.36035,0.98047-1.01465,0.98047-1.7207  S79.98926,59.37256,79.38184,59.01221z"></path></svg></g></svg>