<svg xmlns="http://www.w3.org/2000/svg" xmlns:xlink="http://www.w3.org/1999/xlink" width="100" height="100" viewBox="0 0 100 100"><circle stroke="none" fill="#77b93f" r="48%" cx="50%" cy="50%"></circle><g transform="translate(50 50) scale(0.69 0.69) rotate(0) translate(-50 -50)" style="fill:#ffffff"><svg fill="#ffffff" xmlns="http://www.w3.org/2000/svg" xmlns:xlink="http://www.w3.org/1999/xlink" version="1.1" x="0px" y="0px" viewBox="0 0 100 100" style="enable-background:new 0 0 100 100;" xml:space="preserve"><g><path d="M94,10.3H6c-0.5,0-1,0.4-1,1v77.5c0,0.5,0.4,1,1,1H94c0.5,0,1-0.4,1-1V11.2C95,10.7,94.6,10.3,94,10.3z M50.9,63.1   c0-0.1,0-0.1,0-0.2c0-0.5-0.4-1-1-1H40c-0.4,0-0.7,0.2-0.8,0.5c-0.3,0.2-0.5,0.5-0.5,0.8v17.5c-3.8-0.2-6.9-1.5-9.1-3.9   c-4.8-5.1-4.2-13.6-4.2-13.7c0-0.5-0.3-0.9-0.7-1c-0.2-0.1-0.4-0.2-0.6-0.2h-1.4V48.4h4.6c0.5,0,1-0.4,1-1s-0.4-1-1-1H6.9V30   C7,30,7,30,7.1,30h29.8c0.5,0,1-0.4,1-1V12.2h11.5c-0.2,0.2-0.2,0.4-0.2,0.6v10.3c0,0.1,0,0.2,0,0.3c0,0,0,0,0,0.1c0,0.5,0.4,1,1,1   h16.9c-0.2,3.9-1.5,7.1-3.9,9.3c-4.9,4.6-13,4.1-13,4.1c-0.5,0-1,0.4-1,0.9c0,0.2,0,0.3,0.1,0.5v16.6c0,0.5,0.4,1,1,1s1-0.4,1-1V51   h42.1v15.4H70.3c-0.5,0-1,0.4-1,1v20.4H51V63.3C51,63.2,51,63.1,50.9,63.1z M7.1,61.9c-0.1,0-0.1,0-0.2,0V48.4h13.8v13.5H7.1z    M71.2,69.9l9.7,8.2l-9.7,8.2V69.9z M72.4,68.3h20.1l-10,8.5L72.4,68.3z M82.4,79.4l9.9,8.4H72.5L82.4,79.4z M83.9,78.1l9.2-7.8   v15.7L83.9,78.1z M93.1,49H51v-9.3c2.6,0,8.9-0.5,13.4-4.6c3-2.8,4.5-6.7,4.5-11.7c0-0.5-0.4-1-1-1H51v-9.7c0-0.2-0.1-0.5-0.2-0.6   h42.4V49z M35.9,12.2V18c-0.1,0-0.2-0.1-0.3-0.1H25.1c-0.5,0-1,0.4-1,1c0,0.5,0.4,1,1,1h10.5c0.1,0,0.2,0,0.3-0.1v2.7   c-0.1,0-0.2-0.1-0.3-0.1H25.1c-0.5,0-1,0.4-1,1c0,0.5,0.4,1,1,1h10.5c0.1,0,0.2,0,0.3-0.1v3.7H7.1c-0.1,0-0.1,0-0.2,0V12.2H35.9z    M6.9,63.8c0.1,0,0.1,0,0.2,0h16.3c0,2.4,0.3,9.5,4.8,14.3c2.8,3,6.7,4.5,11.5,4.5c0.5,0,1-0.4,1-1V63.8H49v24H6.9V63.8z" stroke="white" stroke-width="2"></path><path d="M14.3,25.1h3.9c1.9,0,3.4-1.5,3.4-3.4v-2.4c0-1.9-1.5-3.4-3.4-3.4h-3.9c-1.9,0-3.4,1.5-3.4,3.4v2.4   C10.9,23.5,12.4,25.1,14.3,25.1z M12.8,19.3c0-0.8,0.7-1.5,1.5-1.5h3.9c0.8,0,1.5,0.7,1.5,1.5v2.4c0,0.8-0.7,1.5-1.5,1.5h-3.9   c-0.8,0-1.5-0.7-1.5-1.5V19.3z" stroke="white" stroke-width="2"></path></g></svg></g></svg>
