<svg xmlns="http://www.w3.org/2000/svg" xmlns:xlink="http://www.w3.org/1999/xlink" width="100" height="100" viewBox="0 0 100 100"><circle stroke="none" fill="#03a286" r="48%" cx="50%" cy="50%"></circle><g transform="translate(50 50) scale(0.69 0.69) rotate(0) translate(-50 -50)" style="fill:#ffffff"><svg fill="#ffffff" xmlns="http://www.w3.org/2000/svg" xmlns:xlink="http://www.w3.org/1999/xlink" version="1.1" x="0px" y="0px" viewBox="0 0 66 66" enable-background="new 0 0 66 66" xml:space="preserve"><g><path d="M57.6,27.4c0.3-0.2,0.6-0.5,0.6-0.9c0-0.1,0-0.1,0-0.2L58,16.6c0-0.5-0.5-1-1-1h-2.2l-2.1-9c-0.1-0.5-0.5-0.8-1-0.8H14.3   c-0.5,0-0.9,0.3-1,0.8l-2.1,9H9.1c-0.5,0-1,0.4-1,1l-0.1,9.9c0,0.3,0.1,0.5,0.3,0.7c0.1,0.1,0.1,0.1,0.2,0.1L1,58.8   c-0.1,0.6,0.3,1.2,1,1.2h62c0,0,0,0,0,0c0.7,0,1.2-0.8,0.9-1.4L57.6,27.4z M10,22.6h3.7l0,3H10L10,22.6z M21.8,25.6l0-3h4.1l0,3   H21.8z M25.9,17.6l0,2.9h-4.1l0-2.9H25.9z M32,17.6v2.9h-4.1l0-2.9H32z M44.2,17.6l0,2.9h-4.1l0-2.9H44.2z M38.1,17.6l0,2.9H34   v-2.9H38.1z M27.9,22.6H32v3h-4.1L27.9,22.6z M34,22.6h4.1l0,3H34V22.6z M40.2,25.6l0-3h4.1l0,3H40.2z M46.3,25.6l0-3h4.1l0,3H46.3   z M46.3,20.6l0-2.9h4.1l0,2.9H46.3z M34,15.6v-2.5h14.2l0.5,2.5C45.3,15.6,37.7,15.6,34,15.6z M47.8,11.1H18.2l0.6-3.2h28.4   L47.8,11.1z M17.8,13.1H32v2.5c-0.3,0-14.8,0-14.7,0L17.8,13.1z M19.8,17.6l0,2.9h-4.1l0-2.9H19.8z M19.8,22.6l0,3h-4.1l0-3H19.8z    M15.1,27.6h5.7h0h6.1h0H32v18.3H11.6L15.1,27.6z M11.2,47.9c15.6,0,27.9,0,43.5,0l1.9,10.2H9.3L11.2,47.9z M34,45.9V27.6h5.2h0   h6.1h0h5.6l3.5,18.3H34z M52.4,25.6l0-3h3.7l0,3H52.4z M56,20.6h-3.7l0-2.9H54c0,0,0,0,0,0h2L56,20.6z M52.7,15.6c-0.1,0-2.1,0-2,0   l-1.5-7.7h1.7L52.7,15.6z M15.1,7.9h1.7l-1.5,7.7c-0.1,0-2.2,0-2,0L15.1,7.9z M12,17.6h1.7l0,2.9H10l0-2.9H12z M10.4,27.6H13   L7.3,58.1h-4L10.4,27.6z M58.7,58.1l-5.8-30.5h2.6l7.2,30.5H58.7z"></path></g></svg></g></svg>