<svg xmlns="http://www.w3.org/2000/svg" xmlns:xlink="http://www.w3.org/1999/xlink" width="100" height="100" viewBox="0 0 100 100"><circle stroke="none" fill="#03a286" r="48%" cx="50%" cy="50%"></circle><g transform="translate(50 50) scale(0.69 0.69) rotate(0) translate(-50 -50)" style="fill:#ffffff"><svg fill="#ffffff" xmlns="http://www.w3.org/2000/svg" xmlns:xlink="http://www.w3.org/1999/xlink" version="1.1" x="0px" y="0px" viewBox="0 0 100 99.999" enable-background="new 0 0 100 99.999" xml:space="preserve"><g><path d="M64,69.999H36c-1.657,0-3,1.343-3,3s1.343,3,3,3h11v19h6v-19h11c1.657,0,3-1.343,3-3S65.657,69.999,64,69.999z"></path><path d="M7,23.999h2v71c0,0.008,0.002,0.014,0.002,0.021h5.996c0-0.008,0.002-0.014,0.002-0.021V34.256   c2.254,1.471,4.998,2.438,8,2.68v58.063c0,0.008,0.002,0.014,0.002,0.021h5.996c0-0.008,0.002-0.014,0.002-0.021v-58h42v58   c0,0.008,0.002,0.014,0.002,0.021h5.996c0-0.008,0.002-0.014,0.002-0.021V35.786c3.673-1.427,6.562-4.021,8-7.214v66.427   c0,0.008,0.002,0.014,0.002,0.021h5.996c0-0.008,0.002-0.014,0.002-0.021v-71h2c1.104,0,2-0.896,2-2s-0.896-2-2-2h-2v-6   c0-1.657-1.343-3-3-3s-3,1.343-3,3v6h-8v-6c0-1.657-1.343-3-3-3s-3,1.343-3,3v6H29v-6c0-1.657-1.343-3-3-3s-3,1.343-3,3v6h-8v-6   c0-1.657-1.343-3-3-3s-3,1.343-3,3v6H7c-1.104,0-2,0.896-2,2S5.896,23.999,7,23.999z M82,23.999c0,4.963-5.159,9-11.5,9   s-11.5-4.037-11.5-9H82z M55,23.999c0,4.963-5.159,9-11.5,9s-11.5-4.037-11.5-9H55z"></path></g></svg></g></svg>