<svg xmlns="http://www.w3.org/2000/svg" xmlns:xlink="http://www.w3.org/1999/xlink" width="100" height="100" viewBox="0 0 100 100"><circle stroke="none" fill="#77b93f" r="48%" cx="50%" cy="50%"></circle><g transform="translate(50 50) scale(0.69 0.69) rotate(0) translate(-50 -50)" style="fill:#ffffff"><svg fill="#ffffff" xmlns="http://www.w3.org/2000/svg" xmlns:xlink="http://www.w3.org/1999/xlink" version="1.1" x="0px" y="0px" viewBox="0 0 100 100" enable-background="new 0 0 100 100" xml:space="preserve"><path d="M45.421,77.404h10.034c1.346,0,2.437-1.091,2.437-2.438V64.933c0-1.347-1.091-2.438-2.437-2.438H45.421  c-1.346,0-2.438,1.091-2.438,2.438v10.034C42.983,76.313,44.075,77.404,45.421,77.404z M47.858,67.369h5.16v5.161h-5.16V67.369z"></path><path d="M98.01,43.694L77.646,23.331c-0.952-0.952-2.494-0.952-3.446,0L61.268,36.263l-9.107-9.106  c-0.914-0.915-2.532-0.915-3.446,0l-9.246,9.246L26.397,23.331c-0.457-0.457-1.077-0.714-1.724-0.714  c-0.646,0-1.266,0.257-1.723,0.714L2.587,43.694c-0.697,0.697-0.906,1.745-0.528,2.656c0.377,0.91,1.266,1.504,2.251,1.504h3.172  v26.57c0,1.346,1.091,2.437,2.437,2.437h21.077v9.69c0,1.347,1.091,2.438,2.438,2.438h34.009c1.347,0,2.437-1.091,2.437-2.438v-9.69  h20.797c1.347,0,2.438-1.091,2.438-2.437v-26.57h3.174c0.984,0,1.874-0.594,2.251-1.504C98.915,45.439,98.707,44.391,98.01,43.694z   M50.437,32.327l17.589,17.587H32.851L50.437,32.327z M12.356,71.987v-26.57c0-1.257-0.953-2.293-2.176-2.424L24.674,28.5  l11.349,11.349L25.244,50.628c-0.697,0.696-0.905,1.745-0.528,2.656c0.377,0.909,1.266,1.504,2.252,1.504h4.028v17.199H12.356z   M65.005,84.115H35.87V54.98h29.135V84.115z M88.239,45.417v26.57h-18.36V54.788h4.029c0.007,0,0.014,0.001,0.02,0  c1.346,0,2.437-1.091,2.437-2.438c0-0.767-0.353-1.45-0.906-1.897L64.713,39.709L75.922,28.5l14.494,14.494  C89.193,43.124,88.239,44.159,88.239,45.417z"></path></svg></g></svg>