<svg xmlns="http://www.w3.org/2000/svg" xmlns:xlink="http://www.w3.org/1999/xlink" width="100" height="100" viewBox="0 0 100 100"><circle stroke="none" fill="#77b93f" r="48%" cx="50%" cy="50%"></circle><g transform="translate(50 50) scale(0.69 0.69) rotate(0) translate(-50 -50)" style="fill:#ffffff"><svg fill="#ffffff" xmlns="http://www.w3.org/2000/svg" xmlns:xlink="http://www.w3.org/1999/xlink" version="1.1" x="0px" y="0px" viewBox="0 0 100 100" enable-background="new 0 0 100 100" xml:space="preserve"><polygon fill="none" stroke="#ffffff" stroke-linejoin="round" stroke-miterlimit="10" points="39.405,24.692 60.749,24.692   64.249,20.025 43.737,19.214 "></polygon><polygon stroke="#ffffff" stroke-linecap="round" stroke-linejoin="round" stroke-miterlimit="10" points="69.444,24.692   49.417,24.692 43.737,19.214 65.46,20.073 "></polygon><polygon fill="none" stroke="#ffffff" stroke-linecap="round" stroke-linejoin="round" stroke-miterlimit="10" points="  69.444,32.78 49.585,34.471 49.585,24.692 69.444,24.692 "></polygon><polygon fill="none" stroke="#ffffff" stroke-linecap="round" stroke-linejoin="round" stroke-miterlimit="10" points="  49.585,34.471 39.405,33.517 39.405,24.692 49.585,24.692 "></polygon><polygon stroke="#ffffff" stroke-linecap="round" stroke-linejoin="round" stroke-miterlimit="10" points="47.466,34.235   45.343,34.073 45.343,28.574 47.466,28.574 "></polygon><polygon stroke="#ffffff" stroke-linecap="round" stroke-linejoin="round" stroke-miterlimit="10" points="55.249,30.405   53.239,30.556 53.239,27.006 55.249,27.006 "></polygon><polygon stroke="#ffffff" stroke-linecap="round" stroke-linejoin="round" stroke-miterlimit="10" points="63.72,30.263   61.888,30.399 61.888,27.165 63.72,27.165 "></polygon><polygon fill="none" stroke="#ffffff" stroke-linejoin="round" stroke-miterlimit="10" points="93.995,47.748 68.507,47.748   62.876,36.985 88.821,34.981 "></polygon><polygon stroke="#ffffff" stroke-linecap="round" stroke-linejoin="round" stroke-miterlimit="10" points="57.96,47.748   83.45,47.748 88.618,34.981 62.876,36.985 "></polygon><polygon fill="none" stroke="#ffffff" stroke-linecap="round" stroke-linejoin="round" stroke-miterlimit="10" points="  57.96,56.166 83.45,57.928 83.45,47.748 57.96,47.748 "></polygon><polygon fill="none" stroke="#ffffff" stroke-linecap="round" stroke-linejoin="round" stroke-miterlimit="10" points="  83.45,57.928 93.995,56.935 93.995,47.748 83.45,47.748 "></polygon><polygon stroke="#ffffff" stroke-linecap="round" stroke-linejoin="round" stroke-miterlimit="10" points="85.644,57.68   87.845,57.512 87.845,51.788 85.644,51.788 "></polygon><polygon stroke="#ffffff" stroke-linecap="round" stroke-linejoin="round" stroke-miterlimit="10" points="77.581,53.698   79.661,53.853 79.661,50.156 77.581,50.156 "></polygon><polygon stroke="#ffffff" stroke-linecap="round" stroke-linejoin="round" stroke-miterlimit="10" points="68.804,53.549   70.702,53.688 70.702,50.319 68.804,50.319 "></polygon><polygon fill="none" stroke="#ffffff" stroke-linejoin="round" stroke-miterlimit="10" points="6.005,42.675 29.603,42.675   34.813,33.919 10.794,32.288 "></polygon><polygon stroke="#ffffff" stroke-linecap="round" stroke-linejoin="round" stroke-miterlimit="10" points="39.364,42.675   15.769,42.675 10.981,32.288 34.813,33.919 "></polygon><polygon fill="none" stroke="#ffffff" stroke-linecap="round" stroke-linejoin="round" stroke-miterlimit="10" points="  39.364,49.523 15.769,50.959 15.769,42.675 39.364,42.675 "></polygon><polygon fill="none" stroke="#ffffff" stroke-linecap="round" stroke-linejoin="round" stroke-miterlimit="10" points="  15.769,50.959 6.005,50.146 6.005,42.675 15.769,42.675 "></polygon><polygon stroke="#ffffff" stroke-linecap="round" stroke-linejoin="round" stroke-miterlimit="10" points="13.737,50.755   11.698,50.618 11.698,45.962 13.737,45.962 "></polygon><polygon stroke="#ffffff" stroke-linecap="round" stroke-linejoin="round" stroke-miterlimit="10" points="21.202,47.513   19.272,47.64 19.272,44.632 21.202,44.632 "></polygon><polygon stroke="#ffffff" stroke-linecap="round" stroke-linejoin="round" stroke-miterlimit="10" points="29.325,47.392   27.565,47.506 27.565,44.766 29.325,44.766 "></polygon><polygon fill="none" stroke="#ffffff" stroke-linejoin="round" stroke-miterlimit="10" points="57.87,65.841 25.171,65.466   31.175,48.791 51.552,47.101 "></polygon><polygon stroke="#ffffff" stroke-linecap="round" stroke-linejoin="round" stroke-miterlimit="10" points="25.171,64.589   44.989,65.841 51.304,47.101 31.175,48.791 "></polygon><polygon fill="none" stroke="#ffffff" stroke-linecap="round" stroke-linejoin="round" stroke-miterlimit="10" points="  25.171,78.845 44.989,80.786 44.989,65.841 25.171,64.589 "></polygon><polygon fill="none" stroke="#ffffff" stroke-linecap="round" stroke-linejoin="round" stroke-miterlimit="10" points="  44.989,80.786 57.87,79.326 57.87,65.841 44.989,65.841 "></polygon><polygon stroke="#ffffff" stroke-linecap="round" stroke-linejoin="round" stroke-miterlimit="10" points="49.964,80.145   52.646,79.896 52.646,71.491 49.964,71.491 "></polygon><polygon stroke="#ffffff" stroke-linecap="round" stroke-linejoin="round" stroke-miterlimit="10" points="35.274,75.172   37.815,75.399 37.815,69.974 35.274,69.974 "></polygon><polygon stroke="#ffffff" stroke-linecap="round" stroke-linejoin="round" stroke-miterlimit="10" points="28.942,74.509   31.487,74.705 31.491,69.57 28.946,69.57 "></polygon></svg></g></svg>