<svg xmlns="http://www.w3.org/2000/svg" xmlns:xlink="http://www.w3.org/1999/xlink" width="100" height="100" viewBox="0 0 100 100"><circle stroke="none" fill="#77b93f" r="48%" cx="50%" cy="50%"></circle><g transform="translate(50 50) scale(0.69 0.69) rotate(0) translate(-50 -50)" style="fill:#ffffff"><svg fill="#ffffff" xmlns="http://www.w3.org/2000/svg" xmlns:xlink="http://www.w3.org/1999/xlink" version="1.1" x="0px" y="0px" viewBox="0 0 91 91" style="enable-background:new 0 0 91 91;" xml:space="preserve"><g><g><path d="M36.9,22l-12.7-7.5c-0.6-0.3-1.3-0.3-1.9,0L18,17.1v-1.5c0-1-0.8-1.8-1.8-1.8h-1.9c-1,0-1.8,0.8-1.8,1.8v4.8L9.7,22    c-0.9,0.5-1.2,1.6-0.6,2.5c0.5,0.9,1.6,1.2,2.5,0.6l0.9-0.5v9.3c0,1,0.8,1.8,1.8,1.8h5.5c1,0,1.8-0.8,1.8-1.8v-5.3H25v5.3    c0,1,0.8,1.8,1.8,1.8h5.5c1,0,1.8-0.8,1.8-1.8v-9.3l0.9,0.5c0.3,0.2,0.6,0.3,0.9,0.3c0.6,0,1.2-0.3,1.6-0.9    C38.1,23.6,37.8,22.5,36.9,22z M30.5,32.1h-1.8v-5.3c0-1-0.8-1.8-1.8-1.8h-7.1c-1,0-1.8,0.8-1.8,1.8v5.3h-1.8v-9.6l7.2-4.3    l7.2,4.3v9.6H30.5z"></path><path d="M36.9,48.9l-12.7-7.5c-0.6-0.3-1.3-0.3-1.9,0L18,44v-1.5c0-1-0.8-1.8-1.8-1.8h-1.9c-1,0-1.8,0.8-1.8,1.8v4.8l-2.7,1.6    c-0.9,0.5-1.2,1.6-0.6,2.5c0.5,0.9,1.6,1.2,2.5,0.6l0.9-0.5v9.3c0,1,0.8,1.8,1.8,1.8h5.5c1,0,1.8-0.8,1.8-1.8v-5.3H25v5.3    c0,1,0.8,1.8,1.8,1.8h5.5c1,0,1.8-0.8,1.8-1.8v-9.3L35,52c0.3,0.2,0.6,0.3,0.9,0.3c0.6,0,1.2-0.3,1.6-0.9    C38.1,50.6,37.8,49.5,36.9,48.9z M30.5,59.1h-1.8v-5.3c0-1-0.8-1.8-1.8-1.8h-7.1c-1,0-1.8,0.8-1.8,1.8v5.3h-1.8v-9.6l7.2-4.3    l7.2,4.3v9.6H30.5z"></path><path d="M36.9,75.9l-12.7-7.5c-0.6-0.3-1.3-0.3-1.9,0L18,71v-1.5c0-1-0.8-1.8-1.8-1.8h-1.9c-1,0-1.8,0.8-1.8,1.8v4.8l-2.7,1.6    c-0.9,0.5-1.2,1.6-0.6,2.5c0.5,0.9,1.6,1.2,2.5,0.6l0.9-0.5v9.3c0,1,0.8,1.8,1.8,1.8h5.5c1,0,1.8-0.8,1.8-1.8v-5.3H25v5.3    c0,1,0.8,1.8,1.8,1.8h5.5c1,0,1.8-0.8,1.8-1.8v-9.3L35,79c0.3,0.2,0.6,0.3,0.9,0.3c0.6,0,1.2-0.3,1.6-0.9    C38.1,77.5,37.8,76.4,36.9,75.9z M30.5,86h-1.8v-5.3c0-1-0.8-1.8-1.8-1.8h-7.1c-1,0-1.8,0.8-1.8,1.8V86h-1.8v-9.6l7.2-4.3l7.2,4.3    V86H30.5z"></path><path d="M55.4,12.5l0.9-0.5v9.3c0,1,0.8,1.8,1.8,1.8h5.5c1,0,1.8-0.8,1.8-1.8V16h3.4v5.3c0,1,0.8,1.8,1.8,1.8h5.5    c1,0,1.8-0.8,1.8-1.8V12l0.9,0.5c0.3,0.2,0.6,0.3,0.9,0.3c0.6,0,1.2-0.3,1.6-0.9c0.5-0.9,0.2-2-0.6-2.5L68.1,1.8    c-0.6-0.3-1.3-0.3-1.9,0l-4.3,2.6V2.9c0-1-0.8-1.8-1.8-1.8h-1.9c-1,0-1.8,0.8-1.8,1.8v4.8l-2.7,1.6c-0.9,0.5-1.2,1.6-0.6,2.5    C53.4,12.7,54.5,13,55.4,12.5z M67.1,5.5l7.2,4.3v9.6h-1.8v-5.3c0-1-0.8-1.8-1.8-1.8h-7.1c-1,0-1.8,0.8-1.8,1.8v5.3H60V9.8    L67.1,5.5z"></path><path d="M55.4,39.4l0.9-0.5v9.3c0,1,0.8,1.8,1.8,1.8h5.5c1,0,1.8-0.8,1.8-1.8V43h3.4v5.3c0,1,0.8,1.8,1.8,1.8h5.5    c1,0,1.8-0.8,1.8-1.8V39l0.9,0.5c0.3,0.2,0.6,0.3,0.9,0.3c0.6,0,1.2-0.3,1.6-0.9c0.5-0.9,0.2-2-0.6-2.5L68,28.9    c-0.6-0.3-1.3-0.3-1.9,0l-4.3,2.6V30c0-1-0.8-1.8-1.8-1.8h-1.9c-1,0-1.8,0.8-1.8,1.8v4.8l-2.7,1.6c-0.9,0.5-1.2,1.6-0.6,2.5    C53.4,39.7,54.5,39.9,55.4,39.4z M67.1,32.5l7.2,4.3v9.6h-1.8v-5.3c0-1-0.8-1.8-1.8-1.8h-7.1c-1,0-1.8,0.8-1.8,1.8v5.3H60v-9.6    L67.1,32.5z"></path><path d="M55.4,66.4l0.9-0.5v9.3c0,1,0.8,1.8,1.8,1.8h5.5c1,0,1.8-0.8,1.8-1.8v-5.3h3.4v5.3c0,1,0.8,1.8,1.8,1.8h5.5    c1,0,1.8-0.8,1.8-1.8v-9.3l0.9,0.5c0.3,0.2,0.6,0.3,0.9,0.3c0.6,0,1.2-0.3,1.6-0.9c0.5-0.9,0.2-2-0.6-2.5L68,55.8    c-0.6-0.3-1.3-0.3-1.9,0l-4.3,2.6v-1.5c0-1-0.8-1.8-1.8-1.8h-1.9c-1,0-1.8,0.8-1.8,1.8v4.8l-2.7,1.6c-0.9,0.5-1.2,1.6-0.6,2.5    C53.4,66.6,54.5,66.9,55.4,66.4z M67.1,59.4l7.2,4.3v9.6h-1.8V68c0-1-0.8-1.8-1.8-1.8h-7.1c-1,0-1.8,0.8-1.8,1.8v5.3H60v-9.6    L67.1,59.4z"></path><path d="M88.7,23.6c-1,0-1.8,0.8-1.8,1.8v41.8C86.9,78.1,78,87,67.1,87s-19.7-8.9-19.7-19.7V25.4C47.4,12.5,36.9,2,24,2    S0.6,12.5,0.6,25.4v41.8c0,1,0.8,1.8,1.8,1.8s1.8-0.8,1.8-1.8V25.4C4.3,14.5,13.1,5.7,24,5.7s19.7,8.9,19.7,19.7v41.8    c0,12.9,10.5,23.4,23.4,23.4s23.4-10.5,23.4-23.4V25.4C90.5,24.4,89.7,23.6,88.7,23.6z"></path></g></g></svg></g></svg>