<svg xmlns="http://www.w3.org/2000/svg" xmlns:xlink="http://www.w3.org/1999/xlink" width="100" height="100" viewBox="0 0 100 100"><circle stroke="none" fill="#03a286" r="48%" cx="50%" cy="50%"></circle><g transform="translate(50 50) scale(0.69 0.69) rotate(0) translate(-50 -50)" style="fill:#ffffff"><svg fill="#ffffff" xmlns="http://www.w3.org/2000/svg" xmlns:xlink="http://www.w3.org/1999/xlink" version="1.1" x="0px" y="0px" viewBox="0 0 96 96" enable-background="new 0 0 96 96" xml:space="preserve"><g><polygon points="68.365,45.175 58.933,45.175 58.933,54.851 58.933,55.851 58.933,56.099 68.365,56.099  "></polygon><polygon points="68.366,34.501 68.366,33.501 68.366,23.827 58.933,23.827 58.933,33.501 58.933,34.501 58.933,44.175    68.366,44.175  "></polygon><rect x="58.933" y="13.153" width="9.433" height="9.674"></rect><rect x="48.497" y="55.851" width="9.436" height="0.248"></rect><polygon points="57.933,23.827 57.933,22.827 57.933,13.153 48.498,13.153 48.498,33.501 57.933,33.501  "></polygon><polygon points="57.933,45.175 57.933,44.175 57.933,34.501 48.498,34.501 48.498,54.851 57.933,54.851  "></polygon><polygon points="78.797,13.151 69.364,13.151 69.364,22.827 69.364,33.501 78.797,33.501  "></polygon><rect x="79.798" y="23.827" width="9.434" height="20.348"></rect><rect x="79.798" y="13.153" width="9.434" height="9.674"></rect><polygon points="89.231,45.175 79.796,45.175 79.796,54.849 79.796,55.851 79.796,56.099 89.231,56.099  "></polygon><rect x="38.064" y="13.153" width="9.433" height="9.674"></rect><polygon points="78.797,44.175 78.797,34.501 69.364,34.501 69.364,45.175 69.364,54.849 78.797,54.849  "></polygon><rect x="69.364" y="55.851" width="9.433" height="0.248"></rect><polygon points="16.199,23.827 16.199,13.153 6.767,13.153 6.767,33.501 6.767,33.503 16.199,33.503  "></polygon><polygon points="26.631,23.827 17.197,23.827 17.197,33.501 17.197,34.501 17.197,44.175 26.631,44.175  "></polygon><polygon points="26.63,45.175 17.197,45.175 17.197,54.851 17.197,55.851 17.197,56.099 26.63,56.099  "></polygon><polygon points="16.199,44.175 16.199,34.501 6.767,34.501 6.767,54.851 16.199,54.851  "></polygon><rect x="6.767" y="55.851" width="9.433" height="0.248"></rect><polygon points="6.267,57.099 6.267,82.849 89.731,82.849 89.733,82.849 89.733,57.099  "></polygon><rect x="27.63" y="13.151" width="9.435" height="20.35"></rect><polygon points="47.497,54.851 47.497,45.176 38.063,45.176 38.063,54.849 38.063,55.851 38.063,56.099 47.497,56.099  "></polygon><rect x="38.064" y="23.827" width="9.433" height="20.348"></rect><rect x="17.197" y="13.153" width="9.433" height="9.674"></rect><rect x="27.63" y="55.851" width="9.435" height="0.248"></rect><polygon points="37.064,44.175 37.064,34.501 27.63,34.501 27.63,54.849 37.064,54.849  "></polygon></g></svg></g></svg>