<svg height='100px' width='100px'  fill="#000000" xmlns:dc="http://purl.org/dc/elements/1.1/" xmlns:cc="http://creativecommons.org/ns#" xmlns:rdf="http://www.w3.org/1999/02/22-rdf-syntax-ns#" xmlns:svg="http://www.w3.org/2000/svg" xmlns="http://www.w3.org/2000/svg" xmlns:sodipodi="http://sodipodi.sourceforge.net/DTD/sodipodi-0.dtd" xmlns:inkscape="http://www.inkscape.org/namespaces/inkscape" version="1.1" x="0px" y="0px" viewBox="0 0 100 100"><g transform="translate(0,-952.36218)"><g><path transform="translate(0,952.36218)" d="m 8,8 0,74 47.21875,0 C 54.44335,79.808618 54,77.457 54,75 54,63.40202 63.40202,54 75,54 c 2.457,0 4.808618,0.44335 7,1.21875 L 82,22 68,8 65,8 65,32 c -1.05e-4,1.047169 -0.952831,1.999895 -2,2 l -44,0 c -1.047169,-1.05e-4 -1.999895,-0.952831 -2,-2 L 17,8 z m 13,0 0,22 26,0 0,-22 z m 30,0 0,22 10,0 0,-22 z m 24,84 c -9.388841,0 -17,-7.611159 -17,-17 0,-9.388841 7.611159,-17 17,-17 9.388841,0 17,7.611159 17,17 0,9.388841 -7.611159,17 -17,17 z M 74.78125,84.03125 C 75.909223,84.15555 77.02441,83.1345 77,82 l 0,-9.625 3.6875,3.15625 c 0.79354,0.687492 2.141136,0.59085 2.828455,-0.202839 C 84.203274,74.534721 84.10634,73.187146 83.3125,72.5 l -7,-6 c -0.720214,-0.626282 -1.904786,-0.626282 -2.625,0 l -7,6 c -0.607056,0.505507 -0.865678,1.391528 -0.62588,2.144224 0.239797,0.752697 0.963282,1.325833 1.75088,1.387026 0.539897,0.04578 1.095548,-0.139441 1.5,-0.5 L 73,72.375 73,82 c -0.02124,0.9884 0.798515,1.92325 1.78125,2.03125 z" style="color:#000000;enable-background:accumulate;" fill="#000000" fill-opacity="1" stroke="none" marker="none" visibility="visible" display="inline" overflow="visible"></path></g></g></svg>