<svg height='100px' width='100px'  fill="#000000" xmlns="http://www.w3.org/2000/svg" xmlns:xlink="http://www.w3.org/1999/xlink" version="1.1" x="0px" y="0px" viewBox="0 0 128 128" enable-background="new 0 0 128 128" xml:space="preserve"><g><path fill="#000000" d="M114.5,51c1.8-3.9,2.8-8.2,2.8-12.8c0-16-12.2-28.9-27.3-28.9c-4.3,0-8.3,1-11.9,2.9   C73.2,5.3,65.4,1,56.7,1c-12,0-22.2,8.2-25.8,19.6C18,22.9,8.2,34.8,8.2,49.1c0,1.5,0.1,2.9,0.3,4.4C4,56.8,1,62.3,1,68.5   c0,10.1,7.7,18.3,17.2,18.3h2.7v-41h67.9l18.3,18.3v22.7h2.7c9.5,0,17.2-8.2,17.2-18.3C127,60.2,121.7,53.2,114.5,51z"></path><path fill="#000000" d="M46.8,50.8v16.1h34.3V50.8H46.8z M77.3,60.8c0,1.4-1.1,2.5-2.5,2.5s-2.5-1.1-2.5-2.5v-4   c0-1.4,1.1-2.5,2.5-2.5s2.5,1.1,2.5,2.5V60.8z"></path><path fill="#000000" d="M86.2,50.8v18.6c0,1.4-1.1,2.5-2.5,2.5H44.3c-1.4,0-2.5-1.1-2.5-2.5V50.8H25.9V127h76.2V66.2L86.7,50.8   H86.2z M64,99.6c-5.9,0-10.7-4.8-10.7-10.7S58.1,78.2,64,78.2c5.9,0,10.7,4.8,10.7,10.7S69.9,99.6,64,99.6z"></path></g></svg>